<svg xmlns="http://www.w3.org/2000/svg" width="1180" height="980" viewBox="0 0 1180 980" role="img" aria-label="Best Model Metrics by Neuron Count">
<rect width="1180" height="980" fill="#f7f4ea" />
<text x="42" y="46" fill="#1f1d1a" font-size="28" font-weight="700" font-family="Georgia, serif">Best Model Metrics by Neuron Count</text>
<text x="42" y="68" fill="#6f6659" font-size="13" font-family="Trebuchet MS, Arial, sans-serif">RMSE and training time: lower is better. R^2: higher is better.</text>
<rect x="42.0" y="76.0" width="1096.0" height="255.0" rx="18" fill="#fffdf7" stroke="#e6dec9" />
<text x="66.0" y="110.0" fill="#1f1d1a" font-size="22" font-weight="700" font-family="Georgia, serif">Best Test RMSE</text>
<line x1="112.0" y1="292.2" x2="1108.0" y2="292.2" stroke="#d9d2bf" stroke-width="1" />
<text x="102.0" y="296.2" text-anchor="end" fill="#6f6659" font-size="11" font-family="Trebuchet MS, Arial, sans-serif">270k</text>
<line x1="112.0" y1="243.0" x2="1108.0" y2="243.0" stroke="#d9d2bf" stroke-width="1" />
<text x="102.0" y="247.0" text-anchor="end" fill="#6f6659" font-size="11" font-family="Trebuchet MS, Arial, sans-serif">280k</text>
<line x1="112.0" y1="193.9" x2="1108.0" y2="193.9" stroke="#d9d2bf" stroke-width="1" />
<text x="102.0" y="197.9" text-anchor="end" fill="#6f6659" font-size="11" font-family="Trebuchet MS, Arial, sans-serif">290k</text>
<line x1="112.0" y1="144.7" x2="1108.0" y2="144.7" stroke="#d9d2bf" stroke-width="1" />
<text x="102.0" y="148.7" text-anchor="end" fill="#6f6659" font-size="11" font-family="Trebuchet MS, Arial, sans-serif">300k</text>
<line x1="112.0" y1="95.5" x2="1108.0" y2="95.5" stroke="#d9d2bf" stroke-width="1" />
<text x="102.0" y="99.5" text-anchor="end" fill="#6f6659" font-size="11" font-family="Trebuchet MS, Arial, sans-serif">310k</text>
<line x1="148.9" y1="142.0" x2="148.9" y2="283.0" stroke="#d9d2bf" stroke-width="1" />
<text x="148.9" y="301.0" text-anchor="middle" fill="#6f6659" font-size="11" font-family="Trebuchet MS, Arial, sans-serif">10</text>
<line x1="189.6" y1="142.0" x2="189.6" y2="283.0" stroke="#d9d2bf" stroke-width="1" />
<text x="189.6" y="301.0" text-anchor="middle" fill="#6f6659" font-size="11" font-family="Trebuchet MS, Arial, sans-serif">25</text>
<line x1="257.4" y1="142.0" x2="257.4" y2="283.0" stroke="#d9d2bf" stroke-width="1" />
<text x="257.4" y="301.0" text-anchor="middle" fill="#6f6659" font-size="11" font-family="Trebuchet MS, Arial, sans-serif">50</text>
<line x1="325.2" y1="142.0" x2="325.2" y2="283.0" stroke="#d9d2bf" stroke-width="1" />
<text x="325.2" y="301.0" text-anchor="middle" fill="#6f6659" font-size="11" font-family="Trebuchet MS, Arial, sans-serif">75</text>
<line x1="393.0" y1="142.0" x2="393.0" y2="283.0" stroke="#d9d2bf" stroke-width="1" />
<text x="393.0" y="301.0" text-anchor="middle" fill="#6f6659" font-size="11" font-family="Trebuchet MS, Arial, sans-serif">100</text>
<line x1="460.8" y1="142.0" x2="460.8" y2="283.0" stroke="#d9d2bf" stroke-width="1" />
<text x="460.8" y="301.0" text-anchor="middle" fill="#6f6659" font-size="11" font-family="Trebuchet MS, Arial, sans-serif">125</text>
<line x1="664.2" y1="142.0" x2="664.2" y2="283.0" stroke="#d9d2bf" stroke-width="1" />
<text x="664.2" y="301.0" text-anchor="middle" fill="#6f6659" font-size="11" font-family="Trebuchet MS, Arial, sans-serif">200</text>
<line x1="1071.1" y1="142.0" x2="1071.1" y2="283.0" stroke="#d9d2bf" stroke-width="1" />
<text x="1071.1" y="301.0" text-anchor="middle" fill="#6f6659" font-size="11" font-family="Trebuchet MS, Arial, sans-serif">350</text>
<path d="M 148.89 151.72 L 189.58 220.92 L 257.39 271.66 L 325.20 228.38 L 393.01 252.62 L 460.82 273.28 L 664.25 250.88 L 1071.11 252.76" fill="none" stroke="#264653" stroke-width="3.2" stroke-linecap="round" stroke-linejoin="round" />
<circle cx="148.9" cy="151.7" r="4.8" fill="#264653" stroke="#fffdf7" stroke-width="1.3" />
<text x="156.9" y="141.7" fill="#264653" font-size="10" font-family="Trebuchet MS, Arial, sans-serif">299k</text>
<circle cx="189.6" cy="220.9" r="4.8" fill="#264653" stroke="#fffdf7" stroke-width="1.3" />
<text x="197.6" y="210.9" fill="#264653" font-size="10" font-family="Trebuchet MS, Arial, sans-serif">284k</text>
<circle cx="257.4" cy="271.7" r="4.8" fill="#264653" stroke="#fffdf7" stroke-width="1.3" />
<text x="265.4" y="261.7" fill="#264653" font-size="10" font-family="Trebuchet MS, Arial, sans-serif">274k</text>
<circle cx="325.2" cy="228.4" r="4.8" fill="#264653" stroke="#fffdf7" stroke-width="1.3" />
<text x="333.2" y="218.4" fill="#264653" font-size="10" font-family="Trebuchet MS, Arial, sans-serif">283k</text>
<circle cx="393.0" cy="252.6" r="4.8" fill="#264653" stroke="#fffdf7" stroke-width="1.3" />
<text x="401.0" y="242.6" fill="#264653" font-size="10" font-family="Trebuchet MS, Arial, sans-serif">278k</text>
<circle cx="460.8" cy="273.3" r="4.8" fill="#264653" stroke="#fffdf7" stroke-width="1.3" />
<text x="468.8" y="263.3" fill="#264653" font-size="10" font-family="Trebuchet MS, Arial, sans-serif">274k</text>
<circle cx="664.2" cy="250.9" r="4.8" fill="#264653" stroke="#fffdf7" stroke-width="1.3" />
<text x="672.2" y="240.9" fill="#264653" font-size="10" font-family="Trebuchet MS, Arial, sans-serif">278k</text>
<circle cx="1071.1" cy="252.8" r="4.8" fill="#264653" stroke="#fffdf7" stroke-width="1.3" />
<text x="1079.1" y="242.8" fill="#264653" font-size="10" font-family="Trebuchet MS, Arial, sans-serif">278k</text>
<text x="610.0" y="321.0" text-anchor="middle" fill="#1f1d1a" font-size="12" font-family="Trebuchet MS, Arial, sans-serif">Neuron Count</text>
<rect x="42.0" y="357.0" width="1096.0" height="255.0" rx="18" fill="#fffdf7" stroke="#e6dec9" />
<text x="66.0" y="391.0" fill="#1f1d1a" font-size="22" font-weight="700" font-family="Georgia, serif">Best Test R^2</text>
<line x1="112.0" y1="600.6" x2="1108.0" y2="600.6" stroke="#d9d2bf" stroke-width="1" />
<text x="102.0" y="604.6" text-anchor="end" fill="#6f6659" font-size="11" font-family="Trebuchet MS, Arial, sans-serif">0.62</text>
<line x1="112.0" y1="557.9" x2="1108.0" y2="557.9" stroke="#d9d2bf" stroke-width="1" />
<text x="102.0" y="561.9" text-anchor="end" fill="#6f6659" font-size="11" font-family="Trebuchet MS, Arial, sans-serif">0.64</text>
<line x1="112.0" y1="515.1" x2="1108.0" y2="515.1" stroke="#d9d2bf" stroke-width="1" />
<text x="102.0" y="519.1" text-anchor="end" fill="#6f6659" font-size="11" font-family="Trebuchet MS, Arial, sans-serif">0.66</text>
<line x1="112.0" y1="472.4" x2="1108.0" y2="472.4" stroke="#d9d2bf" stroke-width="1" />
<text x="102.0" y="476.4" text-anchor="end" fill="#6f6659" font-size="11" font-family="Trebuchet MS, Arial, sans-serif">0.68</text>
<line x1="112.0" y1="429.7" x2="1108.0" y2="429.7" stroke="#d9d2bf" stroke-width="1" />
<text x="102.0" y="433.7" text-anchor="end" fill="#6f6659" font-size="11" font-family="Trebuchet MS, Arial, sans-serif">0.7</text>
<line x1="112.0" y1="386.9" x2="1108.0" y2="386.9" stroke="#d9d2bf" stroke-width="1" />
<text x="102.0" y="390.9" text-anchor="end" fill="#6f6659" font-size="11" font-family="Trebuchet MS, Arial, sans-serif">0.72</text>
<line x1="148.9" y1="423.0" x2="148.9" y2="564.0" stroke="#d9d2bf" stroke-width="1" />
<text x="148.9" y="582.0" text-anchor="middle" fill="#6f6659" font-size="11" font-family="Trebuchet MS, Arial, sans-serif">10</text>
<line x1="189.6" y1="423.0" x2="189.6" y2="564.0" stroke="#d9d2bf" stroke-width="1" />
<text x="189.6" y="582.0" text-anchor="middle" fill="#6f6659" font-size="11" font-family="Trebuchet MS, Arial, sans-serif">25</text>
<line x1="257.4" y1="423.0" x2="257.4" y2="564.0" stroke="#d9d2bf" stroke-width="1" />
<text x="257.4" y="582.0" text-anchor="middle" fill="#6f6659" font-size="11" font-family="Trebuchet MS, Arial, sans-serif">50</text>
<line x1="325.2" y1="423.0" x2="325.2" y2="564.0" stroke="#d9d2bf" stroke-width="1" />
<text x="325.2" y="582.0" text-anchor="middle" fill="#6f6659" font-size="11" font-family="Trebuchet MS, Arial, sans-serif">75</text>
<line x1="393.0" y1="423.0" x2="393.0" y2="564.0" stroke="#d9d2bf" stroke-width="1" />
<text x="393.0" y="582.0" text-anchor="middle" fill="#6f6659" font-size="11" font-family="Trebuchet MS, Arial, sans-serif">100</text>
<line x1="460.8" y1="423.0" x2="460.8" y2="564.0" stroke="#d9d2bf" stroke-width="1" />
<text x="460.8" y="582.0" text-anchor="middle" fill="#6f6659" font-size="11" font-family="Trebuchet MS, Arial, sans-serif">125</text>
<line x1="664.2" y1="423.0" x2="664.2" y2="564.0" stroke="#d9d2bf" stroke-width="1" />
<text x="664.2" y="582.0" text-anchor="middle" fill="#6f6659" font-size="11" font-family="Trebuchet MS, Arial, sans-serif">200</text>
<line x1="1071.1" y1="423.0" x2="1071.1" y2="564.0" stroke="#d9d2bf" stroke-width="1" />
<text x="1071.1" y="582.0" text-anchor="middle" fill="#6f6659" font-size="11" font-family="Trebuchet MS, Arial, sans-serif">350</text>
<path d="M 148.89 554.28 L 189.58 483.79 L 257.39 434.27 L 325.20 476.40 L 393.01 452.64 L 460.82 432.72 L 664.25 454.33 L 1071.11 452.50" fill="none" stroke="#2a9d8f" stroke-width="3.2" stroke-linecap="round" stroke-linejoin="round" />
<circle cx="148.9" cy="554.3" r="4.8" fill="#2a9d8f" stroke="#fffdf7" stroke-width="1.3" />
<text x="156.9" y="544.3" fill="#2a9d8f" font-size="10" font-family="Trebuchet MS, Arial, sans-serif">0.642</text>
<circle cx="189.6" cy="483.8" r="4.8" fill="#2a9d8f" stroke="#fffdf7" stroke-width="1.3" />
<text x="197.6" y="473.8" fill="#2a9d8f" font-size="10" font-family="Trebuchet MS, Arial, sans-serif">0.675</text>
<circle cx="257.4" cy="434.3" r="4.8" fill="#2a9d8f" stroke="#fffdf7" stroke-width="1.3" />
<text x="265.4" y="424.3" fill="#2a9d8f" font-size="10" font-family="Trebuchet MS, Arial, sans-serif">0.698</text>
<circle cx="325.2" cy="476.4" r="4.8" fill="#2a9d8f" stroke="#fffdf7" stroke-width="1.3" />
<text x="333.2" y="466.4" fill="#2a9d8f" font-size="10" font-family="Trebuchet MS, Arial, sans-serif">0.678</text>
<circle cx="393.0" cy="452.6" r="4.8" fill="#2a9d8f" stroke="#fffdf7" stroke-width="1.3" />
<text x="401.0" y="442.6" fill="#2a9d8f" font-size="10" font-family="Trebuchet MS, Arial, sans-serif">0.689</text>
<circle cx="460.8" cy="432.7" r="4.8" fill="#2a9d8f" stroke="#fffdf7" stroke-width="1.3" />
<text x="468.8" y="422.7" fill="#2a9d8f" font-size="10" font-family="Trebuchet MS, Arial, sans-serif">0.699</text>
<circle cx="664.2" cy="454.3" r="4.8" fill="#2a9d8f" stroke="#fffdf7" stroke-width="1.3" />
<text x="672.2" y="444.3" fill="#2a9d8f" font-size="10" font-family="Trebuchet MS, Arial, sans-serif">0.688</text>
<circle cx="1071.1" cy="452.5" r="4.8" fill="#2a9d8f" stroke="#fffdf7" stroke-width="1.3" />
<text x="1079.1" y="442.5" fill="#2a9d8f" font-size="10" font-family="Trebuchet MS, Arial, sans-serif">0.689</text>
<text x="610.0" y="602.0" text-anchor="middle" fill="#1f1d1a" font-size="12" font-family="Trebuchet MS, Arial, sans-serif">Neuron Count</text>
<rect x="42.0" y="638.0" width="1096.0" height="255.0" rx="18" fill="#fffdf7" stroke="#e6dec9" />
<text x="66.0" y="672.0" fill="#1f1d1a" font-size="22" font-weight="700" font-family="Georgia, serif">Best Training Time (sec)</text>
<line x1="112.0" y1="847.1" x2="1108.0" y2="847.1" stroke="#d9d2bf" stroke-width="1" />
<text x="102.0" y="851.1" text-anchor="end" fill="#6f6659" font-size="11" font-family="Trebuchet MS, Arial, sans-serif">200</text>
<line x1="112.0" y1="820.8" x2="1108.0" y2="820.8" stroke="#d9d2bf" stroke-width="1" />
<text x="102.0" y="824.8" text-anchor="end" fill="#6f6659" font-size="11" font-family="Trebuchet MS, Arial, sans-serif">250</text>
<line x1="112.0" y1="794.5" x2="1108.0" y2="794.5" stroke="#d9d2bf" stroke-width="1" />
<text x="102.0" y="798.5" text-anchor="end" fill="#6f6659" font-size="11" font-family="Trebuchet MS, Arial, sans-serif">300</text>
<line x1="112.0" y1="768.2" x2="1108.0" y2="768.2" stroke="#d9d2bf" stroke-width="1" />
<text x="102.0" y="772.2" text-anchor="end" fill="#6f6659" font-size="11" font-family="Trebuchet MS, Arial, sans-serif">350</text>
<line x1="112.0" y1="741.9" x2="1108.0" y2="741.9" stroke="#d9d2bf" stroke-width="1" />
<text x="102.0" y="745.9" text-anchor="end" fill="#6f6659" font-size="11" font-family="Trebuchet MS, Arial, sans-serif">400</text>
<line x1="112.0" y1="715.7" x2="1108.0" y2="715.7" stroke="#d9d2bf" stroke-width="1" />
<text x="102.0" y="719.7" text-anchor="end" fill="#6f6659" font-size="11" font-family="Trebuchet MS, Arial, sans-serif">450</text>
<line x1="112.0" y1="689.4" x2="1108.0" y2="689.4" stroke="#d9d2bf" stroke-width="1" />
<text x="102.0" y="693.4" text-anchor="end" fill="#6f6659" font-size="11" font-family="Trebuchet MS, Arial, sans-serif">500</text>
<line x1="148.9" y1="704.0" x2="148.9" y2="845.0" stroke="#d9d2bf" stroke-width="1" />
<text x="148.9" y="863.0" text-anchor="middle" fill="#6f6659" font-size="11" font-family="Trebuchet MS, Arial, sans-serif">10</text>
<line x1="189.6" y1="704.0" x2="189.6" y2="845.0" stroke="#d9d2bf" stroke-width="1" />
<text x="189.6" y="863.0" text-anchor="middle" fill="#6f6659" font-size="11" font-family="Trebuchet MS, Arial, sans-serif">25</text>
<line x1="257.4" y1="704.0" x2="257.4" y2="845.0" stroke="#d9d2bf" stroke-width="1" />
<text x="257.4" y="863.0" text-anchor="middle" fill="#6f6659" font-size="11" font-family="Trebuchet MS, Arial, sans-serif">50</text>
<line x1="325.2" y1="704.0" x2="325.2" y2="845.0" stroke="#d9d2bf" stroke-width="1" />
<text x="325.2" y="863.0" text-anchor="middle" fill="#6f6659" font-size="11" font-family="Trebuchet MS, Arial, sans-serif">75</text>
<line x1="393.0" y1="704.0" x2="393.0" y2="845.0" stroke="#d9d2bf" stroke-width="1" />
<text x="393.0" y="863.0" text-anchor="middle" fill="#6f6659" font-size="11" font-family="Trebuchet MS, Arial, sans-serif">100</text>
<line x1="460.8" y1="704.0" x2="460.8" y2="845.0" stroke="#d9d2bf" stroke-width="1" />
<text x="460.8" y="863.0" text-anchor="middle" fill="#6f6659" font-size="11" font-family="Trebuchet MS, Arial, sans-serif">125</text>
<line x1="664.2" y1="704.0" x2="664.2" y2="845.0" stroke="#d9d2bf" stroke-width="1" />
<text x="664.2" y="863.0" text-anchor="middle" fill="#6f6659" font-size="11" font-family="Trebuchet MS, Arial, sans-serif">200</text>
<line x1="1071.1" y1="704.0" x2="1071.1" y2="845.0" stroke="#d9d2bf" stroke-width="1" />
<text x="1071.1" y="863.0" text-anchor="middle" fill="#6f6659" font-size="11" font-family="Trebuchet MS, Arial, sans-serif">350</text>
<path d="M 148.89 835.28 L 189.58 721.78 L 257.39 716.10 L 325.20 834.00 L 393.01 715.90 L 460.82 713.72 L 664.25 832.18 L 1071.11 830.44" fill="none" stroke="#e76f51" stroke-width="3.2" stroke-linecap="round" stroke-linejoin="round" />
<circle cx="148.9" cy="835.3" r="4.8" fill="#e76f51" stroke="#fffdf7" stroke-width="1.3" />
<text x="156.9" y="825.3" fill="#e76f51" font-size="10" font-family="Trebuchet MS, Arial, sans-serif">222</text>
<circle cx="189.6" cy="721.8" r="4.8" fill="#e76f51" stroke="#fffdf7" stroke-width="1.3" />
<text x="197.6" y="711.8" fill="#e76f51" font-size="10" font-family="Trebuchet MS, Arial, sans-serif">438</text>
<circle cx="257.4" cy="716.1" r="4.8" fill="#e76f51" stroke="#fffdf7" stroke-width="1.3" />
<text x="265.4" y="706.1" fill="#e76f51" font-size="10" font-family="Trebuchet MS, Arial, sans-serif">449</text>
<circle cx="325.2" cy="834.0" r="4.8" fill="#e76f51" stroke="#fffdf7" stroke-width="1.3" />
<text x="333.2" y="824.0" fill="#e76f51" font-size="10" font-family="Trebuchet MS, Arial, sans-serif">225</text>
<circle cx="393.0" cy="715.9" r="4.8" fill="#e76f51" stroke="#fffdf7" stroke-width="1.3" />
<text x="401.0" y="705.9" fill="#e76f51" font-size="10" font-family="Trebuchet MS, Arial, sans-serif">450</text>
<circle cx="460.8" cy="713.7" r="4.8" fill="#e76f51" stroke="#fffdf7" stroke-width="1.3" />
<text x="468.8" y="703.7" fill="#e76f51" font-size="10" font-family="Trebuchet MS, Arial, sans-serif">454</text>
<circle cx="664.2" cy="832.2" r="4.8" fill="#e76f51" stroke="#fffdf7" stroke-width="1.3" />
<text x="672.2" y="822.2" fill="#e76f51" font-size="10" font-family="Trebuchet MS, Arial, sans-serif">228</text>
<circle cx="1071.1" cy="830.4" r="4.8" fill="#e76f51" stroke="#fffdf7" stroke-width="1.3" />
<text x="1079.1" y="820.4" fill="#e76f51" font-size="10" font-family="Trebuchet MS, Arial, sans-serif">232</text>
<text x="610.0" y="883.0" text-anchor="middle" fill="#1f1d1a" font-size="12" font-family="Trebuchet MS, Arial, sans-serif">Neuron Count</text>
</svg>