<svg xmlns="http://www.w3.org/2000/svg" width="1180" height="980" viewBox="0 0 1180 980" role="img" aria-label="Best Model Metrics by Neuron Count">
<rect width="1180" height="980" fill="#f7f4ea" />
<text x="42" y="46" fill="#1f1d1a" font-size="28" font-weight="700" font-family="Georgia, serif">Best Model Metrics by Neuron Count</text>
<rect x="42.0" y="76.0" width="1096.0" height="255.0" rx="18" fill="#fffdf7" stroke="#e6dec9" />
<text x="66.0" y="110.0" fill="#1f1d1a" font-size="22" font-weight="700" font-family="Georgia, serif">Best Test RMSE</text>
<line x1="112.0" y1="285.2" x2="1108.0" y2="285.2" stroke="#d9d2bf" stroke-width="1" />
<text x="102.0" y="289.2" text-anchor="end" fill="#6f6659" font-size="11" font-family="Trebuchet MS, Arial, sans-serif">280k</text>
<line x1="112.0" y1="244.9" x2="1108.0" y2="244.9" stroke="#d9d2bf" stroke-width="1" />
<text x="102.0" y="248.9" text-anchor="end" fill="#6f6659" font-size="11" font-family="Trebuchet MS, Arial, sans-serif">290k</text>
<line x1="112.0" y1="204.6" x2="1108.0" y2="204.6" stroke="#d9d2bf" stroke-width="1" />
<text x="102.0" y="208.6" text-anchor="end" fill="#6f6659" font-size="11" font-family="Trebuchet MS, Arial, sans-serif">300k</text>
<line x1="112.0" y1="164.4" x2="1108.0" y2="164.4" stroke="#d9d2bf" stroke-width="1" />
<text x="102.0" y="168.4" text-anchor="end" fill="#6f6659" font-size="11" font-family="Trebuchet MS, Arial, sans-serif">310k</text>
<line x1="112.0" y1="124.1" x2="1108.0" y2="124.1" stroke="#d9d2bf" stroke-width="1" />
<text x="102.0" y="128.1" text-anchor="end" fill="#6f6659" font-size="11" font-family="Trebuchet MS, Arial, sans-serif">320k</text>
<line x1="148.9" y1="142.0" x2="148.9" y2="283.0" stroke="#d9d2bf" stroke-width="1" />
<text x="148.9" y="301.0" text-anchor="middle" fill="#6f6659" font-size="11" font-family="Trebuchet MS, Arial, sans-serif">10</text>
<line x1="269.2" y1="142.0" x2="269.2" y2="283.0" stroke="#d9d2bf" stroke-width="1" />
<text x="269.2" y="301.0" text-anchor="middle" fill="#6f6659" font-size="11" font-family="Trebuchet MS, Arial, sans-serif">25</text>
<line x1="469.7" y1="142.0" x2="469.7" y2="283.0" stroke="#d9d2bf" stroke-width="1" />
<text x="469.7" y="301.0" text-anchor="middle" fill="#6f6659" font-size="11" font-family="Trebuchet MS, Arial, sans-serif">50</text>
<line x1="670.1" y1="142.0" x2="670.1" y2="283.0" stroke="#d9d2bf" stroke-width="1" />
<text x="670.1" y="301.0" text-anchor="middle" fill="#6f6659" font-size="11" font-family="Trebuchet MS, Arial, sans-serif">75</text>
<line x1="870.6" y1="142.0" x2="870.6" y2="283.0" stroke="#d9d2bf" stroke-width="1" />
<text x="870.6" y="301.0" text-anchor="middle" fill="#6f6659" font-size="11" font-family="Trebuchet MS, Arial, sans-serif">100</text>
<line x1="1071.1" y1="142.0" x2="1071.1" y2="283.0" stroke="#d9d2bf" stroke-width="1" />
<text x="1071.1" y="301.0" text-anchor="middle" fill="#6f6659" font-size="11" font-family="Trebuchet MS, Arial, sans-serif">125</text>
<path d="M 148.89 151.72 L 269.18 249.04 L 469.66 225.08 L 670.14 236.06 L 870.63 273.28 L 1071.11 232.30" fill="none" stroke="#264653" stroke-width="3.2" stroke-linecap="round" stroke-linejoin="round" />
<circle cx="148.9" cy="151.7" r="4.8" fill="#264653" stroke="#fffdf7" stroke-width="1.3" />
<text x="156.9" y="141.7" fill="#264653" font-size="10" font-family="Trebuchet MS, Arial, sans-serif">313k</text>
<circle cx="269.2" cy="249.0" r="4.8" fill="#264653" stroke="#fffdf7" stroke-width="1.3" />
<text x="277.2" y="239.0" fill="#264653" font-size="10" font-family="Trebuchet MS, Arial, sans-serif">289k</text>
<circle cx="469.7" cy="225.1" r="4.8" fill="#264653" stroke="#fffdf7" stroke-width="1.3" />
<text x="477.7" y="215.1" fill="#264653" font-size="10" font-family="Trebuchet MS, Arial, sans-serif">295k</text>
<circle cx="670.1" cy="236.1" r="4.8" fill="#264653" stroke="#fffdf7" stroke-width="1.3" />
<text x="678.1" y="226.1" fill="#264653" font-size="10" font-family="Trebuchet MS, Arial, sans-serif">292k</text>
<circle cx="870.6" cy="273.3" r="4.8" fill="#264653" stroke="#fffdf7" stroke-width="1.3" />
<text x="878.6" y="263.3" fill="#264653" font-size="10" font-family="Trebuchet MS, Arial, sans-serif">283k</text>
<circle cx="1071.1" cy="232.3" r="4.8" fill="#264653" stroke="#fffdf7" stroke-width="1.3" />
<text x="1079.1" y="222.3" fill="#264653" font-size="10" font-family="Trebuchet MS, Arial, sans-serif">293k</text>
<text x="610.0" y="321.0" text-anchor="middle" fill="#1f1d1a" font-size="12" font-family="Trebuchet MS, Arial, sans-serif">Neuron Count</text>
<rect x="42.0" y="357.0" width="1096.0" height="255.0" rx="18" fill="#fffdf7" stroke="#e6dec9" />
<text x="66.0" y="391.0" fill="#1f1d1a" font-size="22" font-weight="700" font-family="Georgia, serif">Best Test R^2</text>
<line x1="112.0" y1="564.1" x2="1108.0" y2="564.1" stroke="#d9d2bf" stroke-width="1" />
<text x="102.0" y="568.1" text-anchor="end" fill="#6f6659" font-size="11" font-family="Trebuchet MS, Arial, sans-serif">0.6</text>
<line x1="112.0" y1="530.5" x2="1108.0" y2="530.5" stroke="#d9d2bf" stroke-width="1" />
<text x="102.0" y="534.5" text-anchor="end" fill="#6f6659" font-size="11" font-family="Trebuchet MS, Arial, sans-serif">0.62</text>
<line x1="112.0" y1="496.9" x2="1108.0" y2="496.9" stroke="#d9d2bf" stroke-width="1" />
<text x="102.0" y="500.9" text-anchor="end" fill="#6f6659" font-size="11" font-family="Trebuchet MS, Arial, sans-serif">0.64</text>
<line x1="112.0" y1="463.3" x2="1108.0" y2="463.3" stroke="#d9d2bf" stroke-width="1" />
<text x="102.0" y="467.3" text-anchor="end" fill="#6f6659" font-size="11" font-family="Trebuchet MS, Arial, sans-serif">0.66</text>
<line x1="112.0" y1="429.7" x2="1108.0" y2="429.7" stroke="#d9d2bf" stroke-width="1" />
<text x="102.0" y="433.7" text-anchor="end" fill="#6f6659" font-size="11" font-family="Trebuchet MS, Arial, sans-serif">0.68</text>
<line x1="112.0" y1="396.0" x2="1108.0" y2="396.0" stroke="#d9d2bf" stroke-width="1" />
<text x="102.0" y="400.0" text-anchor="end" fill="#6f6659" font-size="11" font-family="Trebuchet MS, Arial, sans-serif">0.7</text>
<line x1="148.9" y1="423.0" x2="148.9" y2="564.0" stroke="#d9d2bf" stroke-width="1" />
<text x="148.9" y="582.0" text-anchor="middle" fill="#6f6659" font-size="11" font-family="Trebuchet MS, Arial, sans-serif">10</text>
<line x1="269.2" y1="423.0" x2="269.2" y2="564.0" stroke="#d9d2bf" stroke-width="1" />
<text x="269.2" y="582.0" text-anchor="middle" fill="#6f6659" font-size="11" font-family="Trebuchet MS, Arial, sans-serif">25</text>
<line x1="469.7" y1="423.0" x2="469.7" y2="564.0" stroke="#d9d2bf" stroke-width="1" />
<text x="469.7" y="582.0" text-anchor="middle" fill="#6f6659" font-size="11" font-family="Trebuchet MS, Arial, sans-serif">50</text>
<line x1="670.1" y1="423.0" x2="670.1" y2="564.0" stroke="#d9d2bf" stroke-width="1" />
<text x="670.1" y="582.0" text-anchor="middle" fill="#6f6659" font-size="11" font-family="Trebuchet MS, Arial, sans-serif">75</text>
<line x1="870.6" y1="423.0" x2="870.6" y2="564.0" stroke="#d9d2bf" stroke-width="1" />
<text x="870.6" y="582.0" text-anchor="middle" fill="#6f6659" font-size="11" font-family="Trebuchet MS, Arial, sans-serif">100</text>
<line x1="1071.1" y1="423.0" x2="1071.1" y2="564.0" stroke="#d9d2bf" stroke-width="1" />
<text x="1071.1" y="582.0" text-anchor="middle" fill="#6f6659" font-size="11" font-family="Trebuchet MS, Arial, sans-serif">125</text>
<path d="M 148.89 554.28 L 269.18 455.98 L 469.66 479.45 L 670.14 468.63 L 870.63 432.72 L 1071.11 472.33" fill="none" stroke="#2a9d8f" stroke-width="3.2" stroke-linecap="round" stroke-linejoin="round" />
<circle cx="148.9" cy="554.3" r="4.8" fill="#2a9d8f" stroke="#fffdf7" stroke-width="1.3" />
<text x="156.9" y="544.3" fill="#2a9d8f" font-size="10" font-family="Trebuchet MS, Arial, sans-serif">0.606</text>
<circle cx="269.2" cy="456.0" r="4.8" fill="#2a9d8f" stroke="#fffdf7" stroke-width="1.3" />
<text x="277.2" y="446.0" fill="#2a9d8f" font-size="10" font-family="Trebuchet MS, Arial, sans-serif">0.664</text>
<circle cx="469.7" cy="479.4" r="4.8" fill="#2a9d8f" stroke="#fffdf7" stroke-width="1.3" />
<text x="477.7" y="469.4" fill="#2a9d8f" font-size="10" font-family="Trebuchet MS, Arial, sans-serif">0.65</text>
<circle cx="670.1" cy="468.6" r="4.8" fill="#2a9d8f" stroke="#fffdf7" stroke-width="1.3" />
<text x="678.1" y="458.6" fill="#2a9d8f" font-size="10" font-family="Trebuchet MS, Arial, sans-serif">0.657</text>
<circle cx="870.6" cy="432.7" r="4.8" fill="#2a9d8f" stroke="#fffdf7" stroke-width="1.3" />
<text x="878.6" y="422.7" fill="#2a9d8f" font-size="10" font-family="Trebuchet MS, Arial, sans-serif">0.678</text>
<circle cx="1071.1" cy="472.3" r="4.8" fill="#2a9d8f" stroke="#fffdf7" stroke-width="1.3" />
<text x="1079.1" y="462.3" fill="#2a9d8f" font-size="10" font-family="Trebuchet MS, Arial, sans-serif">0.655</text>
<text x="610.0" y="602.0" text-anchor="middle" fill="#1f1d1a" font-size="12" font-family="Trebuchet MS, Arial, sans-serif">Neuron Count</text>
<rect x="42.0" y="638.0" width="1096.0" height="255.0" rx="18" fill="#fffdf7" stroke="#e6dec9" />
<text x="66.0" y="672.0" fill="#1f1d1a" font-size="22" font-weight="700" font-family="Georgia, serif">Best Training Time (sec)</text>
<line x1="112.0" y1="857.2" x2="1108.0" y2="857.2" stroke="#d9d2bf" stroke-width="1" />
<text x="102.0" y="861.2" text-anchor="end" fill="#6f6659" font-size="11" font-family="Trebuchet MS, Arial, sans-serif">60</text>
<line x1="112.0" y1="830.1" x2="1108.0" y2="830.1" stroke="#d9d2bf" stroke-width="1" />
<text x="102.0" y="834.1" text-anchor="end" fill="#6f6659" font-size="11" font-family="Trebuchet MS, Arial, sans-serif">70</text>
<line x1="112.0" y1="803.1" x2="1108.0" y2="803.1" stroke="#d9d2bf" stroke-width="1" />
<text x="102.0" y="807.1" text-anchor="end" fill="#6f6659" font-size="11" font-family="Trebuchet MS, Arial, sans-serif">80</text>
<line x1="112.0" y1="776.1" x2="1108.0" y2="776.1" stroke="#d9d2bf" stroke-width="1" />
<text x="102.0" y="780.1" text-anchor="end" fill="#6f6659" font-size="11" font-family="Trebuchet MS, Arial, sans-serif">90</text>
<line x1="112.0" y1="749.0" x2="1108.0" y2="749.0" stroke="#d9d2bf" stroke-width="1" />
<text x="102.0" y="753.0" text-anchor="end" fill="#6f6659" font-size="11" font-family="Trebuchet MS, Arial, sans-serif">100</text>
<line x1="112.0" y1="722.0" x2="1108.0" y2="722.0" stroke="#d9d2bf" stroke-width="1" />
<text x="102.0" y="726.0" text-anchor="end" fill="#6f6659" font-size="11" font-family="Trebuchet MS, Arial, sans-serif">110</text>
<line x1="112.0" y1="695.0" x2="1108.0" y2="695.0" stroke="#d9d2bf" stroke-width="1" />
<text x="102.0" y="699.0" text-anchor="end" fill="#6f6659" font-size="11" font-family="Trebuchet MS, Arial, sans-serif">120</text>
<line x1="148.9" y1="704.0" x2="148.9" y2="845.0" stroke="#d9d2bf" stroke-width="1" />
<text x="148.9" y="863.0" text-anchor="middle" fill="#6f6659" font-size="11" font-family="Trebuchet MS, Arial, sans-serif">10</text>
<line x1="269.2" y1="704.0" x2="269.2" y2="845.0" stroke="#d9d2bf" stroke-width="1" />
<text x="269.2" y="863.0" text-anchor="middle" fill="#6f6659" font-size="11" font-family="Trebuchet MS, Arial, sans-serif">25</text>
<line x1="469.7" y1="704.0" x2="469.7" y2="845.0" stroke="#d9d2bf" stroke-width="1" />
<text x="469.7" y="863.0" text-anchor="middle" fill="#6f6659" font-size="11" font-family="Trebuchet MS, Arial, sans-serif">50</text>
<line x1="670.1" y1="704.0" x2="670.1" y2="845.0" stroke="#d9d2bf" stroke-width="1" />
<text x="670.1" y="863.0" text-anchor="middle" fill="#6f6659" font-size="11" font-family="Trebuchet MS, Arial, sans-serif">75</text>
<line x1="870.6" y1="704.0" x2="870.6" y2="845.0" stroke="#d9d2bf" stroke-width="1" />
<text x="870.6" y="863.0" text-anchor="middle" fill="#6f6659" font-size="11" font-family="Trebuchet MS, Arial, sans-serif">100</text>
<line x1="1071.1" y1="704.0" x2="1071.1" y2="845.0" stroke="#d9d2bf" stroke-width="1" />
<text x="1071.1" y="863.0" text-anchor="middle" fill="#6f6659" font-size="11" font-family="Trebuchet MS, Arial, sans-serif">125</text>
<path d="M 148.89 835.28 L 269.18 719.03 L 469.66 773.05 L 670.14 772.59 L 870.63 713.72 L 1071.11 771.51" fill="none" stroke="#e76f51" stroke-width="3.2" stroke-linecap="round" stroke-linejoin="round" />
<circle cx="148.9" cy="835.3" r="4.8" fill="#e76f51" stroke="#fffdf7" stroke-width="1.3" />
<text x="156.9" y="825.3" fill="#e76f51" font-size="10" font-family="Trebuchet MS, Arial, sans-serif">68.1</text>
<circle cx="269.2" cy="719.0" r="4.8" fill="#e76f51" stroke="#fffdf7" stroke-width="1.3" />
<text x="277.2" y="709.0" fill="#e76f51" font-size="10" font-family="Trebuchet MS, Arial, sans-serif">111</text>
<circle cx="469.7" cy="773.0" r="4.8" fill="#e76f51" stroke="#fffdf7" stroke-width="1.3" />
<text x="477.7" y="763.0" fill="#e76f51" font-size="10" font-family="Trebuchet MS, Arial, sans-serif">91.11</text>
<circle cx="670.1" cy="772.6" r="4.8" fill="#e76f51" stroke="#fffdf7" stroke-width="1.3" />
<text x="678.1" y="762.6" fill="#e76f51" font-size="10" font-family="Trebuchet MS, Arial, sans-serif">91.28</text>
<circle cx="870.6" cy="713.7" r="4.8" fill="#e76f51" stroke="#fffdf7" stroke-width="1.3" />
<text x="878.6" y="703.7" fill="#e76f51" font-size="10" font-family="Trebuchet MS, Arial, sans-serif">113</text>
<circle cx="1071.1" cy="771.5" r="4.8" fill="#e76f51" stroke="#fffdf7" stroke-width="1.3" />
<text x="1079.1" y="761.5" fill="#e76f51" font-size="10" font-family="Trebuchet MS, Arial, sans-serif">91.68</text>
<text x="610.0" y="883.0" text-anchor="middle" fill="#1f1d1a" font-size="12" font-family="Trebuchet MS, Arial, sans-serif">Neuron Count</text>
</svg>