<svg xmlns="http://www.w3.org/2000/svg" width="1400" height="980" viewBox="0 0 1400 980" role="img" aria-label="Best Single-Layer Loss Curves">
<rect width="1400" height="980" fill="#f7f4ea" />
<text x="42" y="46" fill="#1f1d1a" font-size="28" font-weight="700" font-family="Georgia, serif">Best Single-Layer Loss Curves</text>
<rect x="42.0" y="76.0" width="420.0" height="255.0" rx="18" fill="#fffdf7" stroke="#e6dec9" />
<text x="66.0" y="110.0" fill="#1f1d1a" font-size="22" font-weight="700" font-family="Georgia, serif">10 neurons</text>
<line x1="112.0" y1="284.8" x2="432.0" y2="284.8" stroke="#d9d2bf" stroke-width="1" />
<text x="104.0" y="288.8" text-anchor="end" fill="#6f6659" font-size="10" font-family="Trebuchet MS, Arial, sans-serif">-5.0</text>
<line x1="112.0" y1="251.3" x2="432.0" y2="251.3" stroke="#d9d2bf" stroke-width="1" />
<text x="104.0" y="255.3" text-anchor="end" fill="#6f6659" font-size="10" font-family="Trebuchet MS, Arial, sans-serif">-4.0</text>
<line x1="112.0" y1="217.7" x2="432.0" y2="217.7" stroke="#d9d2bf" stroke-width="1" />
<text x="104.0" y="221.7" text-anchor="end" fill="#6f6659" font-size="10" font-family="Trebuchet MS, Arial, sans-serif">-3.0</text>
<line x1="112.0" y1="184.2" x2="432.0" y2="184.2" stroke="#d9d2bf" stroke-width="1" />
<text x="104.0" y="188.2" text-anchor="end" fill="#6f6659" font-size="10" font-family="Trebuchet MS, Arial, sans-serif">-2.0</text>
<line x1="112.0" y1="150.7" x2="432.0" y2="150.7" stroke="#d9d2bf" stroke-width="1" />
<text x="104.0" y="154.7" text-anchor="end" fill="#6f6659" font-size="10" font-family="Trebuchet MS, Arial, sans-serif">-1.0</text>
<line x1="112.0" y1="117.1" x2="432.0" y2="117.1" stroke="#d9d2bf" stroke-width="1" />
<text x="104.0" y="121.1" text-anchor="end" fill="#6f6659" font-size="10" font-family="Trebuchet MS, Arial, sans-serif">0.0</text>
<line x1="112.0" y1="142.0" x2="112.0" y2="283.0" stroke="#d9d2bf" stroke-width="1" />
<text x="112.0" y="301.0" text-anchor="middle" fill="#6f6659" font-size="10" font-family="Trebuchet MS, Arial, sans-serif">1</text>
<line x1="267.7" y1="142.0" x2="267.7" y2="283.0" stroke="#d9d2bf" stroke-width="1" />
<text x="267.7" y="301.0" text-anchor="middle" fill="#6f6659" font-size="10" font-family="Trebuchet MS, Arial, sans-serif">37</text>
<line x1="432.0" y1="142.0" x2="432.0" y2="283.0" stroke="#d9d2bf" stroke-width="1" />
<text x="432.0" y="301.0" text-anchor="middle" fill="#6f6659" font-size="10" font-family="Trebuchet MS, Arial, sans-serif">75</text>
<path d="M 112.00 151.72 L 116.32 164.05 L 120.65 170.24 L 124.97 176.25 L 129.30 182.54 L 133.62 188.50 L 137.95 193.55 L 142.27 197.40 L 146.59 200.27 L 150.92 202.74 L 155.24 205.11 L 159.57 207.54 L 163.89 210.09 L 168.22 212.79 L 172.54 215.65 L 176.86 218.65 L 181.19 221.72 L 185.51 224.84 L 189.84 227.98 L 194.16 231.13 L 198.49 234.28 L 202.81 237.45 L 207.14 240.64 L 211.46 243.81 L 215.78 246.90 L 220.11 249.86 L 224.43 252.62 L 228.76 255.13 L 233.08 257.39 L 237.41 259.40 L 241.73 261.20 L 246.05 262.80 L 250.38 264.22 L 254.70 265.48 L 259.03 266.60 L 263.35 267.57 L 267.68 268.41 L 272.00 269.14 L 276.32 269.76 L 280.65 270.30 L 284.97 270.75 L 289.30 271.13 L 293.62 271.46 L 297.95 271.73 L 302.27 271.97 L 306.59 272.16 L 310.92 272.33 L 315.24 272.46 L 319.57 272.58 L 323.89 272.68 L 328.22 272.76 L 332.54 272.83 L 336.86 272.89 L 341.19 272.95 L 345.51 272.98 L 349.84 273.03 L 354.16 273.06 L 358.49 273.08 L 362.81 273.11 L 367.14 273.14 L 371.46 273.15 L 375.78 273.17 L 380.11 273.18 L 384.43 273.19 L 388.76 273.20 L 393.08 273.20 L 397.41 273.22 L 401.73 273.23 L 406.05 273.24 L 410.38 273.24 L 414.70 273.26 L 419.03 273.25 L 423.35 273.27 L 427.68 273.27 L 432.00 273.28" fill="none" stroke="#355070" stroke-width="2.4" stroke-linecap="round" stroke-linejoin="round" />
<path d="M 112.00 160.16 L 116.32 163.80 L 120.65 168.86 L 124.97 174.77 L 129.30 181.54 L 133.62 187.13 L 137.95 191.22 L 142.27 194.32 L 146.59 197.00 L 150.92 199.63 L 155.24 202.37 L 159.57 205.24 L 163.89 208.27 L 168.22 211.41 L 172.54 214.58 L 176.86 217.68 L 181.19 220.68 L 185.51 223.59 L 189.84 226.37 L 194.16 229.11 L 198.49 231.83 L 202.81 234.59 L 207.14 237.32 L 211.46 239.92 L 215.78 242.43 L 220.11 244.67 L 224.43 246.71 L 228.76 248.54 L 233.08 250.20 L 237.41 251.68 L 241.73 253.07 L 246.05 254.34 L 250.38 255.57 L 254.70 256.58 L 259.03 257.60 L 263.35 258.49 L 267.68 259.28 L 272.00 260.03 L 276.32 260.62 L 280.65 261.22 L 284.97 261.79 L 289.30 262.23 L 293.62 262.61 L 297.95 262.91 L 302.27 263.24 L 306.59 263.49 L 310.92 263.70 L 315.24 263.92 L 319.57 264.11 L 323.89 264.24 L 328.22 264.34 L 332.54 264.50 L 336.86 264.55 L 341.19 264.68 L 345.51 264.74 L 349.84 264.85 L 354.16 264.83 L 358.49 264.95 L 362.81 264.93 L 367.14 265.02 L 371.46 265.09 L 375.78 265.13 L 380.11 265.18 L 384.43 265.22 L 388.76 265.07 L 393.08 265.28 L 397.41 265.30 L 401.73 265.32 L 406.05 265.33 L 410.38 265.35 L 414.70 265.36 L 419.03 265.37 L 423.35 265.39 L 427.68 265.43 L 432.00 265.41" fill="none" stroke="#c1121f" stroke-width="2.8" stroke-linecap="round" stroke-linejoin="round" />
<circle cx="427.7" cy="265.4" r="5" fill="#c1121f" stroke="#fffdf7" stroke-width="1.4" />
<text x="348.0" y="255.4" fill="#c1121f" font-size="10" font-weight="700" font-family="Trebuchet MS, Arial, sans-serif">min val 0.00004</text>
<text x="112.0" y="319.0" fill="#1f1d1a" font-size="10" font-family="Trebuchet MS, Arial, sans-serif">Epoch</text>
<text x="346.0" y="154.0" fill="#355070" font-size="10" font-family="Trebuchet MS, Arial, sans-serif">Train loss</text>
<text x="346.0" y="170.0" fill="#c1121f" font-size="10" font-family="Trebuchet MS, Arial, sans-serif">Validation loss</text>
<rect x="490.0" y="76.0" width="420.0" height="255.0" rx="18" fill="#fffdf7" stroke="#e6dec9" />
<text x="514.0" y="110.0" fill="#1f1d1a" font-size="22" font-weight="700" font-family="Georgia, serif">25 neurons</text>
<line x1="560.0" y1="315.2" x2="880.0" y2="315.2" stroke="#d9d2bf" stroke-width="1" />
<text x="552.0" y="319.2" text-anchor="end" fill="#6f6659" font-size="10" font-family="Trebuchet MS, Arial, sans-serif">-6.0</text>
<line x1="560.0" y1="282.9" x2="880.0" y2="282.9" stroke="#d9d2bf" stroke-width="1" />
<text x="552.0" y="286.9" text-anchor="end" fill="#6f6659" font-size="10" font-family="Trebuchet MS, Arial, sans-serif">-5.0</text>
<line x1="560.0" y1="250.7" x2="880.0" y2="250.7" stroke="#d9d2bf" stroke-width="1" />
<text x="552.0" y="254.7" text-anchor="end" fill="#6f6659" font-size="10" font-family="Trebuchet MS, Arial, sans-serif">-4.0</text>
<line x1="560.0" y1="218.5" x2="880.0" y2="218.5" stroke="#d9d2bf" stroke-width="1" />
<text x="552.0" y="222.5" text-anchor="end" fill="#6f6659" font-size="10" font-family="Trebuchet MS, Arial, sans-serif">-3.0</text>
<line x1="560.0" y1="186.3" x2="880.0" y2="186.3" stroke="#d9d2bf" stroke-width="1" />
<text x="552.0" y="190.3" text-anchor="end" fill="#6f6659" font-size="10" font-family="Trebuchet MS, Arial, sans-serif">-2.0</text>
<line x1="560.0" y1="154.0" x2="880.0" y2="154.0" stroke="#d9d2bf" stroke-width="1" />
<text x="552.0" y="158.0" text-anchor="end" fill="#6f6659" font-size="10" font-family="Trebuchet MS, Arial, sans-serif">-1.0</text>
<line x1="560.0" y1="121.8" x2="880.0" y2="121.8" stroke="#d9d2bf" stroke-width="1" />
<text x="552.0" y="125.8" text-anchor="end" fill="#6f6659" font-size="10" font-family="Trebuchet MS, Arial, sans-serif">0.0</text>
<line x1="560.0" y1="142.0" x2="560.0" y2="283.0" stroke="#d9d2bf" stroke-width="1" />
<text x="560.0" y="301.0" text-anchor="middle" fill="#6f6659" font-size="10" font-family="Trebuchet MS, Arial, sans-serif">1</text>
<line x1="717.4" y1="142.0" x2="717.4" y2="283.0" stroke="#d9d2bf" stroke-width="1" />
<text x="717.4" y="301.0" text-anchor="middle" fill="#6f6659" font-size="10" font-family="Trebuchet MS, Arial, sans-serif">62</text>
<line x1="880.0" y1="142.0" x2="880.0" y2="283.0" stroke="#d9d2bf" stroke-width="1" />
<text x="880.0" y="301.0" text-anchor="middle" fill="#6f6659" font-size="10" font-family="Trebuchet MS, Arial, sans-serif">125</text>
<path d="M 560.00 151.72 L 562.58 173.44 L 565.16 187.03 L 567.74 197.64 L 570.32 204.25 L 572.90 208.53 L 575.48 211.77 L 578.06 214.47 L 580.65 216.75 L 583.23 218.74 L 585.81 220.57 L 588.39 222.35 L 590.97 224.14 L 593.55 225.98 L 596.13 227.88 L 598.71 229.88 L 601.29 232.06 L 603.87 234.51 L 606.45 237.18 L 609.03 239.81 L 611.61 242.18 L 614.19 244.31 L 616.77 246.27 L 619.35 248.12 L 621.94 249.92 L 624.52 251.66 L 627.10 253.35 L 629.68 254.98 L 632.26 256.55 L 634.84 258.06 L 637.42 259.50 L 640.00 260.90 L 642.58 262.23 L 645.16 263.51 L 647.74 264.72 L 650.32 265.89 L 652.90 267.00 L 655.48 267.98 L 658.06 268.81 L 660.65 269.47 L 663.23 270.01 L 665.81 270.43 L 668.39 270.76 L 670.97 271.02 L 673.55 271.23 L 676.13 271.38 L 678.71 271.50 L 681.29 271.59 L 683.87 271.67 L 686.45 271.73 L 689.03 271.78 L 691.61 271.82 L 694.19 271.86 L 696.77 271.88 L 699.35 271.91 L 701.94 271.95 L 704.52 271.98 L 707.10 272.00 L 709.68 272.03 L 712.26 272.04 L 714.84 272.07 L 717.42 272.09 L 720.00 272.10 L 722.58 272.12 L 725.16 272.14 L 727.74 272.16 L 730.32 272.18 L 732.90 272.18 L 735.48 272.22 L 738.06 272.23 L 740.65 272.24 L 743.23 272.26 L 745.81 272.28 L 748.39 272.28 L 750.97 272.30 L 753.55 272.31 L 756.13 272.33 L 758.71 272.33 L 761.29 272.36 L 763.87 272.37 L 766.45 272.39 L 769.03 272.40 L 771.61 272.41 L 774.19 272.43 L 776.77 272.43 L 779.35 272.45 L 781.94 272.47 L 784.52 272.48 L 787.10 272.49 L 789.68 272.50 L 792.26 272.51 L 794.84 272.53 L 797.42 272.55 L 800.00 272.56 L 802.58 272.58 L 805.16 272.61 L 807.74 272.62 L 810.32 272.64 L 812.90 272.67 L 815.48 272.70 L 818.06 272.73 L 820.65 272.75 L 823.23 272.78 L 825.81 272.81 L 828.39 272.83 L 830.97 272.85 L 833.55 272.87 L 836.13 272.88 L 838.71 272.91 L 841.29 272.93 L 843.87 272.95 L 846.45 272.97 L 849.03 273.00 L 851.61 273.02 L 854.19 273.04 L 856.77 273.08 L 859.35 273.09 L 861.94 273.12 L 864.52 273.15 L 867.10 273.18 L 869.68 273.20 L 872.26 273.22 L 874.84 273.24 L 877.42 273.24 L 880.00 273.28" fill="none" stroke="#355070" stroke-width="2.4" stroke-linecap="round" stroke-linejoin="round" />
<path d="M 560.00 166.94 L 562.58 177.06 L 565.16 187.75 L 567.74 195.07 L 570.32 199.58 L 572.90 202.76 L 575.48 205.34 L 578.06 207.44 L 580.65 209.36 L 583.23 211.14 L 585.81 212.81 L 588.39 214.81 L 590.97 216.77 L 593.55 218.93 L 596.13 221.25 L 598.71 223.91 L 601.29 226.45 L 603.87 229.08 L 606.45 231.65 L 609.03 233.93 L 611.61 235.99 L 614.19 237.78 L 616.77 239.66 L 619.35 241.48 L 621.94 243.18 L 624.52 244.86 L 627.10 246.41 L 629.68 247.92 L 632.26 249.37 L 634.84 250.84 L 637.42 252.23 L 640.00 253.57 L 642.58 254.97 L 645.16 256.31 L 647.74 257.60 L 650.32 258.72 L 652.90 259.90 L 655.48 260.72 L 658.06 261.52 L 660.65 262.21 L 663.23 262.90 L 665.81 263.30 L 668.39 263.60 L 670.97 263.91 L 673.55 264.15 L 676.13 264.24 L 678.71 264.43 L 681.29 264.42 L 683.87 264.46 L 686.45 264.62 L 689.03 264.71 L 691.61 264.76 L 694.19 264.77 L 696.77 264.82 L 699.35 264.68 L 701.94 264.85 L 704.52 264.86 L 707.10 264.77 L 709.68 264.84 L 712.26 264.94 L 714.84 264.94 L 717.42 264.90 L 720.00 264.99 L 722.58 264.97 L 725.16 265.02 L 727.74 265.00 L 730.32 265.04 L 732.90 265.07 L 735.48 265.06 L 738.06 265.03 L 740.65 265.08 L 743.23 265.11 L 745.81 265.10 L 748.39 265.15 L 750.97 265.11 L 753.55 265.14 L 756.13 265.17 L 758.71 265.18 L 761.29 265.17 L 763.87 265.18 L 766.45 265.20 L 769.03 265.21 L 771.61 265.22 L 774.19 265.26 L 776.77 265.20 L 779.35 265.26 L 781.94 265.25 L 784.52 265.30 L 787.10 265.28 L 789.68 265.30 L 792.26 265.33 L 794.84 265.29 L 797.42 265.35 L 800.00 265.34 L 802.58 265.35 L 805.16 265.34 L 807.74 265.41 L 810.32 265.42 L 812.90 265.45 L 815.48 265.43 L 818.06 265.52 L 820.65 265.39 L 823.23 265.54 L 825.81 265.43 L 828.39 265.57 L 830.97 265.60 L 833.55 265.57 L 836.13 265.67 L 838.71 265.64 L 841.29 265.64 L 843.87 265.73 L 846.45 265.73 L 849.03 265.78 L 851.61 265.80 L 854.19 265.86 L 856.77 265.86 L 859.35 265.92 L 861.94 265.96 L 864.52 266.00 L 867.10 266.01 L 869.68 266.07 L 872.26 266.08 L 874.84 266.11 L 877.42 266.11 L 880.00 266.14" fill="none" stroke="#c1121f" stroke-width="2.8" stroke-linecap="round" stroke-linejoin="round" />
<circle cx="880.0" cy="266.1" r="5" fill="#c1121f" stroke="#fffdf7" stroke-width="1.4" />
<text x="796.0" y="256.1" fill="#c1121f" font-size="10" font-weight="700" font-family="Trebuchet MS, Arial, sans-serif">min val 0.00003</text>
<text x="560.0" y="319.0" fill="#1f1d1a" font-size="10" font-family="Trebuchet MS, Arial, sans-serif">Epoch</text>
<text x="794.0" y="154.0" fill="#355070" font-size="10" font-family="Trebuchet MS, Arial, sans-serif">Train loss</text>
<text x="794.0" y="170.0" fill="#c1121f" font-size="10" font-family="Trebuchet MS, Arial, sans-serif">Validation loss</text>
<rect x="938.0" y="76.0" width="420.0" height="255.0" rx="18" fill="#fffdf7" stroke="#e6dec9" />
<text x="962.0" y="110.0" fill="#1f1d1a" font-size="22" font-weight="700" font-family="Georgia, serif">50 neurons</text>
<line x1="1008.0" y1="286.1" x2="1328.0" y2="286.1" stroke="#d9d2bf" stroke-width="1" />
<text x="1000.0" y="290.1" text-anchor="end" fill="#6f6659" font-size="10" font-family="Trebuchet MS, Arial, sans-serif">-5.0</text>
<line x1="1008.0" y1="243.0" x2="1328.0" y2="243.0" stroke="#d9d2bf" stroke-width="1" />
<text x="1000.0" y="247.0" text-anchor="end" fill="#6f6659" font-size="10" font-family="Trebuchet MS, Arial, sans-serif">-4.0</text>
<line x1="1008.0" y1="199.9" x2="1328.0" y2="199.9" stroke="#d9d2bf" stroke-width="1" />
<text x="1000.0" y="203.9" text-anchor="end" fill="#6f6659" font-size="10" font-family="Trebuchet MS, Arial, sans-serif">-3.0</text>
<line x1="1008.0" y1="156.8" x2="1328.0" y2="156.8" stroke="#d9d2bf" stroke-width="1" />
<text x="1000.0" y="160.8" text-anchor="end" fill="#6f6659" font-size="10" font-family="Trebuchet MS, Arial, sans-serif">-2.0</text>
<line x1="1008.0" y1="113.7" x2="1328.0" y2="113.7" stroke="#d9d2bf" stroke-width="1" />
<text x="1000.0" y="117.7" text-anchor="end" fill="#6f6659" font-size="10" font-family="Trebuchet MS, Arial, sans-serif">-1.0</text>
<line x1="1008.0" y1="142.0" x2="1008.0" y2="283.0" stroke="#d9d2bf" stroke-width="1" />
<text x="1008.0" y="301.0" text-anchor="middle" fill="#6f6659" font-size="10" font-family="Trebuchet MS, Arial, sans-serif">1</text>
<line x1="1166.4" y1="142.0" x2="1166.4" y2="283.0" stroke="#d9d2bf" stroke-width="1" />
<text x="1166.4" y="301.0" text-anchor="middle" fill="#6f6659" font-size="10" font-family="Trebuchet MS, Arial, sans-serif">50</text>
<line x1="1328.0" y1="142.0" x2="1328.0" y2="283.0" stroke="#d9d2bf" stroke-width="1" />
<text x="1328.0" y="301.0" text-anchor="middle" fill="#6f6659" font-size="10" font-family="Trebuchet MS, Arial, sans-serif">100</text>
<path d="M 1008.00 151.72 L 1011.23 187.89 L 1014.46 201.52 L 1017.70 207.47 L 1020.93 211.95 L 1024.16 216.14 L 1027.39 220.65 L 1030.63 225.23 L 1033.86 229.08 L 1037.09 232.32 L 1040.32 235.15 L 1043.56 237.70 L 1046.79 240.01 L 1050.02 242.12 L 1053.25 244.07 L 1056.48 245.89 L 1059.72 247.59 L 1062.95 249.20 L 1066.18 250.72 L 1069.41 252.16 L 1072.65 253.51 L 1075.88 254.79 L 1079.11 256.02 L 1082.34 257.18 L 1085.58 258.31 L 1088.81 259.38 L 1092.04 260.42 L 1095.27 261.42 L 1098.51 262.40 L 1101.74 263.36 L 1104.97 264.29 L 1108.20 265.18 L 1111.43 266.01 L 1114.67 266.77 L 1117.90 267.45 L 1121.13 268.06 L 1124.36 268.57 L 1127.60 269.03 L 1130.83 269.40 L 1134.06 269.71 L 1137.29 269.98 L 1140.53 270.21 L 1143.76 270.38 L 1146.99 270.53 L 1150.22 270.68 L 1153.45 270.78 L 1156.69 270.89 L 1159.92 270.99 L 1163.15 271.07 L 1166.38 271.15 L 1169.62 271.20 L 1172.85 271.27 L 1176.08 271.33 L 1179.31 271.39 L 1182.55 271.43 L 1185.78 271.49 L 1189.01 271.54 L 1192.24 271.58 L 1195.47 271.63 L 1198.71 271.65 L 1201.94 271.71 L 1205.17 271.75 L 1208.40 271.79 L 1211.64 271.84 L 1214.87 271.89 L 1218.10 271.93 L 1221.33 271.97 L 1224.57 272.02 L 1227.80 272.05 L 1231.03 272.09 L 1234.26 272.12 L 1237.49 272.15 L 1240.73 272.17 L 1243.96 272.20 L 1247.19 272.24 L 1250.42 272.29 L 1253.66 272.33 L 1256.89 272.37 L 1260.12 272.39 L 1263.35 272.44 L 1266.59 272.48 L 1269.82 272.50 L 1273.05 272.52 L 1276.28 272.55 L 1279.52 272.59 L 1282.75 272.62 L 1285.98 272.66 L 1289.21 272.68 L 1292.44 272.72 L 1295.68 272.76 L 1298.91 272.80 L 1302.14 272.84 L 1305.37 272.92 L 1308.61 273.01 L 1311.84 273.08 L 1315.07 273.13 L 1318.30 273.14 L 1321.54 273.23 L 1324.77 273.26 L 1328.00 273.28" fill="none" stroke="#355070" stroke-width="2.4" stroke-linecap="round" stroke-linejoin="round" />
<path d="M 1008.00 169.48 L 1011.23 188.63 L 1014.46 194.55 L 1017.70 199.63 L 1020.93 203.86 L 1024.16 209.27 L 1027.39 215.01 L 1030.63 219.34 L 1033.86 222.77 L 1037.09 225.44 L 1040.32 227.43 L 1043.56 229.22 L 1046.79 230.78 L 1050.02 232.12 L 1053.25 233.40 L 1056.48 234.70 L 1059.72 235.96 L 1062.95 237.27 L 1066.18 238.57 L 1069.41 239.98 L 1072.65 241.28 L 1075.88 242.61 L 1079.11 244.03 L 1082.34 245.30 L 1085.58 246.59 L 1088.81 247.75 L 1092.04 248.87 L 1095.27 249.99 L 1098.51 250.98 L 1101.74 252.00 L 1104.97 252.89 L 1108.20 253.91 L 1111.43 254.80 L 1114.67 255.64 L 1117.90 256.44 L 1121.13 257.13 L 1124.36 257.66 L 1127.60 258.21 L 1130.83 258.65 L 1134.06 258.73 L 1137.29 259.32 L 1140.53 259.53 L 1143.76 259.53 L 1146.99 259.97 L 1150.22 259.87 L 1153.45 260.29 L 1156.69 260.38 L 1159.92 260.50 L 1163.15 260.63 L 1166.38 260.70 L 1169.62 260.76 L 1172.85 260.89 L 1176.08 260.95 L 1179.31 261.02 L 1182.55 261.11 L 1185.78 261.15 L 1189.01 261.16 L 1192.24 261.21 L 1195.47 261.26 L 1198.71 261.33 L 1201.94 261.36 L 1205.17 261.41 L 1208.40 261.31 L 1211.64 261.52 L 1214.87 261.51 L 1218.10 261.45 L 1221.33 261.60 L 1224.57 261.53 L 1227.80 261.65 L 1231.03 261.63 L 1234.26 261.67 L 1237.49 261.71 L 1240.73 261.72 L 1243.96 261.58 L 1247.19 261.78 L 1250.42 261.72 L 1253.66 261.85 L 1256.89 261.92 L 1260.12 261.94 L 1263.35 262.03 L 1266.59 261.87 L 1269.82 262.12 L 1273.05 262.13 L 1276.28 262.13 L 1279.52 262.20 L 1282.75 262.27 L 1285.98 262.25 L 1289.21 262.23 L 1292.44 262.31 L 1295.68 262.41 L 1298.91 262.34 L 1302.14 262.46 L 1305.37 262.59 L 1308.61 262.72 L 1311.84 262.81 L 1315.07 262.87 L 1318.30 262.94 L 1321.54 263.03 L 1324.77 263.01 L 1328.00 263.09" fill="none" stroke="#c1121f" stroke-width="2.8" stroke-linecap="round" stroke-linejoin="round" />
<circle cx="1328.0" cy="263.1" r="5" fill="#c1121f" stroke="#fffdf7" stroke-width="1.4" />
<text x="1244.0" y="253.1" fill="#c1121f" font-size="10" font-weight="700" font-family="Trebuchet MS, Arial, sans-serif">min val 0.00003</text>
<text x="1008.0" y="319.0" fill="#1f1d1a" font-size="10" font-family="Trebuchet MS, Arial, sans-serif">Epoch</text>
<text x="1242.0" y="154.0" fill="#355070" font-size="10" font-family="Trebuchet MS, Arial, sans-serif">Train loss</text>
<text x="1242.0" y="170.0" fill="#c1121f" font-size="10" font-family="Trebuchet MS, Arial, sans-serif">Validation loss</text>
<rect x="42.0" y="357.0" width="420.0" height="255.0" rx="18" fill="#fffdf7" stroke="#e6dec9" />
<text x="66.0" y="391.0" fill="#1f1d1a" font-size="22" font-weight="700" font-family="Georgia, serif">75 neurons</text>
<line x1="112.0" y1="572.8" x2="432.0" y2="572.8" stroke="#d9d2bf" stroke-width="1" />
<text x="104.0" y="576.8" text-anchor="end" fill="#6f6659" font-size="10" font-family="Trebuchet MS, Arial, sans-serif">-5.0</text>
<line x1="112.0" y1="538.4" x2="432.0" y2="538.4" stroke="#d9d2bf" stroke-width="1" />
<text x="104.0" y="542.4" text-anchor="end" fill="#6f6659" font-size="10" font-family="Trebuchet MS, Arial, sans-serif">-4.5</text>
<line x1="112.0" y1="504.0" x2="432.0" y2="504.0" stroke="#d9d2bf" stroke-width="1" />
<text x="104.0" y="508.0" text-anchor="end" fill="#6f6659" font-size="10" font-family="Trebuchet MS, Arial, sans-serif">-4.0</text>
<line x1="112.0" y1="469.6" x2="432.0" y2="469.6" stroke="#d9d2bf" stroke-width="1" />
<text x="104.0" y="473.6" text-anchor="end" fill="#6f6659" font-size="10" font-family="Trebuchet MS, Arial, sans-serif">-3.5</text>
<line x1="112.0" y1="435.2" x2="432.0" y2="435.2" stroke="#d9d2bf" stroke-width="1" />
<text x="104.0" y="439.2" text-anchor="end" fill="#6f6659" font-size="10" font-family="Trebuchet MS, Arial, sans-serif">-3.0</text>
<line x1="112.0" y1="400.8" x2="432.0" y2="400.8" stroke="#d9d2bf" stroke-width="1" />
<text x="104.0" y="404.8" text-anchor="end" fill="#6f6659" font-size="10" font-family="Trebuchet MS, Arial, sans-serif">-2.5</text>
<line x1="112.0" y1="423.0" x2="112.0" y2="564.0" stroke="#d9d2bf" stroke-width="1" />
<text x="112.0" y="582.0" text-anchor="middle" fill="#6f6659" font-size="10" font-family="Trebuchet MS, Arial, sans-serif">1</text>
<line x1="270.4" y1="423.0" x2="270.4" y2="564.0" stroke="#d9d2bf" stroke-width="1" />
<text x="270.4" y="582.0" text-anchor="middle" fill="#6f6659" font-size="10" font-family="Trebuchet MS, Arial, sans-serif">50</text>
<line x1="432.0" y1="423.0" x2="432.0" y2="564.0" stroke="#d9d2bf" stroke-width="1" />
<text x="432.0" y="582.0" text-anchor="middle" fill="#6f6659" font-size="10" font-family="Trebuchet MS, Arial, sans-serif">100</text>
<path d="M 112.00 432.72 L 115.23 474.00 L 118.46 495.64 L 121.70 507.76 L 124.93 514.21 L 128.16 518.87 L 131.39 522.54 L 134.63 525.57 L 137.86 528.12 L 141.09 530.30 L 144.32 532.20 L 147.56 533.90 L 150.79 535.40 L 154.02 536.75 L 157.25 537.97 L 160.48 539.07 L 163.72 540.15 L 166.95 541.10 L 170.18 542.04 L 173.41 542.91 L 176.65 543.83 L 179.88 544.63 L 183.11 545.36 L 186.34 546.05 L 189.58 546.62 L 192.81 547.18 L 196.04 547.66 L 199.27 548.09 L 202.51 548.47 L 205.74 548.82 L 208.97 549.14 L 212.20 549.43 L 215.43 549.65 L 218.67 549.87 L 221.90 550.05 L 225.13 550.23 L 228.36 550.40 L 231.60 550.53 L 234.83 550.70 L 238.06 550.81 L 241.29 550.96 L 244.53 551.08 L 247.76 551.17 L 250.99 551.30 L 254.22 551.42 L 257.45 551.53 L 260.69 551.64 L 263.92 551.76 L 267.15 551.85 L 270.38 551.94 L 273.62 552.04 L 276.85 552.12 L 280.08 552.20 L 283.31 552.23 L 286.55 552.34 L 289.78 552.41 L 293.01 552.44 L 296.24 552.51 L 299.47 552.54 L 302.71 552.61 L 305.94 552.63 L 309.17 552.73 L 312.40 552.79 L 315.64 552.83 L 318.87 552.90 L 322.10 552.93 L 325.33 553.01 L 328.57 553.03 L 331.80 553.11 L 335.03 553.15 L 338.26 553.17 L 341.49 553.26 L 344.73 553.33 L 347.96 553.36 L 351.19 553.46 L 354.42 553.46 L 357.66 553.56 L 360.89 553.58 L 364.12 553.57 L 367.35 553.70 L 370.59 553.73 L 373.82 553.78 L 377.05 553.79 L 380.28 553.86 L 383.52 553.88 L 386.75 553.91 L 389.98 553.87 L 393.21 553.97 L 396.44 554.00 L 399.68 554.05 L 402.91 554.07 L 406.14 554.09 L 409.37 554.08 L 412.61 554.12 L 415.84 554.16 L 419.07 554.16 L 422.30 554.20 L 425.54 554.23 L 428.77 554.22 L 432.00 554.28" fill="none" stroke="#355070" stroke-width="2.4" stroke-linecap="round" stroke-linejoin="round" />
<path d="M 112.00 440.10 L 115.23 459.17 L 118.46 475.37 L 121.70 485.82 L 124.93 493.20 L 128.16 498.49 L 131.39 502.27 L 134.63 506.24 L 137.86 509.05 L 141.09 511.62 L 144.32 513.77 L 147.56 515.47 L 150.79 517.42 L 154.02 518.76 L 157.25 520.52 L 160.48 521.58 L 163.72 522.89 L 166.95 523.94 L 170.18 525.03 L 173.41 525.85 L 176.65 526.74 L 179.88 527.47 L 183.11 528.43 L 186.34 529.00 L 189.58 529.72 L 192.81 530.55 L 196.04 530.71 L 199.27 531.36 L 202.51 532.04 L 205.74 532.51 L 208.97 532.81 L 212.20 532.83 L 215.43 533.25 L 218.67 533.43 L 221.90 533.71 L 225.13 533.95 L 228.36 534.06 L 231.60 534.22 L 234.83 534.34 L 238.06 534.39 L 241.29 534.69 L 244.53 534.53 L 247.76 534.98 L 250.99 534.72 L 254.22 535.18 L 257.45 535.28 L 260.69 535.37 L 263.92 535.62 L 267.15 535.56 L 270.38 535.83 L 273.62 535.90 L 276.85 536.04 L 280.08 536.13 L 283.31 536.27 L 286.55 536.38 L 289.78 536.53 L 293.01 536.38 L 296.24 536.65 L 299.47 536.71 L 302.71 536.87 L 305.94 536.76 L 309.17 536.89 L 312.40 536.72 L 315.64 537.04 L 318.87 537.15 L 322.10 537.12 L 325.33 537.16 L 328.57 537.35 L 331.80 537.35 L 335.03 537.45 L 338.26 537.27 L 341.49 537.58 L 344.73 537.68 L 347.96 537.73 L 351.19 537.82 L 354.42 537.73 L 357.66 537.78 L 360.89 537.76 L 364.12 537.85 L 367.35 537.79 L 370.59 537.69 L 373.82 537.90 L 377.05 538.09 L 380.28 538.09 L 383.52 538.20 L 386.75 538.07 L 389.98 538.24 L 393.21 538.02 L 396.44 538.24 L 399.68 538.31 L 402.91 538.20 L 406.14 538.37 L 409.37 538.41 L 412.61 538.39 L 415.84 538.35 L 419.07 538.35 L 422.30 538.57 L 425.54 538.59 L 428.77 538.32 L 432.00 538.47" fill="none" stroke="#c1121f" stroke-width="2.8" stroke-linecap="round" stroke-linejoin="round" />
<circle cx="425.5" cy="538.6" r="5" fill="#c1121f" stroke="#fffdf7" stroke-width="1.4" />
<text x="348.0" y="528.6" fill="#c1121f" font-size="10" font-weight="700" font-family="Trebuchet MS, Arial, sans-serif">min val 0.00003</text>
<text x="112.0" y="600.0" fill="#1f1d1a" font-size="10" font-family="Trebuchet MS, Arial, sans-serif">Epoch</text>
<text x="346.0" y="435.0" fill="#355070" font-size="10" font-family="Trebuchet MS, Arial, sans-serif">Train loss</text>
<text x="346.0" y="451.0" fill="#c1121f" font-size="10" font-family="Trebuchet MS, Arial, sans-serif">Validation loss</text>
<rect x="490.0" y="357.0" width="420.0" height="255.0" rx="18" fill="#fffdf7" stroke="#e6dec9" />
<text x="514.0" y="391.0" fill="#1f1d1a" font-size="22" font-weight="700" font-family="Georgia, serif">100 neurons</text>
<line x1="560.0" y1="573.9" x2="880.0" y2="573.9" stroke="#d9d2bf" stroke-width="1" />
<text x="552.0" y="577.9" text-anchor="end" fill="#6f6659" font-size="10" font-family="Trebuchet MS, Arial, sans-serif">-5.0</text>
<line x1="560.0" y1="537.2" x2="880.0" y2="537.2" stroke="#d9d2bf" stroke-width="1" />
<text x="552.0" y="541.2" text-anchor="end" fill="#6f6659" font-size="10" font-family="Trebuchet MS, Arial, sans-serif">-4.5</text>
<line x1="560.0" y1="500.6" x2="880.0" y2="500.6" stroke="#d9d2bf" stroke-width="1" />
<text x="552.0" y="504.6" text-anchor="end" fill="#6f6659" font-size="10" font-family="Trebuchet MS, Arial, sans-serif">-4.0</text>
<line x1="560.0" y1="464.0" x2="880.0" y2="464.0" stroke="#d9d2bf" stroke-width="1" />
<text x="552.0" y="468.0" text-anchor="end" fill="#6f6659" font-size="10" font-family="Trebuchet MS, Arial, sans-serif">-3.5</text>
<line x1="560.0" y1="427.4" x2="880.0" y2="427.4" stroke="#d9d2bf" stroke-width="1" />
<text x="552.0" y="431.4" text-anchor="end" fill="#6f6659" font-size="10" font-family="Trebuchet MS, Arial, sans-serif">-3.0</text>
<line x1="560.0" y1="390.7" x2="880.0" y2="390.7" stroke="#d9d2bf" stroke-width="1" />
<text x="552.0" y="394.7" text-anchor="end" fill="#6f6659" font-size="10" font-family="Trebuchet MS, Arial, sans-serif">-2.5</text>
<line x1="560.0" y1="423.0" x2="560.0" y2="564.0" stroke="#d9d2bf" stroke-width="1" />
<text x="560.0" y="582.0" text-anchor="middle" fill="#6f6659" font-size="10" font-family="Trebuchet MS, Arial, sans-serif">1</text>
<line x1="717.4" y1="423.0" x2="717.4" y2="564.0" stroke="#d9d2bf" stroke-width="1" />
<text x="717.4" y="582.0" text-anchor="middle" fill="#6f6659" font-size="10" font-family="Trebuchet MS, Arial, sans-serif">62</text>
<line x1="880.0" y1="423.0" x2="880.0" y2="564.0" stroke="#d9d2bf" stroke-width="1" />
<text x="880.0" y="582.0" text-anchor="middle" fill="#6f6659" font-size="10" font-family="Trebuchet MS, Arial, sans-serif">125</text>
<path d="M 560.00 432.72 L 562.58 489.05 L 565.16 507.33 L 567.74 517.49 L 570.32 523.87 L 572.90 527.71 L 575.48 530.14 L 578.06 531.97 L 580.65 533.51 L 583.23 534.90 L 585.81 536.16 L 588.39 537.30 L 590.97 538.37 L 593.55 539.37 L 596.13 540.32 L 598.71 541.18 L 601.29 542.05 L 603.87 542.82 L 606.45 543.56 L 609.03 544.24 L 611.61 544.85 L 614.19 545.44 L 616.77 545.87 L 619.35 546.37 L 621.94 546.79 L 624.52 547.17 L 627.10 547.49 L 629.68 547.81 L 632.26 548.08 L 634.84 548.42 L 637.42 548.67 L 640.00 548.92 L 642.58 549.10 L 645.16 549.34 L 647.74 549.54 L 650.32 549.75 L 652.90 549.86 L 655.48 550.02 L 658.06 550.21 L 660.65 550.31 L 663.23 550.42 L 665.81 550.60 L 668.39 550.71 L 670.97 550.85 L 673.55 550.97 L 676.13 551.04 L 678.71 551.15 L 681.29 551.22 L 683.87 551.37 L 686.45 551.42 L 689.03 551.52 L 691.61 551.57 L 694.19 551.69 L 696.77 551.76 L 699.35 551.83 L 701.94 551.89 L 704.52 551.94 L 707.10 551.95 L 709.68 552.02 L 712.26 552.07 L 714.84 552.15 L 717.42 552.16 L 720.00 552.24 L 722.58 552.30 L 725.16 552.35 L 727.74 552.36 L 730.32 552.43 L 732.90 552.36 L 735.48 552.49 L 738.06 552.49 L 740.65 552.52 L 743.23 552.60 L 745.81 552.65 L 748.39 552.66 L 750.97 552.72 L 753.55 552.69 L 756.13 552.77 L 758.71 552.78 L 761.29 552.80 L 763.87 552.88 L 766.45 552.88 L 769.03 552.94 L 771.61 552.96 L 774.19 552.98 L 776.77 552.97 L 779.35 553.07 L 781.94 553.08 L 784.52 553.13 L 787.10 553.16 L 789.68 553.20 L 792.26 553.26 L 794.84 553.29 L 797.42 553.34 L 800.00 553.33 L 802.58 553.41 L 805.16 553.42 L 807.74 553.47 L 810.32 553.48 L 812.90 553.55 L 815.48 553.58 L 818.06 553.59 L 820.65 553.60 L 823.23 553.69 L 825.81 553.70 L 828.39 553.70 L 830.97 553.75 L 833.55 553.83 L 836.13 553.84 L 838.71 553.85 L 841.29 553.90 L 843.87 553.89 L 846.45 553.94 L 849.03 553.97 L 851.61 554.03 L 854.19 554.03 L 856.77 554.08 L 859.35 554.06 L 861.94 554.08 L 864.52 554.15 L 867.10 554.17 L 869.68 554.19 L 872.26 554.19 L 874.84 554.25 L 877.42 554.23 L 880.00 554.28" fill="none" stroke="#355070" stroke-width="2.4" stroke-linecap="round" stroke-linejoin="round" />
<path d="M 560.00 457.58 L 562.58 486.06 L 565.16 496.92 L 567.74 503.98 L 570.32 508.21 L 572.90 511.04 L 575.48 512.51 L 578.06 514.44 L 580.65 515.74 L 583.23 516.99 L 585.81 518.13 L 588.39 519.09 L 590.97 520.39 L 593.55 521.43 L 596.13 522.38 L 598.71 523.21 L 601.29 523.98 L 603.87 525.19 L 606.45 525.74 L 609.03 526.49 L 611.61 527.17 L 614.19 527.94 L 616.77 528.53 L 619.35 529.13 L 621.94 529.44 L 624.52 529.87 L 627.10 530.25 L 629.68 530.70 L 632.26 530.92 L 634.84 531.14 L 637.42 531.61 L 640.00 531.94 L 642.58 532.07 L 645.16 532.35 L 647.74 532.28 L 650.32 532.57 L 652.90 533.02 L 655.48 533.06 L 658.06 533.25 L 660.65 533.59 L 663.23 533.78 L 665.81 533.89 L 668.39 533.85 L 670.97 533.91 L 673.55 534.12 L 676.13 534.40 L 678.71 534.31 L 681.29 534.53 L 683.87 534.67 L 686.45 534.78 L 689.03 534.78 L 691.61 534.99 L 694.19 535.03 L 696.77 535.02 L 699.35 535.16 L 701.94 535.32 L 704.52 534.51 L 707.10 535.06 L 709.68 535.43 L 712.26 535.55 L 714.84 535.35 L 717.42 535.07 L 720.00 535.66 L 722.58 535.40 L 725.16 535.59 L 727.74 535.76 L 730.32 535.80 L 732.90 535.82 L 735.48 535.90 L 738.06 535.90 L 740.65 535.89 L 743.23 535.89 L 745.81 535.69 L 748.39 535.95 L 750.97 535.95 L 753.55 536.03 L 756.13 536.00 L 758.71 536.03 L 761.29 535.97 L 763.87 536.10 L 766.45 536.12 L 769.03 536.10 L 771.61 535.74 L 774.19 536.23 L 776.77 536.32 L 779.35 536.23 L 781.94 536.43 L 784.52 536.38 L 787.10 536.38 L 789.68 536.48 L 792.26 536.47 L 794.84 536.55 L 797.42 536.53 L 800.00 536.66 L 802.58 536.63 L 805.16 536.77 L 807.74 536.74 L 810.32 536.69 L 812.90 536.62 L 815.48 536.85 L 818.06 536.85 L 820.65 536.71 L 823.23 536.97 L 825.81 536.88 L 828.39 537.08 L 830.97 537.05 L 833.55 536.70 L 836.13 537.12 L 838.71 536.96 L 841.29 537.24 L 843.87 537.01 L 846.45 537.18 L 849.03 537.27 L 851.61 537.05 L 854.19 536.92 L 856.77 537.38 L 859.35 537.42 L 861.94 537.39 L 864.52 537.42 L 867.10 537.06 L 869.68 537.53 L 872.26 537.54 L 874.84 537.28 L 877.42 537.59 L 880.00 537.60" fill="none" stroke="#c1121f" stroke-width="2.8" stroke-linecap="round" stroke-linejoin="round" />
<circle cx="880.0" cy="537.6" r="5" fill="#c1121f" stroke="#fffdf7" stroke-width="1.4" />
<text x="796.0" y="527.6" fill="#c1121f" font-size="10" font-weight="700" font-family="Trebuchet MS, Arial, sans-serif">min val 0.00003</text>
<text x="560.0" y="600.0" fill="#1f1d1a" font-size="10" font-family="Trebuchet MS, Arial, sans-serif">Epoch</text>
<text x="794.0" y="435.0" fill="#355070" font-size="10" font-family="Trebuchet MS, Arial, sans-serif">Train loss</text>
<text x="794.0" y="451.0" fill="#c1121f" font-size="10" font-family="Trebuchet MS, Arial, sans-serif">Validation loss</text>
<rect x="938.0" y="357.0" width="420.0" height="255.0" rx="18" fill="#fffdf7" stroke="#e6dec9" />
<text x="962.0" y="391.0" fill="#1f1d1a" font-size="22" font-weight="700" font-family="Georgia, serif">125 neurons</text>
<line x1="1008.0" y1="569.3" x2="1328.0" y2="569.3" stroke="#d9d2bf" stroke-width="1" />
<text x="1000.0" y="573.3" text-anchor="end" fill="#6f6659" font-size="10" font-family="Trebuchet MS, Arial, sans-serif">-5.0</text>
<line x1="1008.0" y1="542.3" x2="1328.0" y2="542.3" stroke="#d9d2bf" stroke-width="1" />
<text x="1000.0" y="546.3" text-anchor="end" fill="#6f6659" font-size="10" font-family="Trebuchet MS, Arial, sans-serif">-4.5</text>
<line x1="1008.0" y1="515.3" x2="1328.0" y2="515.3" stroke="#d9d2bf" stroke-width="1" />
<text x="1000.0" y="519.3" text-anchor="end" fill="#6f6659" font-size="10" font-family="Trebuchet MS, Arial, sans-serif">-4.0</text>
<line x1="1008.0" y1="488.3" x2="1328.0" y2="488.3" stroke="#d9d2bf" stroke-width="1" />
<text x="1000.0" y="492.3" text-anchor="end" fill="#6f6659" font-size="10" font-family="Trebuchet MS, Arial, sans-serif">-3.5</text>
<line x1="1008.0" y1="461.3" x2="1328.0" y2="461.3" stroke="#d9d2bf" stroke-width="1" />
<text x="1000.0" y="465.3" text-anchor="end" fill="#6f6659" font-size="10" font-family="Trebuchet MS, Arial, sans-serif">-3.0</text>
<line x1="1008.0" y1="434.3" x2="1328.0" y2="434.3" stroke="#d9d2bf" stroke-width="1" />
<text x="1000.0" y="438.3" text-anchor="end" fill="#6f6659" font-size="10" font-family="Trebuchet MS, Arial, sans-serif">-2.5</text>
<line x1="1008.0" y1="407.3" x2="1328.0" y2="407.3" stroke="#d9d2bf" stroke-width="1" />
<text x="1000.0" y="411.3" text-anchor="end" fill="#6f6659" font-size="10" font-family="Trebuchet MS, Arial, sans-serif">-2.0</text>
<line x1="1008.0" y1="423.0" x2="1008.0" y2="564.0" stroke="#d9d2bf" stroke-width="1" />
<text x="1008.0" y="582.0" text-anchor="middle" fill="#6f6659" font-size="10" font-family="Trebuchet MS, Arial, sans-serif">1</text>
<line x1="1166.4" y1="423.0" x2="1166.4" y2="564.0" stroke="#d9d2bf" stroke-width="1" />
<text x="1166.4" y="582.0" text-anchor="middle" fill="#6f6659" font-size="10" font-family="Trebuchet MS, Arial, sans-serif">50</text>
<line x1="1328.0" y1="423.0" x2="1328.0" y2="564.0" stroke="#d9d2bf" stroke-width="1" />
<text x="1328.0" y="582.0" text-anchor="middle" fill="#6f6659" font-size="10" font-family="Trebuchet MS, Arial, sans-serif">100</text>
<path d="M 1008.00 432.72 L 1011.23 491.57 L 1014.46 511.42 L 1017.70 519.51 L 1020.93 524.44 L 1024.16 528.01 L 1027.39 530.74 L 1030.63 532.88 L 1033.86 534.63 L 1037.09 536.16 L 1040.32 537.51 L 1043.56 538.71 L 1046.79 539.79 L 1050.02 540.75 L 1053.25 541.61 L 1056.48 542.41 L 1059.72 543.12 L 1062.95 543.79 L 1066.18 544.42 L 1069.41 544.97 L 1072.65 545.47 L 1075.88 545.93 L 1079.11 546.30 L 1082.34 546.71 L 1085.58 547.07 L 1088.81 547.41 L 1092.04 547.75 L 1095.27 548.07 L 1098.51 548.34 L 1101.74 548.63 L 1104.97 548.91 L 1108.20 549.19 L 1111.43 549.43 L 1114.67 549.71 L 1117.90 549.90 L 1121.13 550.13 L 1124.36 550.28 L 1127.60 550.42 L 1130.83 550.59 L 1134.06 550.71 L 1137.29 550.80 L 1140.53 550.92 L 1143.76 551.05 L 1146.99 551.12 L 1150.22 551.24 L 1153.45 551.31 L 1156.69 551.37 L 1159.92 551.46 L 1163.15 551.55 L 1166.38 551.62 L 1169.62 551.71 L 1172.85 551.82 L 1176.08 551.94 L 1179.31 552.03 L 1182.55 552.08 L 1185.78 552.18 L 1189.01 552.24 L 1192.24 552.31 L 1195.47 552.37 L 1198.71 552.44 L 1201.94 552.47 L 1205.17 552.55 L 1208.40 552.62 L 1211.64 552.66 L 1214.87 552.71 L 1218.10 552.76 L 1221.33 552.79 L 1224.57 552.85 L 1227.80 552.92 L 1231.03 552.95 L 1234.26 553.00 L 1237.49 553.00 L 1240.73 553.04 L 1243.96 553.14 L 1247.19 553.16 L 1250.42 553.20 L 1253.66 553.24 L 1256.89 553.29 L 1260.12 553.32 L 1263.35 553.36 L 1266.59 553.44 L 1269.82 553.44 L 1273.05 553.48 L 1276.28 553.57 L 1279.52 553.60 L 1282.75 553.63 L 1285.98 553.63 L 1289.21 553.71 L 1292.44 553.75 L 1295.68 553.75 L 1298.91 553.79 L 1302.14 553.87 L 1305.37 553.94 L 1308.61 553.96 L 1311.84 554.04 L 1315.07 554.08 L 1318.30 554.10 L 1321.54 554.17 L 1324.77 554.23 L 1328.00 554.28" fill="none" stroke="#355070" stroke-width="2.4" stroke-linecap="round" stroke-linejoin="round" />
<path d="M 1008.00 465.13 L 1011.23 495.08 L 1014.46 503.91 L 1017.70 509.06 L 1020.93 512.86 L 1024.16 515.59 L 1027.39 517.90 L 1030.63 519.82 L 1033.86 521.45 L 1037.09 523.15 L 1040.32 524.76 L 1043.56 526.08 L 1046.79 527.24 L 1050.02 528.24 L 1053.25 529.16 L 1056.48 529.87 L 1059.72 530.64 L 1062.95 531.14 L 1066.18 531.75 L 1069.41 532.24 L 1072.65 532.83 L 1075.88 532.94 L 1079.11 533.25 L 1082.34 533.82 L 1085.58 533.96 L 1088.81 534.09 L 1092.04 534.42 L 1095.27 534.70 L 1098.51 534.86 L 1101.74 535.17 L 1104.97 535.46 L 1108.20 535.73 L 1111.43 536.06 L 1114.67 536.11 L 1117.90 536.43 L 1121.13 536.51 L 1124.36 536.77 L 1127.60 537.04 L 1130.83 536.82 L 1134.06 537.23 L 1137.29 537.39 L 1140.53 537.42 L 1143.76 537.78 L 1146.99 537.40 L 1150.22 537.89 L 1153.45 538.16 L 1156.69 538.16 L 1159.92 538.27 L 1163.15 538.33 L 1166.38 538.48 L 1169.62 538.52 L 1172.85 538.85 L 1176.08 538.80 L 1179.31 538.92 L 1182.55 539.00 L 1185.78 539.23 L 1189.01 539.14 L 1192.24 539.38 L 1195.47 539.40 L 1198.71 539.57 L 1201.94 539.60 L 1205.17 539.74 L 1208.40 539.88 L 1211.64 539.81 L 1214.87 539.76 L 1218.10 539.86 L 1221.33 540.06 L 1224.57 540.02 L 1227.80 540.01 L 1231.03 540.17 L 1234.26 540.25 L 1237.49 540.25 L 1240.73 540.33 L 1243.96 539.92 L 1247.19 540.37 L 1250.42 540.54 L 1253.66 540.32 L 1256.89 540.62 L 1260.12 540.66 L 1263.35 540.78 L 1266.59 540.62 L 1269.82 540.79 L 1273.05 540.90 L 1276.28 541.09 L 1279.52 541.02 L 1282.75 540.66 L 1285.98 541.04 L 1289.21 541.29 L 1292.44 540.62 L 1295.68 541.35 L 1298.91 541.40 L 1302.14 541.18 L 1305.37 541.36 L 1308.61 541.46 L 1311.84 541.55 L 1315.07 541.54 L 1318.30 541.71 L 1321.54 541.69 L 1324.77 541.75 L 1328.00 541.82" fill="none" stroke="#c1121f" stroke-width="2.8" stroke-linecap="round" stroke-linejoin="round" />
<circle cx="1328.0" cy="541.8" r="5" fill="#c1121f" stroke="#fffdf7" stroke-width="1.4" />
<text x="1244.0" y="531.8" fill="#c1121f" font-size="10" font-weight="700" font-family="Trebuchet MS, Arial, sans-serif">min val 0.00003</text>
<text x="1008.0" y="600.0" fill="#1f1d1a" font-size="10" font-family="Trebuchet MS, Arial, sans-serif">Epoch</text>
<text x="1242.0" y="435.0" fill="#355070" font-size="10" font-family="Trebuchet MS, Arial, sans-serif">Train loss</text>
<text x="1242.0" y="451.0" fill="#c1121f" font-size="10" font-family="Trebuchet MS, Arial, sans-serif">Validation loss</text>
</svg>