<svg xmlns="http://www.w3.org/2000/svg" width="1180" height="720" viewBox="0 0 1180 720" role="img" aria-label="Best Model Metrics by Neuron Count">
<rect width="1180" height="720" fill="#f7f4ea" />
<text x="42" y="46" fill="#1f1d1a" font-size="28" font-weight="700" font-family="Georgia, serif">Best Model Metrics by Neuron Count</text>
<text x="42" y="68" fill="#6f6659" font-size="13" font-family="Trebuchet MS, Arial, sans-serif">RMSE and training time: lower is better. R^2: higher is better.</text>
<rect x="42.0" y="76.0" width="1096.0" height="180.0" rx="18" fill="#fffdf7" stroke="#e6dec9" />
<text x="66.0" y="110.0" fill="#1f1d1a" font-size="22" font-weight="700" font-family="Georgia, serif">Best Test RMSE</text>
<line x1="112.0" y1="212.3" x2="1108.0" y2="212.3" stroke="#d9d2bf" stroke-width="1" />
<text x="102.0" y="216.3" text-anchor="end" fill="#6f6659" font-size="11" font-family="Trebuchet MS, Arial, sans-serif">270k</text>
<line x1="112.0" y1="189.3" x2="1108.0" y2="189.3" stroke="#d9d2bf" stroke-width="1" />
<text x="102.0" y="193.3" text-anchor="end" fill="#6f6659" font-size="11" font-family="Trebuchet MS, Arial, sans-serif">280k</text>
<line x1="112.0" y1="166.3" x2="1108.0" y2="166.3" stroke="#d9d2bf" stroke-width="1" />
<text x="102.0" y="170.3" text-anchor="end" fill="#6f6659" font-size="11" font-family="Trebuchet MS, Arial, sans-serif">290k</text>
<line x1="112.0" y1="143.3" x2="1108.0" y2="143.3" stroke="#d9d2bf" stroke-width="1" />
<text x="102.0" y="147.3" text-anchor="end" fill="#6f6659" font-size="11" font-family="Trebuchet MS, Arial, sans-serif">300k</text>
<line x1="112.0" y1="120.2" x2="1108.0" y2="120.2" stroke="#d9d2bf" stroke-width="1" />
<text x="102.0" y="124.2" text-anchor="end" fill="#6f6659" font-size="11" font-family="Trebuchet MS, Arial, sans-serif">310k</text>
<line x1="148.9" y1="142.0" x2="148.9" y2="208.0" stroke="#d9d2bf" stroke-width="1" />
<text x="148.9" y="226.0" text-anchor="middle" fill="#6f6659" font-size="11" font-family="Trebuchet MS, Arial, sans-serif">10</text>
<line x1="189.6" y1="142.0" x2="189.6" y2="208.0" stroke="#d9d2bf" stroke-width="1" />
<text x="189.6" y="226.0" text-anchor="middle" fill="#6f6659" font-size="11" font-family="Trebuchet MS, Arial, sans-serif">25</text>
<line x1="257.4" y1="142.0" x2="257.4" y2="208.0" stroke="#d9d2bf" stroke-width="1" />
<text x="257.4" y="226.0" text-anchor="middle" fill="#6f6659" font-size="11" font-family="Trebuchet MS, Arial, sans-serif">50</text>
<line x1="325.2" y1="142.0" x2="325.2" y2="208.0" stroke="#d9d2bf" stroke-width="1" />
<text x="325.2" y="226.0" text-anchor="middle" fill="#6f6659" font-size="11" font-family="Trebuchet MS, Arial, sans-serif">75</text>
<line x1="393.0" y1="142.0" x2="393.0" y2="208.0" stroke="#d9d2bf" stroke-width="1" />
<text x="393.0" y="226.0" text-anchor="middle" fill="#6f6659" font-size="11" font-family="Trebuchet MS, Arial, sans-serif">100</text>
<line x1="460.8" y1="142.0" x2="460.8" y2="208.0" stroke="#d9d2bf" stroke-width="1" />
<text x="460.8" y="226.0" text-anchor="middle" fill="#6f6659" font-size="11" font-family="Trebuchet MS, Arial, sans-serif">125</text>
<line x1="664.2" y1="142.0" x2="664.2" y2="208.0" stroke="#d9d2bf" stroke-width="1" />
<text x="664.2" y="226.0" text-anchor="middle" fill="#6f6659" font-size="11" font-family="Trebuchet MS, Arial, sans-serif">200</text>
<line x1="1071.1" y1="142.0" x2="1071.1" y2="208.0" stroke="#d9d2bf" stroke-width="1" />
<text x="1071.1" y="226.0" text-anchor="middle" fill="#6f6659" font-size="11" font-family="Trebuchet MS, Arial, sans-serif">350</text>
<path d="M 148.89 146.55 L 189.58 178.94 L 257.39 202.69 L 325.20 182.43 L 393.01 193.78 L 460.82 203.45 L 664.25 192.96 L 1071.11 193.85" fill="none" stroke="#264653" stroke-width="3.2" stroke-linecap="round" stroke-linejoin="round" />
<circle cx="148.9" cy="146.6" r="4.8" fill="#264653" stroke="#fffdf7" stroke-width="1.3" />
<text x="156.9" y="136.6" fill="#264653" font-size="10" font-family="Trebuchet MS, Arial, sans-serif">299k</text>
<circle cx="189.6" cy="178.9" r="4.8" fill="#264653" stroke="#fffdf7" stroke-width="1.3" />
<text x="197.6" y="168.9" fill="#264653" font-size="10" font-family="Trebuchet MS, Arial, sans-serif">284k</text>
<circle cx="257.4" cy="202.7" r="4.8" fill="#264653" stroke="#fffdf7" stroke-width="1.3" />
<text x="265.4" y="192.7" fill="#264653" font-size="10" font-family="Trebuchet MS, Arial, sans-serif">274k</text>
<circle cx="325.2" cy="182.4" r="4.8" fill="#264653" stroke="#fffdf7" stroke-width="1.3" />
<text x="333.2" y="172.4" fill="#264653" font-size="10" font-family="Trebuchet MS, Arial, sans-serif">283k</text>
<circle cx="393.0" cy="193.8" r="4.8" fill="#264653" stroke="#fffdf7" stroke-width="1.3" />
<text x="401.0" y="183.8" fill="#264653" font-size="10" font-family="Trebuchet MS, Arial, sans-serif">278k</text>
<circle cx="460.8" cy="203.4" r="4.8" fill="#264653" stroke="#fffdf7" stroke-width="1.3" />
<text x="468.8" y="193.4" fill="#264653" font-size="10" font-family="Trebuchet MS, Arial, sans-serif">274k</text>
<circle cx="664.2" cy="193.0" r="4.8" fill="#264653" stroke="#fffdf7" stroke-width="1.3" />
<text x="672.2" y="183.0" fill="#264653" font-size="10" font-family="Trebuchet MS, Arial, sans-serif">278k</text>
<circle cx="1071.1" cy="193.8" r="4.8" fill="#264653" stroke="#fffdf7" stroke-width="1.3" />
<text x="1079.1" y="183.8" fill="#264653" font-size="10" font-family="Trebuchet MS, Arial, sans-serif">278k</text>
<text x="610.0" y="246.0" text-anchor="middle" fill="#1f1d1a" font-size="12" font-family="Trebuchet MS, Arial, sans-serif">Neuron Count</text>
<rect x="42.0" y="274.0" width="1096.0" height="180.0" rx="18" fill="#fffdf7" stroke="#e6dec9" />
<text x="66.0" y="308.0" fill="#1f1d1a" font-size="22" font-weight="700" font-family="Georgia, serif">Best Test R^2</text>
<line x1="112.0" y1="423.1" x2="1108.0" y2="423.1" stroke="#d9d2bf" stroke-width="1" />
<text x="102.0" y="427.1" text-anchor="end" fill="#6f6659" font-size="11" font-family="Trebuchet MS, Arial, sans-serif">0.62</text>
<line x1="112.0" y1="403.1" x2="1108.0" y2="403.1" stroke="#d9d2bf" stroke-width="1" />
<text x="102.0" y="407.1" text-anchor="end" fill="#6f6659" font-size="11" font-family="Trebuchet MS, Arial, sans-serif">0.64</text>
<line x1="112.0" y1="383.1" x2="1108.0" y2="383.1" stroke="#d9d2bf" stroke-width="1" />
<text x="102.0" y="387.1" text-anchor="end" fill="#6f6659" font-size="11" font-family="Trebuchet MS, Arial, sans-serif">0.66</text>
<line x1="112.0" y1="363.1" x2="1108.0" y2="363.1" stroke="#d9d2bf" stroke-width="1" />
<text x="102.0" y="367.1" text-anchor="end" fill="#6f6659" font-size="11" font-family="Trebuchet MS, Arial, sans-serif">0.68</text>
<line x1="112.0" y1="343.1" x2="1108.0" y2="343.1" stroke="#d9d2bf" stroke-width="1" />
<text x="102.0" y="347.1" text-anchor="end" fill="#6f6659" font-size="11" font-family="Trebuchet MS, Arial, sans-serif">0.7</text>
<line x1="112.0" y1="323.1" x2="1108.0" y2="323.1" stroke="#d9d2bf" stroke-width="1" />
<text x="102.0" y="327.1" text-anchor="end" fill="#6f6659" font-size="11" font-family="Trebuchet MS, Arial, sans-serif">0.72</text>
<line x1="148.9" y1="340.0" x2="148.9" y2="406.0" stroke="#d9d2bf" stroke-width="1" />
<text x="148.9" y="424.0" text-anchor="middle" fill="#6f6659" font-size="11" font-family="Trebuchet MS, Arial, sans-serif">10</text>
<line x1="189.6" y1="340.0" x2="189.6" y2="406.0" stroke="#d9d2bf" stroke-width="1" />
<text x="189.6" y="424.0" text-anchor="middle" fill="#6f6659" font-size="11" font-family="Trebuchet MS, Arial, sans-serif">25</text>
<line x1="257.4" y1="340.0" x2="257.4" y2="406.0" stroke="#d9d2bf" stroke-width="1" />
<text x="257.4" y="424.0" text-anchor="middle" fill="#6f6659" font-size="11" font-family="Trebuchet MS, Arial, sans-serif">50</text>
<line x1="325.2" y1="340.0" x2="325.2" y2="406.0" stroke="#d9d2bf" stroke-width="1" />
<text x="325.2" y="424.0" text-anchor="middle" fill="#6f6659" font-size="11" font-family="Trebuchet MS, Arial, sans-serif">75</text>
<line x1="393.0" y1="340.0" x2="393.0" y2="406.0" stroke="#d9d2bf" stroke-width="1" />
<text x="393.0" y="424.0" text-anchor="middle" fill="#6f6659" font-size="11" font-family="Trebuchet MS, Arial, sans-serif">100</text>
<line x1="460.8" y1="340.0" x2="460.8" y2="406.0" stroke="#d9d2bf" stroke-width="1" />
<text x="460.8" y="424.0" text-anchor="middle" fill="#6f6659" font-size="11" font-family="Trebuchet MS, Arial, sans-serif">125</text>
<line x1="664.2" y1="340.0" x2="664.2" y2="406.0" stroke="#d9d2bf" stroke-width="1" />
<text x="664.2" y="424.0" text-anchor="middle" fill="#6f6659" font-size="11" font-family="Trebuchet MS, Arial, sans-serif">200</text>
<line x1="1071.1" y1="340.0" x2="1071.1" y2="406.0" stroke="#d9d2bf" stroke-width="1" />
<text x="1071.1" y="424.0" text-anchor="middle" fill="#6f6659" font-size="11" font-family="Trebuchet MS, Arial, sans-serif">350</text>
<path d="M 148.89 401.45 L 189.58 368.46 L 257.39 345.27 L 325.20 365.00 L 393.01 353.87 L 460.82 344.55 L 664.25 354.67 L 1071.11 353.81" fill="none" stroke="#2a9d8f" stroke-width="3.2" stroke-linecap="round" stroke-linejoin="round" />
<circle cx="148.9" cy="401.4" r="4.8" fill="#2a9d8f" stroke="#fffdf7" stroke-width="1.3" />
<text x="156.9" y="391.4" fill="#2a9d8f" font-size="10" font-family="Trebuchet MS, Arial, sans-serif">0.642</text>
<circle cx="189.6" cy="368.5" r="4.8" fill="#2a9d8f" stroke="#fffdf7" stroke-width="1.3" />
<text x="197.6" y="358.5" fill="#2a9d8f" font-size="10" font-family="Trebuchet MS, Arial, sans-serif">0.675</text>
<circle cx="257.4" cy="345.3" r="4.8" fill="#2a9d8f" stroke="#fffdf7" stroke-width="1.3" />
<text x="265.4" y="335.3" fill="#2a9d8f" font-size="10" font-family="Trebuchet MS, Arial, sans-serif">0.698</text>
<circle cx="325.2" cy="365.0" r="4.8" fill="#2a9d8f" stroke="#fffdf7" stroke-width="1.3" />
<text x="333.2" y="355.0" fill="#2a9d8f" font-size="10" font-family="Trebuchet MS, Arial, sans-serif">0.678</text>
<circle cx="393.0" cy="353.9" r="4.8" fill="#2a9d8f" stroke="#fffdf7" stroke-width="1.3" />
<text x="401.0" y="343.9" fill="#2a9d8f" font-size="10" font-family="Trebuchet MS, Arial, sans-serif">0.689</text>
<circle cx="460.8" cy="344.6" r="4.8" fill="#2a9d8f" stroke="#fffdf7" stroke-width="1.3" />
<text x="468.8" y="334.6" fill="#2a9d8f" font-size="10" font-family="Trebuchet MS, Arial, sans-serif">0.699</text>
<circle cx="664.2" cy="354.7" r="4.8" fill="#2a9d8f" stroke="#fffdf7" stroke-width="1.3" />
<text x="672.2" y="344.7" fill="#2a9d8f" font-size="10" font-family="Trebuchet MS, Arial, sans-serif">0.688</text>
<circle cx="1071.1" cy="353.8" r="4.8" fill="#2a9d8f" stroke="#fffdf7" stroke-width="1.3" />
<text x="1079.1" y="343.8" fill="#2a9d8f" font-size="10" font-family="Trebuchet MS, Arial, sans-serif">0.689</text>
<text x="610.0" y="444.0" text-anchor="middle" fill="#1f1d1a" font-size="12" font-family="Trebuchet MS, Arial, sans-serif">Neuron Count</text>
<rect x="42.0" y="472.0" width="1096.0" height="180.0" rx="18" fill="#fffdf7" stroke="#e6dec9" />
<text x="66.0" y="506.0" fill="#1f1d1a" font-size="22" font-weight="700" font-family="Georgia, serif">Best Training Time (sec)</text>
<line x1="112.0" y1="605.0" x2="1108.0" y2="605.0" stroke="#d9d2bf" stroke-width="1" />
<text x="102.0" y="609.0" text-anchor="end" fill="#6f6659" font-size="11" font-family="Trebuchet MS, Arial, sans-serif">200</text>
<line x1="112.0" y1="592.7" x2="1108.0" y2="592.7" stroke="#d9d2bf" stroke-width="1" />
<text x="102.0" y="596.7" text-anchor="end" fill="#6f6659" font-size="11" font-family="Trebuchet MS, Arial, sans-serif">250</text>
<line x1="112.0" y1="580.4" x2="1108.0" y2="580.4" stroke="#d9d2bf" stroke-width="1" />
<text x="102.0" y="584.4" text-anchor="end" fill="#6f6659" font-size="11" font-family="Trebuchet MS, Arial, sans-serif">300</text>
<line x1="112.0" y1="568.1" x2="1108.0" y2="568.1" stroke="#d9d2bf" stroke-width="1" />
<text x="102.0" y="572.1" text-anchor="end" fill="#6f6659" font-size="11" font-family="Trebuchet MS, Arial, sans-serif">350</text>
<line x1="112.0" y1="555.8" x2="1108.0" y2="555.8" stroke="#d9d2bf" stroke-width="1" />
<text x="102.0" y="559.8" text-anchor="end" fill="#6f6659" font-size="11" font-family="Trebuchet MS, Arial, sans-serif">400</text>
<line x1="112.0" y1="543.5" x2="1108.0" y2="543.5" stroke="#d9d2bf" stroke-width="1" />
<text x="102.0" y="547.5" text-anchor="end" fill="#6f6659" font-size="11" font-family="Trebuchet MS, Arial, sans-serif">450</text>
<line x1="112.0" y1="531.2" x2="1108.0" y2="531.2" stroke="#d9d2bf" stroke-width="1" />
<text x="102.0" y="535.2" text-anchor="end" fill="#6f6659" font-size="11" font-family="Trebuchet MS, Arial, sans-serif">500</text>
<line x1="148.9" y1="538.0" x2="148.9" y2="604.0" stroke="#d9d2bf" stroke-width="1" />
<text x="148.9" y="622.0" text-anchor="middle" fill="#6f6659" font-size="11" font-family="Trebuchet MS, Arial, sans-serif">10</text>
<line x1="189.6" y1="538.0" x2="189.6" y2="604.0" stroke="#d9d2bf" stroke-width="1" />
<text x="189.6" y="622.0" text-anchor="middle" fill="#6f6659" font-size="11" font-family="Trebuchet MS, Arial, sans-serif">25</text>
<line x1="257.4" y1="538.0" x2="257.4" y2="604.0" stroke="#d9d2bf" stroke-width="1" />
<text x="257.4" y="622.0" text-anchor="middle" fill="#6f6659" font-size="11" font-family="Trebuchet MS, Arial, sans-serif">50</text>
<line x1="325.2" y1="538.0" x2="325.2" y2="604.0" stroke="#d9d2bf" stroke-width="1" />
<text x="325.2" y="622.0" text-anchor="middle" fill="#6f6659" font-size="11" font-family="Trebuchet MS, Arial, sans-serif">75</text>
<line x1="393.0" y1="538.0" x2="393.0" y2="604.0" stroke="#d9d2bf" stroke-width="1" />
<text x="393.0" y="622.0" text-anchor="middle" fill="#6f6659" font-size="11" font-family="Trebuchet MS, Arial, sans-serif">100</text>
<line x1="460.8" y1="538.0" x2="460.8" y2="604.0" stroke="#d9d2bf" stroke-width="1" />
<text x="460.8" y="622.0" text-anchor="middle" fill="#6f6659" font-size="11" font-family="Trebuchet MS, Arial, sans-serif">125</text>
<line x1="664.2" y1="538.0" x2="664.2" y2="604.0" stroke="#d9d2bf" stroke-width="1" />
<text x="664.2" y="622.0" text-anchor="middle" fill="#6f6659" font-size="11" font-family="Trebuchet MS, Arial, sans-serif">200</text>
<line x1="1071.1" y1="538.0" x2="1071.1" y2="604.0" stroke="#d9d2bf" stroke-width="1" />
<text x="1071.1" y="622.0" text-anchor="middle" fill="#6f6659" font-size="11" font-family="Trebuchet MS, Arial, sans-serif">350</text>
<path d="M 148.89 599.45 L 189.58 546.32 L 257.39 543.67 L 325.20 598.85 L 393.01 543.57 L 460.82 542.55 L 664.25 598.00 L 1071.11 597.18" fill="none" stroke="#e76f51" stroke-width="3.2" stroke-linecap="round" stroke-linejoin="round" />
<circle cx="148.9" cy="599.4" r="4.8" fill="#e76f51" stroke="#fffdf7" stroke-width="1.3" />
<text x="156.9" y="589.4" fill="#e76f51" font-size="10" font-family="Trebuchet MS, Arial, sans-serif">222</text>
<circle cx="189.6" cy="546.3" r="4.8" fill="#e76f51" stroke="#fffdf7" stroke-width="1.3" />
<text x="197.6" y="536.3" fill="#e76f51" font-size="10" font-family="Trebuchet MS, Arial, sans-serif">438</text>
<circle cx="257.4" cy="543.7" r="4.8" fill="#e76f51" stroke="#fffdf7" stroke-width="1.3" />
<text x="265.4" y="533.7" fill="#e76f51" font-size="10" font-family="Trebuchet MS, Arial, sans-serif">449</text>
<circle cx="325.2" cy="598.8" r="4.8" fill="#e76f51" stroke="#fffdf7" stroke-width="1.3" />
<text x="333.2" y="588.8" fill="#e76f51" font-size="10" font-family="Trebuchet MS, Arial, sans-serif">225</text>
<circle cx="393.0" cy="543.6" r="4.8" fill="#e76f51" stroke="#fffdf7" stroke-width="1.3" />
<text x="401.0" y="533.6" fill="#e76f51" font-size="10" font-family="Trebuchet MS, Arial, sans-serif">450</text>
<circle cx="460.8" cy="542.6" r="4.8" fill="#e76f51" stroke="#fffdf7" stroke-width="1.3" />
<text x="468.8" y="532.6" fill="#e76f51" font-size="10" font-family="Trebuchet MS, Arial, sans-serif">454</text>
<circle cx="664.2" cy="598.0" r="4.8" fill="#e76f51" stroke="#fffdf7" stroke-width="1.3" />
<text x="672.2" y="588.0" fill="#e76f51" font-size="10" font-family="Trebuchet MS, Arial, sans-serif">228</text>
<circle cx="1071.1" cy="597.2" r="4.8" fill="#e76f51" stroke="#fffdf7" stroke-width="1.3" />
<text x="1079.1" y="587.2" fill="#e76f51" font-size="10" font-family="Trebuchet MS, Arial, sans-serif">232</text>
<text x="610.0" y="642.0" text-anchor="middle" fill="#1f1d1a" font-size="12" font-family="Trebuchet MS, Arial, sans-serif">Neuron Count</text>
</svg>