<svg xmlns="http://www.w3.org/2000/svg" width="1180" height="720" viewBox="0 0 1180 720" role="img" aria-label="125-Neuron Model: Test vs Validation RMSE">
<rect width="1180" height="720" fill="#f7f4ea" />
<rect x="28.0" y="24.0" width="1124.0" height="672.0" rx="18" fill="#fffdf7" stroke="#e6dec9" />
<text x="52.0" y="58.0" fill="#1f1d1a" font-size="22" font-weight="700" font-family="Georgia, serif">125-Neuron Model: Test vs Validation RMSE</text>
<line x1="98.0" y1="695.2" x2="1122.0" y2="695.2" stroke="#d9d2bf" stroke-width="1" />
<text x="86.0" y="700.2" text-anchor="end" fill="#6f6659" font-size="12" font-family="Trebuchet MS, Arial, sans-serif">100k</text>
<line x1="98.0" y1="606.9" x2="1122.0" y2="606.9" stroke="#d9d2bf" stroke-width="1" />
<text x="86.0" y="611.9" text-anchor="end" fill="#6f6659" font-size="12" font-family="Trebuchet MS, Arial, sans-serif">200k</text>
<line x1="98.0" y1="518.7" x2="1122.0" y2="518.7" stroke="#d9d2bf" stroke-width="1" />
<text x="86.0" y="523.7" text-anchor="end" fill="#6f6659" font-size="12" font-family="Trebuchet MS, Arial, sans-serif">300k</text>
<line x1="98.0" y1="430.5" x2="1122.0" y2="430.5" stroke="#d9d2bf" stroke-width="1" />
<text x="86.0" y="435.5" text-anchor="end" fill="#6f6659" font-size="12" font-family="Trebuchet MS, Arial, sans-serif">400k</text>
<line x1="98.0" y1="342.2" x2="1122.0" y2="342.2" stroke="#d9d2bf" stroke-width="1" />
<text x="86.0" y="347.2" text-anchor="end" fill="#6f6659" font-size="12" font-family="Trebuchet MS, Arial, sans-serif">500k</text>
<line x1="98.0" y1="254.0" x2="1122.0" y2="254.0" stroke="#d9d2bf" stroke-width="1" />
<text x="86.0" y="259.0" text-anchor="end" fill="#6f6659" font-size="12" font-family="Trebuchet MS, Arial, sans-serif">600k</text>
<line x1="98.0" y1="165.7" x2="1122.0" y2="165.7" stroke="#d9d2bf" stroke-width="1" />
<text x="86.0" y="170.7" text-anchor="end" fill="#6f6659" font-size="12" font-family="Trebuchet MS, Arial, sans-serif">700k</text>
<line x1="98.0" y1="77.5" x2="1122.0" y2="77.5" stroke="#d9d2bf" stroke-width="1" />
<text x="86.0" y="82.5" text-anchor="end" fill="#6f6659" font-size="12" font-family="Trebuchet MS, Arial, sans-serif">800k</text>
<line x1="117.7" y1="90.0" x2="117.7" y2="648.0" stroke="#d9d2bf" stroke-width="1" />
<text x="117.7" y="670.0" text-anchor="middle" fill="#6f6659" font-size="12" font-family="Trebuchet MS, Arial, sans-serif">10</text>
<line x1="147.8" y1="90.0" x2="147.8" y2="648.0" stroke="#d9d2bf" stroke-width="1" />
<text x="147.8" y="670.0" text-anchor="middle" fill="#6f6659" font-size="12" font-family="Trebuchet MS, Arial, sans-serif">25</text>
<line x1="198.1" y1="90.0" x2="198.1" y2="648.0" stroke="#d9d2bf" stroke-width="1" />
<text x="198.1" y="670.0" text-anchor="middle" fill="#6f6659" font-size="12" font-family="Trebuchet MS, Arial, sans-serif">50</text>
<line x1="248.3" y1="90.0" x2="248.3" y2="648.0" stroke="#d9d2bf" stroke-width="1" />
<text x="248.3" y="670.0" text-anchor="middle" fill="#6f6659" font-size="12" font-family="Trebuchet MS, Arial, sans-serif">75</text>
<line x1="298.5" y1="90.0" x2="298.5" y2="648.0" stroke="#d9d2bf" stroke-width="1" />
<text x="298.5" y="670.0" text-anchor="middle" fill="#6f6659" font-size="12" font-family="Trebuchet MS, Arial, sans-serif">100</text>
<line x1="348.8" y1="90.0" x2="348.8" y2="648.0" stroke="#d9d2bf" stroke-width="1" />
<text x="348.8" y="670.0" text-anchor="middle" fill="#6f6659" font-size="12" font-family="Trebuchet MS, Arial, sans-serif">125</text>
<line x1="600.0" y1="90.0" x2="600.0" y2="648.0" stroke="#d9d2bf" stroke-width="1" />
<text x="600.0" y="670.0" text-anchor="middle" fill="#6f6659" font-size="12" font-family="Trebuchet MS, Arial, sans-serif">250</text>
<line x1="1102.3" y1="90.0" x2="1102.3" y2="648.0" stroke="#d9d2bf" stroke-width="1" />
<text x="1102.3" y="670.0" text-anchor="middle" fill="#6f6659" font-size="12" font-family="Trebuchet MS, Arial, sans-serif">500</text>
<line x1="98.0" y1="648.0" x2="1122.0" y2="648.0" stroke="#544b3d" stroke-width="1.6" />
<line x1="98.0" y1="90.0" x2="98.0" y2="648.0" stroke="#544b3d" stroke-width="1.6" />
<path d="M 117.69 451.88 L 147.83 492.89 L 198.07 588.71 L 248.30 592.98 L 298.54 599.16 L 348.78 598.90 L 599.95 607.26 L 1102.31 609.52" fill="none" stroke="#355070" stroke-width="3.2" stroke-linecap="round" stroke-linejoin="round" />
<circle cx="117.7" cy="451.9" r="4.4" fill="#355070" stroke="#fffdf7" stroke-width="1.4" />
<circle cx="147.8" cy="492.9" r="4.4" fill="#355070" stroke="#fffdf7" stroke-width="1.4" />
<circle cx="198.1" cy="588.7" r="4.4" fill="#355070" stroke="#fffdf7" stroke-width="1.4" />
<circle cx="248.3" cy="593.0" r="4.4" fill="#355070" stroke="#fffdf7" stroke-width="1.4" />
<circle cx="298.5" cy="599.2" r="4.4" fill="#355070" stroke="#fffdf7" stroke-width="1.4" />
<circle cx="348.8" cy="598.9" r="4.4" fill="#355070" stroke="#fffdf7" stroke-width="1.4" />
<circle cx="600.0" cy="607.3" r="4.4" fill="#355070" stroke="#fffdf7" stroke-width="1.4" />
<circle cx="1102.3" cy="609.5" r="4.4" fill="#355070" stroke="#fffdf7" stroke-width="1.4" />
<path d="M 117.69 128.48 L 147.83 326.52 L 198.07 513.66 L 248.30 514.63 L 298.54 520.82 L 348.78 514.29 L 599.95 538.56 L 1102.31 541.78" fill="none" stroke="#c1121f" stroke-width="3.2" stroke-linecap="round" stroke-linejoin="round" />
<circle cx="117.7" cy="128.5" r="4.4" fill="#c1121f" stroke="#fffdf7" stroke-width="1.4" />
<circle cx="147.8" cy="326.5" r="4.4" fill="#c1121f" stroke="#fffdf7" stroke-width="1.4" />
<circle cx="198.1" cy="513.7" r="4.4" fill="#c1121f" stroke="#fffdf7" stroke-width="1.4" />
<circle cx="248.3" cy="514.6" r="4.4" fill="#c1121f" stroke="#fffdf7" stroke-width="1.4" />
<circle cx="298.5" cy="520.8" r="4.4" fill="#c1121f" stroke="#fffdf7" stroke-width="1.4" />
<circle cx="348.8" cy="514.3" r="4.4" fill="#c1121f" stroke="#fffdf7" stroke-width="1.4" />
<circle cx="600.0" cy="538.6" r="4.4" fill="#c1121f" stroke="#fffdf7" stroke-width="1.4" />
<circle cx="1102.3" cy="541.8" r="4.4" fill="#c1121f" stroke="#fffdf7" stroke-width="1.4" />
<line x1="932.0" y1="98.0" x2="956.0" y2="98.0" stroke="#355070" stroke-width="4" stroke-linecap="round" />
<text x="966.0" y="102.0" fill="#1f1d1a" font-size="13" font-family="Trebuchet MS, Arial, sans-serif">Validation RMSE</text>
<line x1="932.0" y1="122.0" x2="956.0" y2="122.0" stroke="#c1121f" stroke-width="4" stroke-linecap="round" />
<text x="966.0" y="126.0" fill="#1f1d1a" font-size="13" font-family="Trebuchet MS, Arial, sans-serif">Test RMSE</text>
<text x="610.0" y="694.0" text-anchor="middle" fill="#1f1d1a" font-size="14" font-family="Trebuchet MS, Arial, sans-serif">Epoch Budget</text>
<text x="24" y="369.0" transform="rotate(-90 24 369.0)" text-anchor="middle" fill="#1f1d1a" font-size="14" font-family="Trebuchet MS, Arial, sans-serif">RMSE</text>
</svg>