<svg xmlns="http://www.w3.org/2000/svg" width="1180" height="720" viewBox="0 0 1180 720" role="img" aria-label="Testing Loss vs Epoch Budget">
<rect width="1180" height="720" fill="#f7f4ea" />
<rect x="28.0" y="24.0" width="1124.0" height="672.0" rx="18" fill="#fffdf7" stroke="#e6dec9" />
<text x="52.0" y="58.0" fill="#1f1d1a" font-size="22" font-weight="700" font-family="Georgia, serif">Testing Loss vs Epoch Budget</text>
<line x1="98.0" y1="649.3" x2="1122.0" y2="649.3" stroke="#d9d2bf" stroke-width="1" />
<text x="86.0" y="654.3" text-anchor="end" fill="#6f6659" font-size="12" font-family="Trebuchet MS, Arial, sans-serif">0</text>
<line x1="98.0" y1="508.8" x2="1122.0" y2="508.8" stroke="#d9d2bf" stroke-width="1" />
<text x="86.0" y="513.8" text-anchor="end" fill="#6f6659" font-size="12" font-family="Trebuchet MS, Arial, sans-serif">1.0M</text>
<line x1="98.0" y1="368.2" x2="1122.0" y2="368.2" stroke="#d9d2bf" stroke-width="1" />
<text x="86.0" y="373.2" text-anchor="end" fill="#6f6659" font-size="12" font-family="Trebuchet MS, Arial, sans-serif">2.0M</text>
<line x1="98.0" y1="227.7" x2="1122.0" y2="227.7" stroke="#d9d2bf" stroke-width="1" />
<text x="86.0" y="232.7" text-anchor="end" fill="#6f6659" font-size="12" font-family="Trebuchet MS, Arial, sans-serif">3.0M</text>
<line x1="98.0" y1="87.2" x2="1122.0" y2="87.2" stroke="#d9d2bf" stroke-width="1" />
<text x="86.0" y="92.2" text-anchor="end" fill="#6f6659" font-size="12" font-family="Trebuchet MS, Arial, sans-serif">4.0M</text>
<line x1="117.7" y1="90.0" x2="117.7" y2="648.0" stroke="#d9d2bf" stroke-width="1" />
<text x="117.7" y="670.0" text-anchor="middle" fill="#6f6659" font-size="12" font-family="Trebuchet MS, Arial, sans-serif">10</text>
<line x1="246.1" y1="90.0" x2="246.1" y2="648.0" stroke="#d9d2bf" stroke-width="1" />
<text x="246.1" y="670.0" text-anchor="middle" fill="#6f6659" font-size="12" font-family="Trebuchet MS, Arial, sans-serif">25</text>
<line x1="460.2" y1="90.0" x2="460.2" y2="648.0" stroke="#d9d2bf" stroke-width="1" />
<text x="460.2" y="670.0" text-anchor="middle" fill="#6f6659" font-size="12" font-family="Trebuchet MS, Arial, sans-serif">50</text>
<line x1="674.2" y1="90.0" x2="674.2" y2="648.0" stroke="#d9d2bf" stroke-width="1" />
<text x="674.2" y="670.0" text-anchor="middle" fill="#6f6659" font-size="12" font-family="Trebuchet MS, Arial, sans-serif">75</text>
<line x1="888.3" y1="90.0" x2="888.3" y2="648.0" stroke="#d9d2bf" stroke-width="1" />
<text x="888.3" y="670.0" text-anchor="middle" fill="#6f6659" font-size="12" font-family="Trebuchet MS, Arial, sans-serif">100</text>
<line x1="1102.3" y1="90.0" x2="1102.3" y2="648.0" stroke="#d9d2bf" stroke-width="1" />
<text x="1102.3" y="670.0" text-anchor="middle" fill="#6f6659" font-size="12" font-family="Trebuchet MS, Arial, sans-serif">125</text>
<line x1="98.0" y1="648.0" x2="1122.0" y2="648.0" stroke="#544b3d" stroke-width="1.6" />
<line x1="98.0" y1="90.0" x2="98.0" y2="648.0" stroke="#544b3d" stroke-width="1.6" />
<path d="M 117.69 381.41 L 246.12 460.87 L 460.17 596.55 L 674.21 605.28 L 888.26 601.84 L 1102.31 603.19" fill="none" stroke="#1b4965" stroke-width="3.2" stroke-linecap="round" stroke-linejoin="round" />
<circle cx="117.7" cy="381.4" r="4.4" fill="#1b4965" stroke="#fffdf7" stroke-width="1.4" />
<circle cx="246.1" cy="460.9" r="4.4" fill="#1b4965" stroke="#fffdf7" stroke-width="1.4" />
<circle cx="460.2" cy="596.5" r="4.4" fill="#1b4965" stroke="#fffdf7" stroke-width="1.4" />
<circle cx="674.2" cy="605.3" r="4.4" fill="#1b4965" stroke="#fffdf7" stroke-width="1.4" />
<circle cx="888.3" cy="601.8" r="4.4" fill="#1b4965" stroke="#fffdf7" stroke-width="1.4" />
<circle cx="1102.3" cy="603.2" r="4.4" fill="#1b4965" stroke="#fffdf7" stroke-width="1.4" />
<path d="M 117.69 128.48 L 246.12 526.04 L 460.17 604.44 L 674.21 606.88 L 888.26 606.34 L 1102.31 608.67" fill="none" stroke="#ca6702" stroke-width="3.2" stroke-linecap="round" stroke-linejoin="round" />
<circle cx="117.7" cy="128.5" r="4.4" fill="#ca6702" stroke="#fffdf7" stroke-width="1.4" />
<circle cx="246.1" cy="526.0" r="4.4" fill="#ca6702" stroke="#fffdf7" stroke-width="1.4" />
<circle cx="460.2" cy="604.4" r="4.4" fill="#ca6702" stroke="#fffdf7" stroke-width="1.4" />
<circle cx="674.2" cy="606.9" r="4.4" fill="#ca6702" stroke="#fffdf7" stroke-width="1.4" />
<circle cx="888.3" cy="606.3" r="4.4" fill="#ca6702" stroke="#fffdf7" stroke-width="1.4" />
<circle cx="1102.3" cy="608.7" r="4.4" fill="#ca6702" stroke="#fffdf7" stroke-width="1.4" />
<path d="M 117.69 563.42 L 246.12 568.74 L 460.17 602.39 L 674.21 607.75 L 888.26 607.84 L 1102.31 607.79" fill="none" stroke="#0b6e4f" stroke-width="3.2" stroke-linecap="round" stroke-linejoin="round" />
<circle cx="117.7" cy="563.4" r="4.4" fill="#0b6e4f" stroke="#fffdf7" stroke-width="1.4" />
<circle cx="246.1" cy="568.7" r="4.4" fill="#0b6e4f" stroke="#fffdf7" stroke-width="1.4" />
<circle cx="460.2" cy="602.4" r="4.4" fill="#0b6e4f" stroke="#fffdf7" stroke-width="1.4" />
<circle cx="674.2" cy="607.7" r="4.4" fill="#0b6e4f" stroke="#fffdf7" stroke-width="1.4" />
<circle cx="888.3" cy="607.8" r="4.4" fill="#0b6e4f" stroke="#fffdf7" stroke-width="1.4" />
<circle cx="1102.3" cy="607.8" r="4.4" fill="#0b6e4f" stroke="#fffdf7" stroke-width="1.4" />
<path d="M 117.69 571.35 L 246.12 559.70 L 460.17 607.51 L 674.21 606.53 L 888.26 608.22 L 1102.31 597.85" fill="none" stroke="#b02e0c" stroke-width="3.2" stroke-linecap="round" stroke-linejoin="round" />
<circle cx="117.7" cy="571.4" r="4.4" fill="#b02e0c" stroke="#fffdf7" stroke-width="1.4" />
<circle cx="246.1" cy="559.7" r="4.4" fill="#b02e0c" stroke="#fffdf7" stroke-width="1.4" />
<circle cx="460.2" cy="607.5" r="4.4" fill="#b02e0c" stroke="#fffdf7" stroke-width="1.4" />
<circle cx="674.2" cy="606.5" r="4.4" fill="#b02e0c" stroke="#fffdf7" stroke-width="1.4" />
<circle cx="888.3" cy="608.2" r="4.4" fill="#b02e0c" stroke="#fffdf7" stroke-width="1.4" />
<circle cx="1102.3" cy="597.8" r="4.4" fill="#b02e0c" stroke="#fffdf7" stroke-width="1.4" />
<path d="M 117.69 549.49 L 246.12 594.14 L 460.17 606.16 L 674.21 606.47 L 888.26 607.80 L 1102.31 609.52" fill="none" stroke="#5f0f40" stroke-width="3.2" stroke-linecap="round" stroke-linejoin="round" />
<circle cx="117.7" cy="549.5" r="4.4" fill="#5f0f40" stroke="#fffdf7" stroke-width="1.4" />
<circle cx="246.1" cy="594.1" r="4.4" fill="#5f0f40" stroke="#fffdf7" stroke-width="1.4" />
<circle cx="460.2" cy="606.2" r="4.4" fill="#5f0f40" stroke="#fffdf7" stroke-width="1.4" />
<circle cx="674.2" cy="606.5" r="4.4" fill="#5f0f40" stroke="#fffdf7" stroke-width="1.4" />
<circle cx="888.3" cy="607.8" r="4.4" fill="#5f0f40" stroke="#fffdf7" stroke-width="1.4" />
<circle cx="1102.3" cy="609.5" r="4.4" fill="#5f0f40" stroke="#fffdf7" stroke-width="1.4" />
<path d="M 117.69 571.45 L 246.12 579.97 L 460.17 604.14 L 674.21 605.15 L 888.26 608.09 L 1102.31 591.69" fill="none" stroke="#3a5a40" stroke-width="3.2" stroke-linecap="round" stroke-linejoin="round" />
<circle cx="117.7" cy="571.5" r="4.4" fill="#3a5a40" stroke="#fffdf7" stroke-width="1.4" />
<circle cx="246.1" cy="580.0" r="4.4" fill="#3a5a40" stroke="#fffdf7" stroke-width="1.4" />
<circle cx="460.2" cy="604.1" r="4.4" fill="#3a5a40" stroke="#fffdf7" stroke-width="1.4" />
<circle cx="674.2" cy="605.1" r="4.4" fill="#3a5a40" stroke="#fffdf7" stroke-width="1.4" />
<circle cx="888.3" cy="608.1" r="4.4" fill="#3a5a40" stroke="#fffdf7" stroke-width="1.4" />
<circle cx="1102.3" cy="591.7" r="4.4" fill="#3a5a40" stroke="#fffdf7" stroke-width="1.4" />
<line x1="932.0" y1="98.0" x2="956.0" y2="98.0" stroke="#1b4965" stroke-width="4" stroke-linecap="round" />
<text x="966.0" y="102.0" fill="#1f1d1a" font-size="13" font-family="Trebuchet MS, Arial, sans-serif">10 neurons</text>
<line x1="932.0" y1="122.0" x2="956.0" y2="122.0" stroke="#ca6702" stroke-width="4" stroke-linecap="round" />
<text x="966.0" y="126.0" fill="#1f1d1a" font-size="13" font-family="Trebuchet MS, Arial, sans-serif">25 neurons</text>
<line x1="932.0" y1="146.0" x2="956.0" y2="146.0" stroke="#0b6e4f" stroke-width="4" stroke-linecap="round" />
<text x="966.0" y="150.0" fill="#1f1d1a" font-size="13" font-family="Trebuchet MS, Arial, sans-serif">50 neurons</text>
<line x1="932.0" y1="170.0" x2="956.0" y2="170.0" stroke="#b02e0c" stroke-width="4" stroke-linecap="round" />
<text x="966.0" y="174.0" fill="#1f1d1a" font-size="13" font-family="Trebuchet MS, Arial, sans-serif">75 neurons</text>
<line x1="932.0" y1="194.0" x2="956.0" y2="194.0" stroke="#5f0f40" stroke-width="4" stroke-linecap="round" />
<text x="966.0" y="198.0" fill="#1f1d1a" font-size="13" font-family="Trebuchet MS, Arial, sans-serif">100 neurons</text>
<line x1="932.0" y1="218.0" x2="956.0" y2="218.0" stroke="#3a5a40" stroke-width="4" stroke-linecap="round" />
<text x="966.0" y="222.0" fill="#1f1d1a" font-size="13" font-family="Trebuchet MS, Arial, sans-serif">125 neurons</text>
<text x="610.0" y="694.0" text-anchor="middle" fill="#1f1d1a" font-size="14" font-family="Trebuchet MS, Arial, sans-serif">Epoch Budget</text>
<text x="24" y="369.0" transform="rotate(-90 24 369.0)" text-anchor="middle" fill="#1f1d1a" font-size="14" font-family="Trebuchet MS, Arial, sans-serif">Test RMSE</text>
</svg>