<svg xmlns="http://www.w3.org/2000/svg" width="1180" height="720" viewBox="0 0 1180 720" role="img" aria-label="Test RMSE vs Epoch Budget (Zoomed Comparison)">
<rect width="1180" height="720" fill="#f7f4ea" />
<rect x="28.0" y="24.0" width="1124.0" height="672.0" rx="18" fill="#fffdf7" stroke="#e6dec9" />
<text x="52.0" y="58.0" fill="#1f1d1a" font-size="22" font-weight="700" font-family="Georgia, serif">Test RMSE vs Epoch Budget (Zoomed Comparison)</text>
<text x="52.0" y="82.0" fill="#6f6659" font-size="13" font-family="Trebuchet MS, Arial, sans-serif">Lower is better. Excludes the smallest model to show the competitive range more clearly.</text>
<line x1="98.0" y1="743.6" x2="1122.0" y2="743.6" stroke="#d9d2bf" stroke-width="1" />
<text x="86.0" y="748.6" text-anchor="end" fill="#6f6659" font-size="12" font-family="Trebuchet MS, Arial, sans-serif">260k</text>
<line x1="98.0" y1="647.6" x2="1122.0" y2="647.6" stroke="#d9d2bf" stroke-width="1" />
<text x="86.0" y="652.6" text-anchor="end" fill="#6f6659" font-size="12" font-family="Trebuchet MS, Arial, sans-serif">270k</text>
<line x1="98.0" y1="551.6" x2="1122.0" y2="551.6" stroke="#d9d2bf" stroke-width="1" />
<text x="86.0" y="556.6" text-anchor="end" fill="#6f6659" font-size="12" font-family="Trebuchet MS, Arial, sans-serif">280k</text>
<line x1="98.0" y1="455.5" x2="1122.0" y2="455.5" stroke="#d9d2bf" stroke-width="1" />
<text x="86.0" y="460.5" text-anchor="end" fill="#6f6659" font-size="12" font-family="Trebuchet MS, Arial, sans-serif">290k</text>
<line x1="98.0" y1="359.5" x2="1122.0" y2="359.5" stroke="#d9d2bf" stroke-width="1" />
<text x="86.0" y="364.5" text-anchor="end" fill="#6f6659" font-size="12" font-family="Trebuchet MS, Arial, sans-serif">300k</text>
<line x1="98.0" y1="263.5" x2="1122.0" y2="263.5" stroke="#d9d2bf" stroke-width="1" />
<text x="86.0" y="268.5" text-anchor="end" fill="#6f6659" font-size="12" font-family="Trebuchet MS, Arial, sans-serif">310k</text>
<line x1="98.0" y1="167.5" x2="1122.0" y2="167.5" stroke="#d9d2bf" stroke-width="1" />
<text x="86.0" y="172.5" text-anchor="end" fill="#6f6659" font-size="12" font-family="Trebuchet MS, Arial, sans-serif">320k</text>
<line x1="98.0" y1="71.4" x2="1122.0" y2="71.4" stroke="#d9d2bf" stroke-width="1" />
<text x="86.0" y="76.4" text-anchor="end" fill="#6f6659" font-size="12" font-family="Trebuchet MS, Arial, sans-serif">330k</text>
<line x1="117.7" y1="106.0" x2="117.7" y2="648.0" stroke="#d9d2bf" stroke-width="1" />
<text x="117.7" y="670.0" text-anchor="middle" fill="#6f6659" font-size="12" font-family="Trebuchet MS, Arial, sans-serif">50</text>
<line x1="172.4" y1="106.0" x2="172.4" y2="648.0" stroke="#d9d2bf" stroke-width="1" />
<text x="172.4" y="670.0" text-anchor="middle" fill="#6f6659" font-size="12" font-family="Trebuchet MS, Arial, sans-serif">75</text>
<line x1="227.1" y1="106.0" x2="227.1" y2="648.0" stroke="#d9d2bf" stroke-width="1" />
<text x="227.1" y="670.0" text-anchor="middle" fill="#6f6659" font-size="12" font-family="Trebuchet MS, Arial, sans-serif">100</text>
<line x1="281.8" y1="106.0" x2="281.8" y2="648.0" stroke="#d9d2bf" stroke-width="1" />
<text x="281.8" y="670.0" text-anchor="middle" fill="#6f6659" font-size="12" font-family="Trebuchet MS, Arial, sans-serif">125</text>
<line x1="555.3" y1="106.0" x2="555.3" y2="648.0" stroke="#d9d2bf" stroke-width="1" />
<text x="555.3" y="670.0" text-anchor="middle" fill="#6f6659" font-size="12" font-family="Trebuchet MS, Arial, sans-serif">250</text>
<line x1="1102.3" y1="106.0" x2="1102.3" y2="648.0" stroke="#d9d2bf" stroke-width="1" />
<text x="1102.3" y="670.0" text-anchor="middle" fill="#6f6659" font-size="12" font-family="Trebuchet MS, Arial, sans-serif">500</text>
<line x1="98.0" y1="648.0" x2="1122.0" y2="648.0" stroke="#544b3d" stroke-width="1.6" />
<line x1="98.0" y1="106.0" x2="98.0" y2="648.0" stroke="#544b3d" stroke-width="1.6" />
<path d="M 117.69 143.38 L 172.39 336.65 L 227.09 188.05 L 281.79 286.55 L 555.30 149.80 L 1102.31 508.37" fill="none" stroke="#ca6702" stroke-width="3.2" stroke-linecap="round" stroke-linejoin="round" />
<circle cx="117.7" cy="143.4" r="4.4" fill="#ca6702" stroke="#fffdf7" stroke-width="1.4" />
<circle cx="172.4" cy="336.7" r="4.4" fill="#ca6702" stroke="#fffdf7" stroke-width="1.4" />
<circle cx="227.1" cy="188.0" r="4.4" fill="#ca6702" stroke="#fffdf7" stroke-width="1.4" />
<circle cx="281.8" cy="286.5" r="4.4" fill="#ca6702" stroke="#fffdf7" stroke-width="1.4" />
<circle cx="555.3" cy="149.8" r="4.4" fill="#ca6702" stroke="#fffdf7" stroke-width="1.4" />
<circle cx="1102.3" cy="508.4" r="4.4" fill="#ca6702" stroke="#fffdf7" stroke-width="1.4" />
<path d="M 117.69 298.01 L 172.39 242.79 L 227.09 519.64 L 281.79 246.56 L 555.30 323.93 L 1102.31 607.47" fill="none" stroke="#0b6e4f" stroke-width="3.2" stroke-linecap="round" stroke-linejoin="round" />
<circle cx="117.7" cy="298.0" r="4.4" fill="#0b6e4f" stroke="#fffdf7" stroke-width="1.4" />
<circle cx="172.4" cy="242.8" r="4.4" fill="#0b6e4f" stroke="#fffdf7" stroke-width="1.4" />
<circle cx="227.1" cy="519.6" r="4.4" fill="#0b6e4f" stroke="#fffdf7" stroke-width="1.4" />
<circle cx="281.8" cy="246.6" r="4.4" fill="#0b6e4f" stroke="#fffdf7" stroke-width="1.4" />
<circle cx="555.3" cy="323.9" r="4.4" fill="#0b6e4f" stroke="#fffdf7" stroke-width="1.4" />
<circle cx="1102.3" cy="607.5" r="4.4" fill="#0b6e4f" stroke="#fffdf7" stroke-width="1.4" />
<path d="M 117.69 288.47 L 172.39 379.10 L 227.09 509.37 L 281.79 493.51 L 555.30 522.93 L 1102.31 485.37" fill="none" stroke="#b02e0c" stroke-width="3.2" stroke-linecap="round" stroke-linejoin="round" />
<circle cx="117.7" cy="288.5" r="4.4" fill="#b02e0c" stroke="#fffdf7" stroke-width="1.4" />
<circle cx="172.4" cy="379.1" r="4.4" fill="#b02e0c" stroke="#fffdf7" stroke-width="1.4" />
<circle cx="227.1" cy="509.4" r="4.4" fill="#b02e0c" stroke="#fffdf7" stroke-width="1.4" />
<circle cx="281.8" cy="493.5" r="4.4" fill="#b02e0c" stroke="#fffdf7" stroke-width="1.4" />
<circle cx="555.3" cy="522.9" r="4.4" fill="#b02e0c" stroke="#fffdf7" stroke-width="1.4" />
<circle cx="1102.3" cy="485.4" r="4.4" fill="#b02e0c" stroke="#fffdf7" stroke-width="1.4" />
<path d="M 117.69 296.86 L 172.39 399.76 L 227.09 539.49 L 281.79 505.96 L 555.30 525.02 L 1102.31 570.29" fill="none" stroke="#5f0f40" stroke-width="3.2" stroke-linecap="round" stroke-linejoin="round" />
<circle cx="117.7" cy="296.9" r="4.4" fill="#5f0f40" stroke="#fffdf7" stroke-width="1.4" />
<circle cx="172.4" cy="399.8" r="4.4" fill="#5f0f40" stroke="#fffdf7" stroke-width="1.4" />
<circle cx="227.1" cy="539.5" r="4.4" fill="#5f0f40" stroke="#fffdf7" stroke-width="1.4" />
<circle cx="281.8" cy="506.0" r="4.4" fill="#5f0f40" stroke="#fffdf7" stroke-width="1.4" />
<circle cx="555.3" cy="525.0" r="4.4" fill="#5f0f40" stroke="#fffdf7" stroke-width="1.4" />
<circle cx="1102.3" cy="570.3" r="4.4" fill="#5f0f40" stroke="#fffdf7" stroke-width="1.4" />
<path d="M 117.69 304.64 L 172.39 315.22 L 227.09 382.54 L 281.79 311.49 L 555.30 575.59 L 1102.31 610.62" fill="none" stroke="#3a5a40" stroke-width="3.2" stroke-linecap="round" stroke-linejoin="round" />
<circle cx="117.7" cy="304.6" r="4.4" fill="#3a5a40" stroke="#fffdf7" stroke-width="1.4" />
<circle cx="172.4" cy="315.2" r="4.4" fill="#3a5a40" stroke="#fffdf7" stroke-width="1.4" />
<circle cx="227.1" cy="382.5" r="4.4" fill="#3a5a40" stroke="#fffdf7" stroke-width="1.4" />
<circle cx="281.8" cy="311.5" r="4.4" fill="#3a5a40" stroke="#fffdf7" stroke-width="1.4" />
<circle cx="555.3" cy="575.6" r="4.4" fill="#3a5a40" stroke="#fffdf7" stroke-width="1.4" />
<circle cx="1102.3" cy="610.6" r="4.4" fill="#3a5a40" stroke="#fffdf7" stroke-width="1.4" />
<path d="M 117.69 156.32 L 172.39 326.30 L 227.09 259.33 L 281.79 409.96 L 555.30 566.88 L 1102.31 291.96" fill="none" stroke="#6c757d" stroke-width="3.2" stroke-linecap="round" stroke-linejoin="round" />
<circle cx="117.7" cy="156.3" r="4.4" fill="#6c757d" stroke="#fffdf7" stroke-width="1.4" />
<circle cx="172.4" cy="326.3" r="4.4" fill="#6c757d" stroke="#fffdf7" stroke-width="1.4" />
<circle cx="227.1" cy="259.3" r="4.4" fill="#6c757d" stroke="#fffdf7" stroke-width="1.4" />
<circle cx="281.8" cy="410.0" r="4.4" fill="#6c757d" stroke="#fffdf7" stroke-width="1.4" />
<circle cx="555.3" cy="566.9" r="4.4" fill="#6c757d" stroke="#fffdf7" stroke-width="1.4" />
<circle cx="1102.3" cy="292.0" r="4.4" fill="#6c757d" stroke="#fffdf7" stroke-width="1.4" />
<path d="M 117.69 318.87 L 172.39 293.66 L 227.09 418.49 L 281.79 489.72 L 555.30 570.56 L 1102.31 452.40" fill="none" stroke="#7b2cbf" stroke-width="3.2" stroke-linecap="round" stroke-linejoin="round" />
<circle cx="117.7" cy="318.9" r="4.4" fill="#7b2cbf" stroke="#fffdf7" stroke-width="1.4" />
<circle cx="172.4" cy="293.7" r="4.4" fill="#7b2cbf" stroke="#fffdf7" stroke-width="1.4" />
<circle cx="227.1" cy="418.5" r="4.4" fill="#7b2cbf" stroke="#fffdf7" stroke-width="1.4" />
<circle cx="281.8" cy="489.7" r="4.4" fill="#7b2cbf" stroke="#fffdf7" stroke-width="1.4" />
<circle cx="555.3" cy="570.6" r="4.4" fill="#7b2cbf" stroke="#fffdf7" stroke-width="1.4" />
<circle cx="1102.3" cy="452.4" r="4.4" fill="#7b2cbf" stroke="#fffdf7" stroke-width="1.4" />
<line x1="932.0" y1="114.0" x2="956.0" y2="114.0" stroke="#ca6702" stroke-width="4" stroke-linecap="round" />
<text x="966.0" y="118.0" fill="#1f1d1a" font-size="13" font-family="Trebuchet MS, Arial, sans-serif">25 neurons</text>
<line x1="932.0" y1="138.0" x2="956.0" y2="138.0" stroke="#0b6e4f" stroke-width="4" stroke-linecap="round" />
<text x="966.0" y="142.0" fill="#1f1d1a" font-size="13" font-family="Trebuchet MS, Arial, sans-serif">50 neurons</text>
<line x1="932.0" y1="162.0" x2="956.0" y2="162.0" stroke="#b02e0c" stroke-width="4" stroke-linecap="round" />
<text x="966.0" y="166.0" fill="#1f1d1a" font-size="13" font-family="Trebuchet MS, Arial, sans-serif">75 neurons</text>
<line x1="932.0" y1="186.0" x2="956.0" y2="186.0" stroke="#5f0f40" stroke-width="4" stroke-linecap="round" />
<text x="966.0" y="190.0" fill="#1f1d1a" font-size="13" font-family="Trebuchet MS, Arial, sans-serif">100 neurons</text>
<line x1="932.0" y1="210.0" x2="956.0" y2="210.0" stroke="#3a5a40" stroke-width="4" stroke-linecap="round" />
<text x="966.0" y="214.0" fill="#1f1d1a" font-size="13" font-family="Trebuchet MS, Arial, sans-serif">125 neurons</text>
<line x1="932.0" y1="234.0" x2="956.0" y2="234.0" stroke="#6c757d" stroke-width="4" stroke-linecap="round" />
<text x="966.0" y="238.0" fill="#1f1d1a" font-size="13" font-family="Trebuchet MS, Arial, sans-serif">200 neurons</text>
<line x1="932.0" y1="258.0" x2="956.0" y2="258.0" stroke="#7b2cbf" stroke-width="4" stroke-linecap="round" />
<text x="966.0" y="262.0" fill="#1f1d1a" font-size="13" font-family="Trebuchet MS, Arial, sans-serif">350 neurons</text>
<text x="610.0" y="694.0" text-anchor="middle" fill="#1f1d1a" font-size="14" font-family="Trebuchet MS, Arial, sans-serif">Epoch Budget</text>
<text x="24" y="377.0" transform="rotate(-90 24 377.0)" text-anchor="middle" fill="#1f1d1a" font-size="14" font-family="Trebuchet MS, Arial, sans-serif">Test RMSE</text>
</svg>