<svg xmlns="http://www.w3.org/2000/svg" width="1180" height="720" viewBox="0 0 1180 720" role="img" aria-label="Test RMSE vs Epoch Budget">
<rect width="1180" height="720" fill="#f7f4ea" />
<rect x="28.0" y="24.0" width="1124.0" height="672.0" rx="18" fill="#fffdf7" stroke="#e6dec9" />
<text x="52.0" y="58.0" fill="#1f1d1a" font-size="22" font-weight="700" font-family="Georgia, serif">Test RMSE vs Epoch Budget</text>
<text x="52.0" y="82.0" fill="#6f6659" font-size="13" font-family="Trebuchet MS, Arial, sans-serif">Lower is better.</text>
<line x1="98.0" y1="662.2" x2="1122.0" y2="662.2" stroke="#d9d2bf" stroke-width="1" />
<text x="86.0" y="667.2" text-anchor="end" fill="#6f6659" font-size="12" font-family="Trebuchet MS, Arial, sans-serif">0</text>
<line x1="98.0" y1="568.0" x2="1122.0" y2="568.0" stroke="#d9d2bf" stroke-width="1" />
<text x="86.0" y="573.0" text-anchor="end" fill="#6f6659" font-size="12" font-family="Trebuchet MS, Arial, sans-serif">500k</text>
<line x1="98.0" y1="473.8" x2="1122.0" y2="473.8" stroke="#d9d2bf" stroke-width="1" />
<text x="86.0" y="478.8" text-anchor="end" fill="#6f6659" font-size="12" font-family="Trebuchet MS, Arial, sans-serif">1.0M</text>
<line x1="98.0" y1="379.5" x2="1122.0" y2="379.5" stroke="#d9d2bf" stroke-width="1" />
<text x="86.0" y="384.5" text-anchor="end" fill="#6f6659" font-size="12" font-family="Trebuchet MS, Arial, sans-serif">1.5M</text>
<line x1="98.0" y1="285.3" x2="1122.0" y2="285.3" stroke="#d9d2bf" stroke-width="1" />
<text x="86.0" y="290.3" text-anchor="end" fill="#6f6659" font-size="12" font-family="Trebuchet MS, Arial, sans-serif">2.0M</text>
<line x1="98.0" y1="191.1" x2="1122.0" y2="191.1" stroke="#d9d2bf" stroke-width="1" />
<text x="86.0" y="196.1" text-anchor="end" fill="#6f6659" font-size="12" font-family="Trebuchet MS, Arial, sans-serif">2.5M</text>
<line x1="98.0" y1="96.8" x2="1122.0" y2="96.8" stroke="#d9d2bf" stroke-width="1" />
<text x="86.0" y="101.8" text-anchor="end" fill="#6f6659" font-size="12" font-family="Trebuchet MS, Arial, sans-serif">3.0M</text>
<line x1="117.7" y1="106.0" x2="117.7" y2="648.0" stroke="#d9d2bf" stroke-width="1" />
<text x="117.7" y="670.0" text-anchor="middle" fill="#6f6659" font-size="12" font-family="Trebuchet MS, Arial, sans-serif">10</text>
<line x1="147.8" y1="106.0" x2="147.8" y2="648.0" stroke="#d9d2bf" stroke-width="1" />
<text x="147.8" y="670.0" text-anchor="middle" fill="#6f6659" font-size="12" font-family="Trebuchet MS, Arial, sans-serif">25</text>
<line x1="198.1" y1="106.0" x2="198.1" y2="648.0" stroke="#d9d2bf" stroke-width="1" />
<text x="198.1" y="670.0" text-anchor="middle" fill="#6f6659" font-size="12" font-family="Trebuchet MS, Arial, sans-serif">50</text>
<line x1="248.3" y1="106.0" x2="248.3" y2="648.0" stroke="#d9d2bf" stroke-width="1" />
<text x="248.3" y="670.0" text-anchor="middle" fill="#6f6659" font-size="12" font-family="Trebuchet MS, Arial, sans-serif">75</text>
<line x1="298.5" y1="106.0" x2="298.5" y2="648.0" stroke="#d9d2bf" stroke-width="1" />
<text x="298.5" y="670.0" text-anchor="middle" fill="#6f6659" font-size="12" font-family="Trebuchet MS, Arial, sans-serif">100</text>
<line x1="348.8" y1="106.0" x2="348.8" y2="648.0" stroke="#d9d2bf" stroke-width="1" />
<text x="348.8" y="670.0" text-anchor="middle" fill="#6f6659" font-size="12" font-family="Trebuchet MS, Arial, sans-serif">125</text>
<line x1="600.0" y1="106.0" x2="600.0" y2="648.0" stroke="#d9d2bf" stroke-width="1" />
<text x="600.0" y="670.0" text-anchor="middle" fill="#6f6659" font-size="12" font-family="Trebuchet MS, Arial, sans-serif">250</text>
<line x1="1102.3" y1="106.0" x2="1102.3" y2="648.0" stroke="#d9d2bf" stroke-width="1" />
<text x="1102.3" y="670.0" text-anchor="middle" fill="#6f6659" font-size="12" font-family="Trebuchet MS, Arial, sans-serif">500</text>
<line x1="98.0" y1="648.0" x2="1122.0" y2="648.0" stroke="#544b3d" stroke-width="1.6" />
<line x1="98.0" y1="106.0" x2="98.0" y2="648.0" stroke="#544b3d" stroke-width="1.6" />
<path d="M 117.69 143.38 L 147.83 593.55 L 198.07 588.46 L 248.30 605.63 L 298.54 599.68 L 348.78 605.38 L 599.95 605.96 L 1102.31 605.96" fill="none" stroke="#1b4965" stroke-width="3.2" stroke-linecap="round" stroke-linejoin="round" />
<circle cx="117.7" cy="143.4" r="4.4" fill="#1b4965" stroke="#fffdf7" stroke-width="1.4" />
<circle cx="147.8" cy="593.6" r="4.4" fill="#1b4965" stroke="#fffdf7" stroke-width="1.4" />
<circle cx="198.1" cy="588.5" r="4.4" fill="#1b4965" stroke="#fffdf7" stroke-width="1.4" />
<circle cx="248.3" cy="605.6" r="4.4" fill="#1b4965" stroke="#fffdf7" stroke-width="1.4" />
<circle cx="298.5" cy="599.7" r="4.4" fill="#1b4965" stroke="#fffdf7" stroke-width="1.4" />
<circle cx="348.8" cy="605.4" r="4.4" fill="#1b4965" stroke="#fffdf7" stroke-width="1.4" />
<circle cx="600.0" cy="606.0" r="4.4" fill="#1b4965" stroke="#fffdf7" stroke-width="1.4" />
<circle cx="1102.3" cy="606.0" r="4.4" fill="#1b4965" stroke="#fffdf7" stroke-width="1.4" />
<path d="M 117.69 363.57 L 147.83 597.16 L 198.07 601.45 L 248.30 605.24 L 298.54 602.33 L 348.78 604.26 L 599.95 601.58 L 1102.31 608.61" fill="none" stroke="#ca6702" stroke-width="3.2" stroke-linecap="round" stroke-linejoin="round" />
<circle cx="117.7" cy="363.6" r="4.4" fill="#ca6702" stroke="#fffdf7" stroke-width="1.4" />
<circle cx="147.8" cy="597.2" r="4.4" fill="#ca6702" stroke="#fffdf7" stroke-width="1.4" />
<circle cx="198.1" cy="601.5" r="4.4" fill="#ca6702" stroke="#fffdf7" stroke-width="1.4" />
<circle cx="248.3" cy="605.2" r="4.4" fill="#ca6702" stroke="#fffdf7" stroke-width="1.4" />
<circle cx="298.5" cy="602.3" r="4.4" fill="#ca6702" stroke="#fffdf7" stroke-width="1.4" />
<circle cx="348.8" cy="604.3" r="4.4" fill="#ca6702" stroke="#fffdf7" stroke-width="1.4" />
<circle cx="600.0" cy="601.6" r="4.4" fill="#ca6702" stroke="#fffdf7" stroke-width="1.4" />
<circle cx="1102.3" cy="608.6" r="4.4" fill="#ca6702" stroke="#fffdf7" stroke-width="1.4" />
<path d="M 117.69 506.38 L 147.83 570.54 L 198.07 604.49 L 248.30 603.40 L 298.54 608.84 L 348.78 603.48 L 599.95 604.99 L 1102.31 610.56" fill="none" stroke="#0b6e4f" stroke-width="3.2" stroke-linecap="round" stroke-linejoin="round" />
<circle cx="117.7" cy="506.4" r="4.4" fill="#0b6e4f" stroke="#fffdf7" stroke-width="1.4" />
<circle cx="147.8" cy="570.5" r="4.4" fill="#0b6e4f" stroke="#fffdf7" stroke-width="1.4" />
<circle cx="198.1" cy="604.5" r="4.4" fill="#0b6e4f" stroke="#fffdf7" stroke-width="1.4" />
<circle cx="248.3" cy="603.4" r="4.4" fill="#0b6e4f" stroke="#fffdf7" stroke-width="1.4" />
<circle cx="298.5" cy="608.8" r="4.4" fill="#0b6e4f" stroke="#fffdf7" stroke-width="1.4" />
<circle cx="348.8" cy="603.5" r="4.4" fill="#0b6e4f" stroke="#fffdf7" stroke-width="1.4" />
<circle cx="600.0" cy="605.0" r="4.4" fill="#0b6e4f" stroke="#fffdf7" stroke-width="1.4" />
<circle cx="1102.3" cy="610.6" r="4.4" fill="#0b6e4f" stroke="#fffdf7" stroke-width="1.4" />
<path d="M 117.69 576.53 L 147.83 579.63 L 198.07 604.30 L 248.30 606.08 L 298.54 608.63 L 348.78 608.32 L 599.95 608.90 L 1102.31 608.16" fill="none" stroke="#b02e0c" stroke-width="3.2" stroke-linecap="round" stroke-linejoin="round" />
<circle cx="117.7" cy="576.5" r="4.4" fill="#b02e0c" stroke="#fffdf7" stroke-width="1.4" />
<circle cx="147.8" cy="579.6" r="4.4" fill="#b02e0c" stroke="#fffdf7" stroke-width="1.4" />
<circle cx="198.1" cy="604.3" r="4.4" fill="#b02e0c" stroke="#fffdf7" stroke-width="1.4" />
<circle cx="248.3" cy="606.1" r="4.4" fill="#b02e0c" stroke="#fffdf7" stroke-width="1.4" />
<circle cx="298.5" cy="608.6" r="4.4" fill="#b02e0c" stroke="#fffdf7" stroke-width="1.4" />
<circle cx="348.8" cy="608.3" r="4.4" fill="#b02e0c" stroke="#fffdf7" stroke-width="1.4" />
<circle cx="600.0" cy="608.9" r="4.4" fill="#b02e0c" stroke="#fffdf7" stroke-width="1.4" />
<circle cx="1102.3" cy="608.2" r="4.4" fill="#b02e0c" stroke="#fffdf7" stroke-width="1.4" />
<path d="M 117.69 509.00 L 147.83 595.19 L 198.07 604.46 L 248.30 606.48 L 298.54 609.22 L 348.78 608.57 L 599.95 608.94 L 1102.31 609.83" fill="none" stroke="#5f0f40" stroke-width="3.2" stroke-linecap="round" stroke-linejoin="round" />
<circle cx="117.7" cy="509.0" r="4.4" fill="#5f0f40" stroke="#fffdf7" stroke-width="1.4" />
<circle cx="147.8" cy="595.2" r="4.4" fill="#5f0f40" stroke="#fffdf7" stroke-width="1.4" />
<circle cx="198.1" cy="604.5" r="4.4" fill="#5f0f40" stroke="#fffdf7" stroke-width="1.4" />
<circle cx="248.3" cy="606.5" r="4.4" fill="#5f0f40" stroke="#fffdf7" stroke-width="1.4" />
<circle cx="298.5" cy="609.2" r="4.4" fill="#5f0f40" stroke="#fffdf7" stroke-width="1.4" />
<circle cx="348.8" cy="608.6" r="4.4" fill="#5f0f40" stroke="#fffdf7" stroke-width="1.4" />
<circle cx="600.0" cy="608.9" r="4.4" fill="#5f0f40" stroke="#fffdf7" stroke-width="1.4" />
<circle cx="1102.3" cy="609.8" r="4.4" fill="#5f0f40" stroke="#fffdf7" stroke-width="1.4" />
<path d="M 117.69 522.35 L 147.83 564.64 L 198.07 604.62 L 248.30 604.82 L 298.54 606.14 L 348.78 604.75 L 599.95 609.93 L 1102.31 610.62" fill="none" stroke="#3a5a40" stroke-width="3.2" stroke-linecap="round" stroke-linejoin="round" />
<circle cx="117.7" cy="522.3" r="4.4" fill="#3a5a40" stroke="#fffdf7" stroke-width="1.4" />
<circle cx="147.8" cy="564.6" r="4.4" fill="#3a5a40" stroke="#fffdf7" stroke-width="1.4" />
<circle cx="198.1" cy="604.6" r="4.4" fill="#3a5a40" stroke="#fffdf7" stroke-width="1.4" />
<circle cx="248.3" cy="604.8" r="4.4" fill="#3a5a40" stroke="#fffdf7" stroke-width="1.4" />
<circle cx="298.5" cy="606.1" r="4.4" fill="#3a5a40" stroke="#fffdf7" stroke-width="1.4" />
<circle cx="348.8" cy="604.7" r="4.4" fill="#3a5a40" stroke="#fffdf7" stroke-width="1.4" />
<circle cx="600.0" cy="609.9" r="4.4" fill="#3a5a40" stroke="#fffdf7" stroke-width="1.4" />
<circle cx="1102.3" cy="610.6" r="4.4" fill="#3a5a40" stroke="#fffdf7" stroke-width="1.4" />
<path d="M 117.69 579.89 L 147.83 598.11 L 198.07 601.70 L 248.30 605.04 L 298.54 603.73 L 348.78 606.68 L 599.95 609.76 L 1102.31 604.37" fill="none" stroke="#6c757d" stroke-width="3.2" stroke-linecap="round" stroke-linejoin="round" />
<circle cx="117.7" cy="579.9" r="4.4" fill="#6c757d" stroke="#fffdf7" stroke-width="1.4" />
<circle cx="147.8" cy="598.1" r="4.4" fill="#6c757d" stroke="#fffdf7" stroke-width="1.4" />
<circle cx="198.1" cy="601.7" r="4.4" fill="#6c757d" stroke="#fffdf7" stroke-width="1.4" />
<circle cx="248.3" cy="605.0" r="4.4" fill="#6c757d" stroke="#fffdf7" stroke-width="1.4" />
<circle cx="298.5" cy="603.7" r="4.4" fill="#6c757d" stroke="#fffdf7" stroke-width="1.4" />
<circle cx="348.8" cy="606.7" r="4.4" fill="#6c757d" stroke="#fffdf7" stroke-width="1.4" />
<circle cx="600.0" cy="609.8" r="4.4" fill="#6c757d" stroke="#fffdf7" stroke-width="1.4" />
<circle cx="1102.3" cy="604.4" r="4.4" fill="#6c757d" stroke="#fffdf7" stroke-width="1.4" />
<path d="M 117.69 595.35 L 147.83 601.67 L 198.07 604.89 L 248.30 604.40 L 298.54 606.85 L 348.78 608.25 L 599.95 609.83 L 1102.31 607.52" fill="none" stroke="#7b2cbf" stroke-width="3.2" stroke-linecap="round" stroke-linejoin="round" />
<circle cx="117.7" cy="595.4" r="4.4" fill="#7b2cbf" stroke="#fffdf7" stroke-width="1.4" />
<circle cx="147.8" cy="601.7" r="4.4" fill="#7b2cbf" stroke="#fffdf7" stroke-width="1.4" />
<circle cx="198.1" cy="604.9" r="4.4" fill="#7b2cbf" stroke="#fffdf7" stroke-width="1.4" />
<circle cx="248.3" cy="604.4" r="4.4" fill="#7b2cbf" stroke="#fffdf7" stroke-width="1.4" />
<circle cx="298.5" cy="606.8" r="4.4" fill="#7b2cbf" stroke="#fffdf7" stroke-width="1.4" />
<circle cx="348.8" cy="608.2" r="4.4" fill="#7b2cbf" stroke="#fffdf7" stroke-width="1.4" />
<circle cx="600.0" cy="609.8" r="4.4" fill="#7b2cbf" stroke="#fffdf7" stroke-width="1.4" />
<circle cx="1102.3" cy="607.5" r="4.4" fill="#7b2cbf" stroke="#fffdf7" stroke-width="1.4" />
<line x1="932.0" y1="114.0" x2="956.0" y2="114.0" stroke="#1b4965" stroke-width="4" stroke-linecap="round" />
<text x="966.0" y="118.0" fill="#1f1d1a" font-size="13" font-family="Trebuchet MS, Arial, sans-serif">10 neurons</text>
<line x1="932.0" y1="138.0" x2="956.0" y2="138.0" stroke="#ca6702" stroke-width="4" stroke-linecap="round" />
<text x="966.0" y="142.0" fill="#1f1d1a" font-size="13" font-family="Trebuchet MS, Arial, sans-serif">25 neurons</text>
<line x1="932.0" y1="162.0" x2="956.0" y2="162.0" stroke="#0b6e4f" stroke-width="4" stroke-linecap="round" />
<text x="966.0" y="166.0" fill="#1f1d1a" font-size="13" font-family="Trebuchet MS, Arial, sans-serif">50 neurons</text>
<line x1="932.0" y1="186.0" x2="956.0" y2="186.0" stroke="#b02e0c" stroke-width="4" stroke-linecap="round" />
<text x="966.0" y="190.0" fill="#1f1d1a" font-size="13" font-family="Trebuchet MS, Arial, sans-serif">75 neurons</text>
<line x1="932.0" y1="210.0" x2="956.0" y2="210.0" stroke="#5f0f40" stroke-width="4" stroke-linecap="round" />
<text x="966.0" y="214.0" fill="#1f1d1a" font-size="13" font-family="Trebuchet MS, Arial, sans-serif">100 neurons</text>
<line x1="932.0" y1="234.0" x2="956.0" y2="234.0" stroke="#3a5a40" stroke-width="4" stroke-linecap="round" />
<text x="966.0" y="238.0" fill="#1f1d1a" font-size="13" font-family="Trebuchet MS, Arial, sans-serif">125 neurons</text>
<line x1="932.0" y1="258.0" x2="956.0" y2="258.0" stroke="#6c757d" stroke-width="4" stroke-linecap="round" />
<text x="966.0" y="262.0" fill="#1f1d1a" font-size="13" font-family="Trebuchet MS, Arial, sans-serif">200 neurons</text>
<line x1="932.0" y1="282.0" x2="956.0" y2="282.0" stroke="#7b2cbf" stroke-width="4" stroke-linecap="round" />
<text x="966.0" y="286.0" fill="#1f1d1a" font-size="13" font-family="Trebuchet MS, Arial, sans-serif">350 neurons</text>
<text x="610.0" y="694.0" text-anchor="middle" fill="#1f1d1a" font-size="14" font-family="Trebuchet MS, Arial, sans-serif">Epoch Budget</text>
<text x="24" y="377.0" transform="rotate(-90 24 377.0)" text-anchor="middle" fill="#1f1d1a" font-size="14" font-family="Trebuchet MS, Arial, sans-serif">Test RMSE</text>
</svg>