<svg xmlns="http://www.w3.org/2000/svg" width="1180" height="980" viewBox="0 0 1180 980" role="img" aria-label="Validation vs Test Metrics">
<rect width="1180" height="980" fill="#f7f4ea" />
<text x="42" y="46" fill="#1f1d1a" font-size="28" font-weight="700" font-family="Georgia, serif">Validation vs Test Metrics</text>
<rect x="42.0" y="76.0" width="1096.0" height="255.0" rx="18" fill="#fffdf7" stroke="#e6dec9" />
<text x="66.0" y="110.0" fill="#1f1d1a" font-size="22" font-weight="700" font-family="Georgia, serif">RMSE</text>
<line x1="112.0" y1="338.3" x2="1108.0" y2="338.3" stroke="#d9d2bf" stroke-width="1" />
<text x="102.0" y="342.3" text-anchor="end" fill="#6f6659" font-size="11" font-family="Trebuchet MS, Arial, sans-serif">150k</text>
<line x1="112.0" y1="281.1" x2="1108.0" y2="281.1" stroke="#d9d2bf" stroke-width="1" />
<text x="102.0" y="285.1" text-anchor="end" fill="#6f6659" font-size="11" font-family="Trebuchet MS, Arial, sans-serif">200k</text>
<line x1="112.0" y1="223.9" x2="1108.0" y2="223.9" stroke="#d9d2bf" stroke-width="1" />
<text x="102.0" y="227.9" text-anchor="end" fill="#6f6659" font-size="11" font-family="Trebuchet MS, Arial, sans-serif">250k</text>
<line x1="112.0" y1="166.7" x2="1108.0" y2="166.7" stroke="#d9d2bf" stroke-width="1" />
<text x="102.0" y="170.7" text-anchor="end" fill="#6f6659" font-size="11" font-family="Trebuchet MS, Arial, sans-serif">300k</text>
<line x1="112.0" y1="109.6" x2="1108.0" y2="109.6" stroke="#d9d2bf" stroke-width="1" />
<text x="102.0" y="113.6" text-anchor="end" fill="#6f6659" font-size="11" font-family="Trebuchet MS, Arial, sans-serif">350k</text>
<line x1="148.9" y1="142.0" x2="148.9" y2="283.0" stroke="#d9d2bf" stroke-width="1" />
<text x="148.9" y="301.0" text-anchor="middle" fill="#6f6659" font-size="11" font-family="Trebuchet MS, Arial, sans-serif">10</text>
<line x1="269.2" y1="142.0" x2="269.2" y2="283.0" stroke="#d9d2bf" stroke-width="1" />
<text x="269.2" y="301.0" text-anchor="middle" fill="#6f6659" font-size="11" font-family="Trebuchet MS, Arial, sans-serif">25</text>
<line x1="469.7" y1="142.0" x2="469.7" y2="283.0" stroke="#d9d2bf" stroke-width="1" />
<text x="469.7" y="301.0" text-anchor="middle" fill="#6f6659" font-size="11" font-family="Trebuchet MS, Arial, sans-serif">50</text>
<line x1="670.1" y1="142.0" x2="670.1" y2="283.0" stroke="#d9d2bf" stroke-width="1" />
<text x="670.1" y="301.0" text-anchor="middle" fill="#6f6659" font-size="11" font-family="Trebuchet MS, Arial, sans-serif">75</text>
<line x1="870.6" y1="142.0" x2="870.6" y2="283.0" stroke="#d9d2bf" stroke-width="1" />
<text x="870.6" y="301.0" text-anchor="middle" fill="#6f6659" font-size="11" font-family="Trebuchet MS, Arial, sans-serif">100</text>
<line x1="1071.1" y1="142.0" x2="1071.1" y2="283.0" stroke="#d9d2bf" stroke-width="1" />
<text x="1071.1" y="301.0" text-anchor="middle" fill="#6f6659" font-size="11" font-family="Trebuchet MS, Arial, sans-serif">125</text>
<path d="M 148.89 249.24 L 269.18 266.12 L 469.66 262.55 L 670.14 272.23 L 870.63 273.28 L 1071.11 269.25" fill="none" stroke="#355070" stroke-width="3.2" stroke-linecap="round" stroke-linejoin="round" />
<circle cx="148.9" cy="249.2" r="4.5" fill="#355070" stroke="#fffdf7" stroke-width="1.3" />
<circle cx="269.2" cy="266.1" r="4.5" fill="#355070" stroke="#fffdf7" stroke-width="1.3" />
<circle cx="469.7" cy="262.6" r="4.5" fill="#355070" stroke="#fffdf7" stroke-width="1.3" />
<circle cx="670.1" cy="272.2" r="4.5" fill="#355070" stroke="#fffdf7" stroke-width="1.3" />
<circle cx="870.6" cy="273.3" r="4.5" fill="#355070" stroke="#fffdf7" stroke-width="1.3" />
<circle cx="1071.1" cy="269.2" r="4.5" fill="#355070" stroke="#fffdf7" stroke-width="1.3" />
<path d="M 148.89 151.72 L 269.18 179.36 L 469.66 172.55 L 670.14 175.67 L 870.63 186.24 L 1071.11 174.60" fill="none" stroke="#c1121f" stroke-width="3.2" stroke-linecap="round" stroke-linejoin="round" />
<circle cx="148.9" cy="151.7" r="4.5" fill="#c1121f" stroke="#fffdf7" stroke-width="1.3" />
<circle cx="269.2" cy="179.4" r="4.5" fill="#c1121f" stroke="#fffdf7" stroke-width="1.3" />
<circle cx="469.7" cy="172.6" r="4.5" fill="#c1121f" stroke="#fffdf7" stroke-width="1.3" />
<circle cx="670.1" cy="175.7" r="4.5" fill="#c1121f" stroke="#fffdf7" stroke-width="1.3" />
<circle cx="870.6" cy="186.2" r="4.5" fill="#c1121f" stroke="#fffdf7" stroke-width="1.3" />
<circle cx="1071.1" cy="174.6" r="4.5" fill="#c1121f" stroke="#fffdf7" stroke-width="1.3" />
<line x1="928.0" y1="154.0" x2="952.0" y2="154.0" stroke="#355070" stroke-width="4" stroke-linecap="round" />
<text x="962.0" y="158.0" fill="#1f1d1a" font-size="12" font-family="Trebuchet MS, Arial, sans-serif">Validation</text>
<line x1="928.0" y1="176.0" x2="952.0" y2="176.0" stroke="#c1121f" stroke-width="4" stroke-linecap="round" />
<text x="962.0" y="180.0" fill="#1f1d1a" font-size="12" font-family="Trebuchet MS, Arial, sans-serif">Test</text>
<text x="610.0" y="321.0" text-anchor="middle" fill="#1f1d1a" font-size="12" font-family="Trebuchet MS, Arial, sans-serif">Neuron Count</text>
<rect x="42.0" y="357.0" width="1096.0" height="255.0" rx="18" fill="#fffdf7" stroke="#e6dec9" />
<text x="66.0" y="391.0" fill="#1f1d1a" font-size="22" font-weight="700" font-family="Georgia, serif">MAPE</text>
<line x1="112.0" y1="591.6" x2="1108.0" y2="591.6" stroke="#d9d2bf" stroke-width="1" />
<text x="102.0" y="595.6" text-anchor="end" fill="#6f6659" font-size="11" font-family="Trebuchet MS, Arial, sans-serif">0.15</text>
<line x1="112.0" y1="540.5" x2="1108.0" y2="540.5" stroke="#d9d2bf" stroke-width="1" />
<text x="102.0" y="544.5" text-anchor="end" fill="#6f6659" font-size="11" font-family="Trebuchet MS, Arial, sans-serif">0.2</text>
<line x1="112.0" y1="489.3" x2="1108.0" y2="489.3" stroke="#d9d2bf" stroke-width="1" />
<text x="102.0" y="493.3" text-anchor="end" fill="#6f6659" font-size="11" font-family="Trebuchet MS, Arial, sans-serif">0.25</text>
<line x1="112.0" y1="438.1" x2="1108.0" y2="438.1" stroke="#d9d2bf" stroke-width="1" />
<text x="102.0" y="442.1" text-anchor="end" fill="#6f6659" font-size="11" font-family="Trebuchet MS, Arial, sans-serif">0.3</text>
<line x1="112.0" y1="386.9" x2="1108.0" y2="386.9" stroke="#d9d2bf" stroke-width="1" />
<text x="102.0" y="390.9" text-anchor="end" fill="#6f6659" font-size="11" font-family="Trebuchet MS, Arial, sans-serif">0.35</text>
<line x1="148.9" y1="423.0" x2="148.9" y2="564.0" stroke="#d9d2bf" stroke-width="1" />
<text x="148.9" y="582.0" text-anchor="middle" fill="#6f6659" font-size="11" font-family="Trebuchet MS, Arial, sans-serif">10</text>
<line x1="269.2" y1="423.0" x2="269.2" y2="564.0" stroke="#d9d2bf" stroke-width="1" />
<text x="269.2" y="582.0" text-anchor="middle" fill="#6f6659" font-size="11" font-family="Trebuchet MS, Arial, sans-serif">25</text>
<line x1="469.7" y1="423.0" x2="469.7" y2="564.0" stroke="#d9d2bf" stroke-width="1" />
<text x="469.7" y="582.0" text-anchor="middle" fill="#6f6659" font-size="11" font-family="Trebuchet MS, Arial, sans-serif">50</text>
<line x1="670.1" y1="423.0" x2="670.1" y2="564.0" stroke="#d9d2bf" stroke-width="1" />
<text x="670.1" y="582.0" text-anchor="middle" fill="#6f6659" font-size="11" font-family="Trebuchet MS, Arial, sans-serif">75</text>
<line x1="870.6" y1="423.0" x2="870.6" y2="564.0" stroke="#d9d2bf" stroke-width="1" />
<text x="870.6" y="582.0" text-anchor="middle" fill="#6f6659" font-size="11" font-family="Trebuchet MS, Arial, sans-serif">100</text>
<line x1="1071.1" y1="423.0" x2="1071.1" y2="564.0" stroke="#d9d2bf" stroke-width="1" />
<text x="1071.1" y="582.0" text-anchor="middle" fill="#6f6659" font-size="11" font-family="Trebuchet MS, Arial, sans-serif">125</text>
<path d="M 148.89 534.39 L 269.18 542.47 L 469.66 533.71 L 670.14 554.28 L 870.63 551.18 L 1071.11 527.36" fill="none" stroke="#355070" stroke-width="3.2" stroke-linecap="round" stroke-linejoin="round" />
<circle cx="148.9" cy="534.4" r="4.5" fill="#355070" stroke="#fffdf7" stroke-width="1.3" />
<circle cx="269.2" cy="542.5" r="4.5" fill="#355070" stroke="#fffdf7" stroke-width="1.3" />
<circle cx="469.7" cy="533.7" r="4.5" fill="#355070" stroke="#fffdf7" stroke-width="1.3" />
<circle cx="670.1" cy="554.3" r="4.5" fill="#355070" stroke="#fffdf7" stroke-width="1.3" />
<circle cx="870.6" cy="551.2" r="4.5" fill="#355070" stroke="#fffdf7" stroke-width="1.3" />
<circle cx="1071.1" cy="527.4" r="4.5" fill="#355070" stroke="#fffdf7" stroke-width="1.3" />
<path d="M 148.89 498.68 L 269.18 514.73 L 469.66 495.98 L 670.14 479.69 L 870.63 509.24 L 1071.11 432.72" fill="none" stroke="#c1121f" stroke-width="3.2" stroke-linecap="round" stroke-linejoin="round" />
<circle cx="148.9" cy="498.7" r="4.5" fill="#c1121f" stroke="#fffdf7" stroke-width="1.3" />
<circle cx="269.2" cy="514.7" r="4.5" fill="#c1121f" stroke="#fffdf7" stroke-width="1.3" />
<circle cx="469.7" cy="496.0" r="4.5" fill="#c1121f" stroke="#fffdf7" stroke-width="1.3" />
<circle cx="670.1" cy="479.7" r="4.5" fill="#c1121f" stroke="#fffdf7" stroke-width="1.3" />
<circle cx="870.6" cy="509.2" r="4.5" fill="#c1121f" stroke="#fffdf7" stroke-width="1.3" />
<circle cx="1071.1" cy="432.7" r="4.5" fill="#c1121f" stroke="#fffdf7" stroke-width="1.3" />
<line x1="928.0" y1="435.0" x2="952.0" y2="435.0" stroke="#355070" stroke-width="4" stroke-linecap="round" />
<text x="962.0" y="439.0" fill="#1f1d1a" font-size="12" font-family="Trebuchet MS, Arial, sans-serif">Validation</text>
<line x1="928.0" y1="457.0" x2="952.0" y2="457.0" stroke="#c1121f" stroke-width="4" stroke-linecap="round" />
<text x="962.0" y="461.0" fill="#1f1d1a" font-size="12" font-family="Trebuchet MS, Arial, sans-serif">Test</text>
<text x="610.0" y="602.0" text-anchor="middle" fill="#1f1d1a" font-size="12" font-family="Trebuchet MS, Arial, sans-serif">Neuron Count</text>
<rect x="42.0" y="638.0" width="1096.0" height="255.0" rx="18" fill="#fffdf7" stroke="#e6dec9" />
<text x="66.0" y="672.0" fill="#1f1d1a" font-size="22" font-weight="700" font-family="Georgia, serif">R^2</text>
<line x1="112.0" y1="872.8" x2="1108.0" y2="872.8" stroke="#d9d2bf" stroke-width="1" />
<text x="102.0" y="876.8" text-anchor="end" fill="#6f6659" font-size="11" font-family="Trebuchet MS, Arial, sans-serif">0.55</text>
<line x1="112.0" y1="839.2" x2="1108.0" y2="839.2" stroke="#d9d2bf" stroke-width="1" />
<text x="102.0" y="843.2" text-anchor="end" fill="#6f6659" font-size="11" font-family="Trebuchet MS, Arial, sans-serif">0.6</text>
<line x1="112.0" y1="805.7" x2="1108.0" y2="805.7" stroke="#d9d2bf" stroke-width="1" />
<text x="102.0" y="809.7" text-anchor="end" fill="#6f6659" font-size="11" font-family="Trebuchet MS, Arial, sans-serif">0.65</text>
<line x1="112.0" y1="772.1" x2="1108.0" y2="772.1" stroke="#d9d2bf" stroke-width="1" />
<text x="102.0" y="776.1" text-anchor="end" fill="#6f6659" font-size="11" font-family="Trebuchet MS, Arial, sans-serif">0.7</text>
<line x1="112.0" y1="738.5" x2="1108.0" y2="738.5" stroke="#d9d2bf" stroke-width="1" />
<text x="102.0" y="742.5" text-anchor="end" fill="#6f6659" font-size="11" font-family="Trebuchet MS, Arial, sans-serif">0.75</text>
<line x1="112.0" y1="705.0" x2="1108.0" y2="705.0" stroke="#d9d2bf" stroke-width="1" />
<text x="102.0" y="709.0" text-anchor="end" fill="#6f6659" font-size="11" font-family="Trebuchet MS, Arial, sans-serif">0.8</text>
<line x1="112.0" y1="671.4" x2="1108.0" y2="671.4" stroke="#d9d2bf" stroke-width="1" />
<text x="102.0" y="675.4" text-anchor="end" fill="#6f6659" font-size="11" font-family="Trebuchet MS, Arial, sans-serif">0.85</text>
<line x1="148.9" y1="704.0" x2="148.9" y2="845.0" stroke="#d9d2bf" stroke-width="1" />
<text x="148.9" y="863.0" text-anchor="middle" fill="#6f6659" font-size="11" font-family="Trebuchet MS, Arial, sans-serif">10</text>
<line x1="269.2" y1="704.0" x2="269.2" y2="845.0" stroke="#d9d2bf" stroke-width="1" />
<text x="269.2" y="863.0" text-anchor="middle" fill="#6f6659" font-size="11" font-family="Trebuchet MS, Arial, sans-serif">25</text>
<line x1="469.7" y1="704.0" x2="469.7" y2="845.0" stroke="#d9d2bf" stroke-width="1" />
<text x="469.7" y="863.0" text-anchor="middle" fill="#6f6659" font-size="11" font-family="Trebuchet MS, Arial, sans-serif">50</text>
<line x1="670.1" y1="704.0" x2="670.1" y2="845.0" stroke="#d9d2bf" stroke-width="1" />
<text x="670.1" y="863.0" text-anchor="middle" fill="#6f6659" font-size="11" font-family="Trebuchet MS, Arial, sans-serif">75</text>
<line x1="870.6" y1="704.0" x2="870.6" y2="845.0" stroke="#d9d2bf" stroke-width="1" />
<text x="870.6" y="863.0" text-anchor="middle" fill="#6f6659" font-size="11" font-family="Trebuchet MS, Arial, sans-serif">100</text>
<line x1="1071.1" y1="704.0" x2="1071.1" y2="845.0" stroke="#d9d2bf" stroke-width="1" />
<text x="1071.1" y="863.0" text-anchor="middle" fill="#6f6659" font-size="11" font-family="Trebuchet MS, Arial, sans-serif">125</text>
<path d="M 148.89 744.25 L 269.18 722.51 L 469.66 726.98 L 670.14 714.99 L 870.63 713.72 L 1071.11 718.64" fill="none" stroke="#355070" stroke-width="3.2" stroke-linecap="round" stroke-linejoin="round" />
<circle cx="148.9" cy="744.2" r="4.5" fill="#355070" stroke="#fffdf7" stroke-width="1.3" />
<circle cx="269.2" cy="722.5" r="4.5" fill="#355070" stroke="#fffdf7" stroke-width="1.3" />
<circle cx="469.7" cy="727.0" r="4.5" fill="#355070" stroke="#fffdf7" stroke-width="1.3" />
<circle cx="670.1" cy="715.0" r="4.5" fill="#355070" stroke="#fffdf7" stroke-width="1.3" />
<circle cx="870.6" cy="713.7" r="4.5" fill="#355070" stroke="#fffdf7" stroke-width="1.3" />
<circle cx="1071.1" cy="718.6" r="4.5" fill="#355070" stroke="#fffdf7" stroke-width="1.3" />
<path d="M 148.89 835.28 L 269.18 796.03 L 469.66 805.40 L 670.14 801.08 L 870.63 786.75 L 1071.11 802.56" fill="none" stroke="#c1121f" stroke-width="3.2" stroke-linecap="round" stroke-linejoin="round" />
<circle cx="148.9" cy="835.3" r="4.5" fill="#c1121f" stroke="#fffdf7" stroke-width="1.3" />
<circle cx="269.2" cy="796.0" r="4.5" fill="#c1121f" stroke="#fffdf7" stroke-width="1.3" />
<circle cx="469.7" cy="805.4" r="4.5" fill="#c1121f" stroke="#fffdf7" stroke-width="1.3" />
<circle cx="670.1" cy="801.1" r="4.5" fill="#c1121f" stroke="#fffdf7" stroke-width="1.3" />
<circle cx="870.6" cy="786.7" r="4.5" fill="#c1121f" stroke="#fffdf7" stroke-width="1.3" />
<circle cx="1071.1" cy="802.6" r="4.5" fill="#c1121f" stroke="#fffdf7" stroke-width="1.3" />
<line x1="928.0" y1="716.0" x2="952.0" y2="716.0" stroke="#355070" stroke-width="4" stroke-linecap="round" />
<text x="962.0" y="720.0" fill="#1f1d1a" font-size="12" font-family="Trebuchet MS, Arial, sans-serif">Validation</text>
<line x1="928.0" y1="738.0" x2="952.0" y2="738.0" stroke="#c1121f" stroke-width="4" stroke-linecap="round" />
<text x="962.0" y="742.0" fill="#1f1d1a" font-size="12" font-family="Trebuchet MS, Arial, sans-serif">Test</text>
<text x="610.0" y="883.0" text-anchor="middle" fill="#1f1d1a" font-size="12" font-family="Trebuchet MS, Arial, sans-serif">Neuron Count</text>
</svg>