<svg xmlns="http://www.w3.org/2000/svg" width="1180" height="720" viewBox="0 0 1180 720" role="img" aria-label="Validation vs Test Metrics">
<rect width="1180" height="720" fill="#f7f4ea" />
<text x="42" y="46" fill="#1f1d1a" font-size="28" font-weight="700" font-family="Georgia, serif">Validation vs Test Metrics</text>
<text x="42" y="68" fill="#6f6659" font-size="13" font-family="Trebuchet MS, Arial, sans-serif">RMSE and MAPE: lower is better. R^2: higher is better.</text>
<rect x="42.0" y="76.0" width="1096.0" height="180.0" rx="18" fill="#fffdf7" stroke="#e6dec9" />
<text x="66.0" y="110.0" fill="#1f1d1a" font-size="22" font-weight="700" font-family="Georgia, serif">RMSE</text>
<line x1="112.0" y1="213.0" x2="1108.0" y2="213.0" stroke="#d9d2bf" stroke-width="1" />
<text x="102.0" y="217.0" text-anchor="end" fill="#6f6659" font-size="11" font-family="Trebuchet MS, Arial, sans-serif">180k</text>
<line x1="112.0" y1="201.8" x2="1108.0" y2="201.8" stroke="#d9d2bf" stroke-width="1" />
<text x="102.0" y="205.8" text-anchor="end" fill="#6f6659" font-size="11" font-family="Trebuchet MS, Arial, sans-serif">200k</text>
<line x1="112.0" y1="190.6" x2="1108.0" y2="190.6" stroke="#d9d2bf" stroke-width="1" />
<text x="102.0" y="194.6" text-anchor="end" fill="#6f6659" font-size="11" font-family="Trebuchet MS, Arial, sans-serif">220k</text>
<line x1="112.0" y1="179.4" x2="1108.0" y2="179.4" stroke="#d9d2bf" stroke-width="1" />
<text x="102.0" y="183.4" text-anchor="end" fill="#6f6659" font-size="11" font-family="Trebuchet MS, Arial, sans-serif">240k</text>
<line x1="112.0" y1="168.2" x2="1108.0" y2="168.2" stroke="#d9d2bf" stroke-width="1" />
<text x="102.0" y="172.2" text-anchor="end" fill="#6f6659" font-size="11" font-family="Trebuchet MS, Arial, sans-serif">260k</text>
<line x1="112.0" y1="157.0" x2="1108.0" y2="157.0" stroke="#d9d2bf" stroke-width="1" />
<text x="102.0" y="161.0" text-anchor="end" fill="#6f6659" font-size="11" font-family="Trebuchet MS, Arial, sans-serif">280k</text>
<line x1="112.0" y1="145.8" x2="1108.0" y2="145.8" stroke="#d9d2bf" stroke-width="1" />
<text x="102.0" y="149.8" text-anchor="end" fill="#6f6659" font-size="11" font-family="Trebuchet MS, Arial, sans-serif">300k</text>
<line x1="112.0" y1="134.5" x2="1108.0" y2="134.5" stroke="#d9d2bf" stroke-width="1" />
<text x="102.0" y="138.5" text-anchor="end" fill="#6f6659" font-size="11" font-family="Trebuchet MS, Arial, sans-serif">320k</text>
<line x1="148.9" y1="142.0" x2="148.9" y2="208.0" stroke="#d9d2bf" stroke-width="1" />
<text x="148.9" y="226.0" text-anchor="middle" fill="#6f6659" font-size="11" font-family="Trebuchet MS, Arial, sans-serif">10</text>
<line x1="189.6" y1="142.0" x2="189.6" y2="208.0" stroke="#d9d2bf" stroke-width="1" />
<text x="189.6" y="226.0" text-anchor="middle" fill="#6f6659" font-size="11" font-family="Trebuchet MS, Arial, sans-serif">25</text>
<line x1="257.4" y1="142.0" x2="257.4" y2="208.0" stroke="#d9d2bf" stroke-width="1" />
<text x="257.4" y="226.0" text-anchor="middle" fill="#6f6659" font-size="11" font-family="Trebuchet MS, Arial, sans-serif">50</text>
<line x1="325.2" y1="142.0" x2="325.2" y2="208.0" stroke="#d9d2bf" stroke-width="1" />
<text x="325.2" y="226.0" text-anchor="middle" fill="#6f6659" font-size="11" font-family="Trebuchet MS, Arial, sans-serif">75</text>
<line x1="393.0" y1="142.0" x2="393.0" y2="208.0" stroke="#d9d2bf" stroke-width="1" />
<text x="393.0" y="226.0" text-anchor="middle" fill="#6f6659" font-size="11" font-family="Trebuchet MS, Arial, sans-serif">100</text>
<line x1="460.8" y1="142.0" x2="460.8" y2="208.0" stroke="#d9d2bf" stroke-width="1" />
<text x="460.8" y="226.0" text-anchor="middle" fill="#6f6659" font-size="11" font-family="Trebuchet MS, Arial, sans-serif">125</text>
<line x1="664.2" y1="142.0" x2="664.2" y2="208.0" stroke="#d9d2bf" stroke-width="1" />
<text x="664.2" y="226.0" text-anchor="middle" fill="#6f6659" font-size="11" font-family="Trebuchet MS, Arial, sans-serif">200</text>
<line x1="1071.1" y1="142.0" x2="1071.1" y2="208.0" stroke="#d9d2bf" stroke-width="1" />
<text x="1071.1" y="226.0" text-anchor="middle" fill="#6f6659" font-size="11" font-family="Trebuchet MS, Arial, sans-serif">350</text>
<path d="M 148.89 187.64 L 189.58 197.04 L 257.39 201.74 L 325.20 201.60 L 393.01 202.00 L 460.82 203.45 L 664.25 201.42 L 1071.11 201.87" fill="none" stroke="#355070" stroke-width="3.2" stroke-linecap="round" stroke-linejoin="round" />
<circle cx="148.9" cy="187.6" r="4.5" fill="#355070" stroke="#fffdf7" stroke-width="1.3" />
<circle cx="189.6" cy="197.0" r="4.5" fill="#355070" stroke="#fffdf7" stroke-width="1.3" />
<circle cx="257.4" cy="201.7" r="4.5" fill="#355070" stroke="#fffdf7" stroke-width="1.3" />
<circle cx="325.2" cy="201.6" r="4.5" fill="#355070" stroke="#fffdf7" stroke-width="1.3" />
<circle cx="393.0" cy="202.0" r="4.5" fill="#355070" stroke="#fffdf7" stroke-width="1.3" />
<circle cx="460.8" cy="203.4" r="4.5" fill="#355070" stroke="#fffdf7" stroke-width="1.3" />
<circle cx="664.2" cy="201.4" r="4.5" fill="#355070" stroke="#fffdf7" stroke-width="1.3" />
<circle cx="1071.1" cy="201.9" r="4.5" fill="#355070" stroke="#fffdf7" stroke-width="1.3" />
<path d="M 148.89 146.55 L 189.58 154.44 L 257.39 160.23 L 325.20 155.29 L 393.01 158.06 L 460.82 160.41 L 664.25 157.86 L 1071.11 158.07" fill="none" stroke="#c1121f" stroke-width="3.2" stroke-linecap="round" stroke-linejoin="round" />
<circle cx="148.9" cy="146.6" r="4.5" fill="#c1121f" stroke="#fffdf7" stroke-width="1.3" />
<circle cx="189.6" cy="154.4" r="4.5" fill="#c1121f" stroke="#fffdf7" stroke-width="1.3" />
<circle cx="257.4" cy="160.2" r="4.5" fill="#c1121f" stroke="#fffdf7" stroke-width="1.3" />
<circle cx="325.2" cy="155.3" r="4.5" fill="#c1121f" stroke="#fffdf7" stroke-width="1.3" />
<circle cx="393.0" cy="158.1" r="4.5" fill="#c1121f" stroke="#fffdf7" stroke-width="1.3" />
<circle cx="460.8" cy="160.4" r="4.5" fill="#c1121f" stroke="#fffdf7" stroke-width="1.3" />
<circle cx="664.2" cy="157.9" r="4.5" fill="#c1121f" stroke="#fffdf7" stroke-width="1.3" />
<circle cx="1071.1" cy="158.1" r="4.5" fill="#c1121f" stroke="#fffdf7" stroke-width="1.3" />
<line x1="928.0" y1="154.0" x2="952.0" y2="154.0" stroke="#355070" stroke-width="4" stroke-linecap="round" />
<text x="962.0" y="158.0" fill="#1f1d1a" font-size="12" font-family="Trebuchet MS, Arial, sans-serif">Validation</text>
<line x1="928.0" y1="176.0" x2="952.0" y2="176.0" stroke="#c1121f" stroke-width="4" stroke-linecap="round" />
<text x="962.0" y="180.0" fill="#1f1d1a" font-size="12" font-family="Trebuchet MS, Arial, sans-serif">Test</text>
<text x="610.0" y="246.0" text-anchor="middle" fill="#1f1d1a" font-size="12" font-family="Trebuchet MS, Arial, sans-serif">Neuron Count</text>
<rect x="42.0" y="274.0" width="1096.0" height="180.0" rx="18" fill="#fffdf7" stroke="#e6dec9" />
<text x="66.0" y="308.0" fill="#1f1d1a" font-size="22" font-weight="700" font-family="Georgia, serif">MAPE</text>
<line x1="112.0" y1="413.3" x2="1108.0" y2="413.3" stroke="#d9d2bf" stroke-width="1" />
<text x="102.0" y="417.3" text-anchor="end" fill="#6f6659" font-size="11" font-family="Trebuchet MS, Arial, sans-serif">0.16</text>
<line x1="112.0" y1="399.7" x2="1108.0" y2="399.7" stroke="#d9d2bf" stroke-width="1" />
<text x="102.0" y="403.7" text-anchor="end" fill="#6f6659" font-size="11" font-family="Trebuchet MS, Arial, sans-serif">0.18</text>
<line x1="112.0" y1="386.2" x2="1108.0" y2="386.2" stroke="#d9d2bf" stroke-width="1" />
<text x="102.0" y="390.2" text-anchor="end" fill="#6f6659" font-size="11" font-family="Trebuchet MS, Arial, sans-serif">0.2</text>
<line x1="112.0" y1="372.7" x2="1108.0" y2="372.7" stroke="#d9d2bf" stroke-width="1" />
<text x="102.0" y="376.7" text-anchor="end" fill="#6f6659" font-size="11" font-family="Trebuchet MS, Arial, sans-serif">0.22</text>
<line x1="112.0" y1="359.2" x2="1108.0" y2="359.2" stroke="#d9d2bf" stroke-width="1" />
<text x="102.0" y="363.2" text-anchor="end" fill="#6f6659" font-size="11" font-family="Trebuchet MS, Arial, sans-serif">0.24</text>
<line x1="112.0" y1="345.6" x2="1108.0" y2="345.6" stroke="#d9d2bf" stroke-width="1" />
<text x="102.0" y="349.6" text-anchor="end" fill="#6f6659" font-size="11" font-family="Trebuchet MS, Arial, sans-serif">0.26</text>
<line x1="112.0" y1="332.1" x2="1108.0" y2="332.1" stroke="#d9d2bf" stroke-width="1" />
<text x="102.0" y="336.1" text-anchor="end" fill="#6f6659" font-size="11" font-family="Trebuchet MS, Arial, sans-serif">0.28</text>
<line x1="148.9" y1="340.0" x2="148.9" y2="406.0" stroke="#d9d2bf" stroke-width="1" />
<text x="148.9" y="424.0" text-anchor="middle" fill="#6f6659" font-size="11" font-family="Trebuchet MS, Arial, sans-serif">10</text>
<line x1="189.6" y1="340.0" x2="189.6" y2="406.0" stroke="#d9d2bf" stroke-width="1" />
<text x="189.6" y="424.0" text-anchor="middle" fill="#6f6659" font-size="11" font-family="Trebuchet MS, Arial, sans-serif">25</text>
<line x1="257.4" y1="340.0" x2="257.4" y2="406.0" stroke="#d9d2bf" stroke-width="1" />
<text x="257.4" y="424.0" text-anchor="middle" fill="#6f6659" font-size="11" font-family="Trebuchet MS, Arial, sans-serif">50</text>
<line x1="325.2" y1="340.0" x2="325.2" y2="406.0" stroke="#d9d2bf" stroke-width="1" />
<text x="325.2" y="424.0" text-anchor="middle" fill="#6f6659" font-size="11" font-family="Trebuchet MS, Arial, sans-serif">75</text>
<line x1="393.0" y1="340.0" x2="393.0" y2="406.0" stroke="#d9d2bf" stroke-width="1" />
<text x="393.0" y="424.0" text-anchor="middle" fill="#6f6659" font-size="11" font-family="Trebuchet MS, Arial, sans-serif">100</text>
<line x1="460.8" y1="340.0" x2="460.8" y2="406.0" stroke="#d9d2bf" stroke-width="1" />
<text x="460.8" y="424.0" text-anchor="middle" fill="#6f6659" font-size="11" font-family="Trebuchet MS, Arial, sans-serif">125</text>
<line x1="664.2" y1="340.0" x2="664.2" y2="406.0" stroke="#d9d2bf" stroke-width="1" />
<text x="664.2" y="424.0" text-anchor="middle" fill="#6f6659" font-size="11" font-family="Trebuchet MS, Arial, sans-serif">200</text>
<line x1="1071.1" y1="340.0" x2="1071.1" y2="406.0" stroke="#d9d2bf" stroke-width="1" />
<text x="1071.1" y="424.0" text-anchor="middle" fill="#6f6659" font-size="11" font-family="Trebuchet MS, Arial, sans-serif">350</text>
<path d="M 148.89 380.80 L 189.58 391.47 L 257.39 401.45 L 325.20 398.22 L 393.01 401.26 L 460.82 398.67 L 664.25 395.01 L 1071.11 393.25" fill="none" stroke="#355070" stroke-width="3.2" stroke-linecap="round" stroke-linejoin="round" />
<circle cx="148.9" cy="380.8" r="4.5" fill="#355070" stroke="#fffdf7" stroke-width="1.3" />
<circle cx="189.6" cy="391.5" r="4.5" fill="#355070" stroke="#fffdf7" stroke-width="1.3" />
<circle cx="257.4" cy="401.4" r="4.5" fill="#355070" stroke="#fffdf7" stroke-width="1.3" />
<circle cx="325.2" cy="398.2" r="4.5" fill="#355070" stroke="#fffdf7" stroke-width="1.3" />
<circle cx="393.0" cy="401.3" r="4.5" fill="#355070" stroke="#fffdf7" stroke-width="1.3" />
<circle cx="460.8" cy="398.7" r="4.5" fill="#355070" stroke="#fffdf7" stroke-width="1.3" />
<circle cx="664.2" cy="395.0" r="4.5" fill="#355070" stroke="#fffdf7" stroke-width="1.3" />
<circle cx="1071.1" cy="393.2" r="4.5" fill="#355070" stroke="#fffdf7" stroke-width="1.3" />
<path d="M 148.89 370.42 L 189.58 378.01 L 257.39 386.90 L 325.20 345.35 L 393.01 363.67 L 460.82 367.53 L 664.25 362.35 L 1071.11 344.55" fill="none" stroke="#c1121f" stroke-width="3.2" stroke-linecap="round" stroke-linejoin="round" />
<circle cx="148.9" cy="370.4" r="4.5" fill="#c1121f" stroke="#fffdf7" stroke-width="1.3" />
<circle cx="189.6" cy="378.0" r="4.5" fill="#c1121f" stroke="#fffdf7" stroke-width="1.3" />
<circle cx="257.4" cy="386.9" r="4.5" fill="#c1121f" stroke="#fffdf7" stroke-width="1.3" />
<circle cx="325.2" cy="345.4" r="4.5" fill="#c1121f" stroke="#fffdf7" stroke-width="1.3" />
<circle cx="393.0" cy="363.7" r="4.5" fill="#c1121f" stroke="#fffdf7" stroke-width="1.3" />
<circle cx="460.8" cy="367.5" r="4.5" fill="#c1121f" stroke="#fffdf7" stroke-width="1.3" />
<circle cx="664.2" cy="362.3" r="4.5" fill="#c1121f" stroke="#fffdf7" stroke-width="1.3" />
<circle cx="1071.1" cy="344.6" r="4.5" fill="#c1121f" stroke="#fffdf7" stroke-width="1.3" />
<line x1="928.0" y1="352.0" x2="952.0" y2="352.0" stroke="#355070" stroke-width="4" stroke-linecap="round" />
<text x="962.0" y="356.0" fill="#1f1d1a" font-size="12" font-family="Trebuchet MS, Arial, sans-serif">Validation</text>
<line x1="928.0" y1="374.0" x2="952.0" y2="374.0" stroke="#c1121f" stroke-width="4" stroke-linecap="round" />
<text x="962.0" y="378.0" fill="#1f1d1a" font-size="12" font-family="Trebuchet MS, Arial, sans-serif">Test</text>
<text x="610.0" y="444.0" text-anchor="middle" fill="#1f1d1a" font-size="12" font-family="Trebuchet MS, Arial, sans-serif">Neuron Count</text>
<rect x="42.0" y="472.0" width="1096.0" height="180.0" rx="18" fill="#fffdf7" stroke="#e6dec9" />
<text x="66.0" y="506.0" fill="#1f1d1a" font-size="22" font-weight="700" font-family="Georgia, serif">R^2</text>
<line x1="112.0" y1="613.8" x2="1108.0" y2="613.8" stroke="#d9d2bf" stroke-width="1" />
<text x="102.0" y="617.8" text-anchor="end" fill="#6f6659" font-size="11" font-family="Trebuchet MS, Arial, sans-serif">0.6</text>
<line x1="112.0" y1="596.6" x2="1108.0" y2="596.6" stroke="#d9d2bf" stroke-width="1" />
<text x="102.0" y="600.6" text-anchor="end" fill="#6f6659" font-size="11" font-family="Trebuchet MS, Arial, sans-serif">0.65</text>
<line x1="112.0" y1="579.3" x2="1108.0" y2="579.3" stroke="#d9d2bf" stroke-width="1" />
<text x="102.0" y="583.3" text-anchor="end" fill="#6f6659" font-size="11" font-family="Trebuchet MS, Arial, sans-serif">0.7</text>
<line x1="112.0" y1="562.1" x2="1108.0" y2="562.1" stroke="#d9d2bf" stroke-width="1" />
<text x="102.0" y="566.1" text-anchor="end" fill="#6f6659" font-size="11" font-family="Trebuchet MS, Arial, sans-serif">0.75</text>
<line x1="112.0" y1="544.8" x2="1108.0" y2="544.8" stroke="#d9d2bf" stroke-width="1" />
<text x="102.0" y="548.8" text-anchor="end" fill="#6f6659" font-size="11" font-family="Trebuchet MS, Arial, sans-serif">0.8</text>
<line x1="112.0" y1="527.6" x2="1108.0" y2="527.6" stroke="#d9d2bf" stroke-width="1" />
<text x="102.0" y="531.6" text-anchor="end" fill="#6f6659" font-size="11" font-family="Trebuchet MS, Arial, sans-serif">0.85</text>
<line x1="148.9" y1="538.0" x2="148.9" y2="604.0" stroke="#d9d2bf" stroke-width="1" />
<text x="148.9" y="622.0" text-anchor="middle" fill="#6f6659" font-size="11" font-family="Trebuchet MS, Arial, sans-serif">10</text>
<line x1="189.6" y1="538.0" x2="189.6" y2="604.0" stroke="#d9d2bf" stroke-width="1" />
<text x="189.6" y="622.0" text-anchor="middle" fill="#6f6659" font-size="11" font-family="Trebuchet MS, Arial, sans-serif">25</text>
<line x1="257.4" y1="538.0" x2="257.4" y2="604.0" stroke="#d9d2bf" stroke-width="1" />
<text x="257.4" y="622.0" text-anchor="middle" fill="#6f6659" font-size="11" font-family="Trebuchet MS, Arial, sans-serif">50</text>
<line x1="325.2" y1="538.0" x2="325.2" y2="604.0" stroke="#d9d2bf" stroke-width="1" />
<text x="325.2" y="622.0" text-anchor="middle" fill="#6f6659" font-size="11" font-family="Trebuchet MS, Arial, sans-serif">75</text>
<line x1="393.0" y1="538.0" x2="393.0" y2="604.0" stroke="#d9d2bf" stroke-width="1" />
<text x="393.0" y="622.0" text-anchor="middle" fill="#6f6659" font-size="11" font-family="Trebuchet MS, Arial, sans-serif">100</text>
<line x1="460.8" y1="538.0" x2="460.8" y2="604.0" stroke="#d9d2bf" stroke-width="1" />
<text x="460.8" y="622.0" text-anchor="middle" fill="#6f6659" font-size="11" font-family="Trebuchet MS, Arial, sans-serif">125</text>
<line x1="664.2" y1="538.0" x2="664.2" y2="604.0" stroke="#d9d2bf" stroke-width="1" />
<text x="664.2" y="622.0" text-anchor="middle" fill="#6f6659" font-size="11" font-family="Trebuchet MS, Arial, sans-serif">200</text>
<line x1="1071.1" y1="538.0" x2="1071.1" y2="604.0" stroke="#d9d2bf" stroke-width="1" />
<text x="1071.1" y="622.0" text-anchor="middle" fill="#6f6659" font-size="11" font-family="Trebuchet MS, Arial, sans-serif">350</text>
<path d="M 148.89 563.00 L 189.58 550.51 L 257.39 544.62 L 325.20 544.80 L 393.01 544.32 L 460.82 542.55 L 664.25 545.03 L 1071.11 544.47" fill="none" stroke="#355070" stroke-width="3.2" stroke-linecap="round" stroke-linejoin="round" />
<circle cx="148.9" cy="563.0" r="4.5" fill="#355070" stroke="#fffdf7" stroke-width="1.3" />
<circle cx="189.6" cy="550.5" r="4.5" fill="#355070" stroke="#fffdf7" stroke-width="1.3" />
<circle cx="257.4" cy="544.6" r="4.5" fill="#355070" stroke="#fffdf7" stroke-width="1.3" />
<circle cx="325.2" cy="544.8" r="4.5" fill="#355070" stroke="#fffdf7" stroke-width="1.3" />
<circle cx="393.0" cy="544.3" r="4.5" fill="#355070" stroke="#fffdf7" stroke-width="1.3" />
<circle cx="460.8" cy="542.6" r="4.5" fill="#355070" stroke="#fffdf7" stroke-width="1.3" />
<circle cx="664.2" cy="545.0" r="4.5" fill="#355070" stroke="#fffdf7" stroke-width="1.3" />
<circle cx="1071.1" cy="544.5" r="4.5" fill="#355070" stroke="#fffdf7" stroke-width="1.3" />
<path d="M 148.89 599.45 L 189.58 588.07 L 257.39 580.08 L 325.20 586.88 L 393.01 583.04 L 460.82 579.83 L 664.25 583.32 L 1071.11 583.02" fill="none" stroke="#c1121f" stroke-width="3.2" stroke-linecap="round" stroke-linejoin="round" />
<circle cx="148.9" cy="599.4" r="4.5" fill="#c1121f" stroke="#fffdf7" stroke-width="1.3" />
<circle cx="189.6" cy="588.1" r="4.5" fill="#c1121f" stroke="#fffdf7" stroke-width="1.3" />
<circle cx="257.4" cy="580.1" r="4.5" fill="#c1121f" stroke="#fffdf7" stroke-width="1.3" />
<circle cx="325.2" cy="586.9" r="4.5" fill="#c1121f" stroke="#fffdf7" stroke-width="1.3" />
<circle cx="393.0" cy="583.0" r="4.5" fill="#c1121f" stroke="#fffdf7" stroke-width="1.3" />
<circle cx="460.8" cy="579.8" r="4.5" fill="#c1121f" stroke="#fffdf7" stroke-width="1.3" />
<circle cx="664.2" cy="583.3" r="4.5" fill="#c1121f" stroke="#fffdf7" stroke-width="1.3" />
<circle cx="1071.1" cy="583.0" r="4.5" fill="#c1121f" stroke="#fffdf7" stroke-width="1.3" />
<line x1="928.0" y1="550.0" x2="952.0" y2="550.0" stroke="#355070" stroke-width="4" stroke-linecap="round" />
<text x="962.0" y="554.0" fill="#1f1d1a" font-size="12" font-family="Trebuchet MS, Arial, sans-serif">Validation</text>
<line x1="928.0" y1="572.0" x2="952.0" y2="572.0" stroke="#c1121f" stroke-width="4" stroke-linecap="round" />
<text x="962.0" y="576.0" fill="#1f1d1a" font-size="12" font-family="Trebuchet MS, Arial, sans-serif">Test</text>
<text x="610.0" y="642.0" text-anchor="middle" fill="#1f1d1a" font-size="12" font-family="Trebuchet MS, Arial, sans-serif">Neuron Count</text>
</svg>