<svg xmlns="http://www.w3.org/2000/svg" width="1180" height="980" viewBox="0 0 1180 980" role="img" aria-label="Validation vs Test Metrics">
<rect width="1180" height="980" fill="#f7f4ea" />
<text x="42" y="46" fill="#1f1d1a" font-size="28" font-weight="700" font-family="Georgia, serif">Validation vs Test Metrics</text>
<text x="42" y="68" fill="#6f6659" font-size="13" font-family="Trebuchet MS, Arial, sans-serif">RMSE and MAPE: lower is better. R^2: higher is better.</text>
<rect x="42.0" y="76.0" width="1096.0" height="255.0" rx="18" fill="#fffdf7" stroke="#e6dec9" />
<text x="66.0" y="110.0" fill="#1f1d1a" font-size="22" font-weight="700" font-family="Georgia, serif">RMSE</text>
<line x1="112.0" y1="293.7" x2="1108.0" y2="293.7" stroke="#d9d2bf" stroke-width="1" />
<text x="102.0" y="297.7" text-anchor="end" fill="#6f6659" font-size="11" font-family="Trebuchet MS, Arial, sans-serif">180k</text>
<line x1="112.0" y1="269.8" x2="1108.0" y2="269.8" stroke="#d9d2bf" stroke-width="1" />
<text x="102.0" y="273.8" text-anchor="end" fill="#6f6659" font-size="11" font-family="Trebuchet MS, Arial, sans-serif">200k</text>
<line x1="112.0" y1="245.8" x2="1108.0" y2="245.8" stroke="#d9d2bf" stroke-width="1" />
<text x="102.0" y="249.8" text-anchor="end" fill="#6f6659" font-size="11" font-family="Trebuchet MS, Arial, sans-serif">220k</text>
<line x1="112.0" y1="221.9" x2="1108.0" y2="221.9" stroke="#d9d2bf" stroke-width="1" />
<text x="102.0" y="225.9" text-anchor="end" fill="#6f6659" font-size="11" font-family="Trebuchet MS, Arial, sans-serif">240k</text>
<line x1="112.0" y1="197.9" x2="1108.0" y2="197.9" stroke="#d9d2bf" stroke-width="1" />
<text x="102.0" y="201.9" text-anchor="end" fill="#6f6659" font-size="11" font-family="Trebuchet MS, Arial, sans-serif">260k</text>
<line x1="112.0" y1="174.0" x2="1108.0" y2="174.0" stroke="#d9d2bf" stroke-width="1" />
<text x="102.0" y="178.0" text-anchor="end" fill="#6f6659" font-size="11" font-family="Trebuchet MS, Arial, sans-serif">280k</text>
<line x1="112.0" y1="150.0" x2="1108.0" y2="150.0" stroke="#d9d2bf" stroke-width="1" />
<text x="102.0" y="154.0" text-anchor="end" fill="#6f6659" font-size="11" font-family="Trebuchet MS, Arial, sans-serif">300k</text>
<line x1="112.0" y1="126.1" x2="1108.0" y2="126.1" stroke="#d9d2bf" stroke-width="1" />
<text x="102.0" y="130.1" text-anchor="end" fill="#6f6659" font-size="11" font-family="Trebuchet MS, Arial, sans-serif">320k</text>
<line x1="148.9" y1="142.0" x2="148.9" y2="283.0" stroke="#d9d2bf" stroke-width="1" />
<text x="148.9" y="301.0" text-anchor="middle" fill="#6f6659" font-size="11" font-family="Trebuchet MS, Arial, sans-serif">10</text>
<line x1="189.6" y1="142.0" x2="189.6" y2="283.0" stroke="#d9d2bf" stroke-width="1" />
<text x="189.6" y="301.0" text-anchor="middle" fill="#6f6659" font-size="11" font-family="Trebuchet MS, Arial, sans-serif">25</text>
<line x1="257.4" y1="142.0" x2="257.4" y2="283.0" stroke="#d9d2bf" stroke-width="1" />
<text x="257.4" y="301.0" text-anchor="middle" fill="#6f6659" font-size="11" font-family="Trebuchet MS, Arial, sans-serif">50</text>
<line x1="325.2" y1="142.0" x2="325.2" y2="283.0" stroke="#d9d2bf" stroke-width="1" />
<text x="325.2" y="301.0" text-anchor="middle" fill="#6f6659" font-size="11" font-family="Trebuchet MS, Arial, sans-serif">75</text>
<line x1="393.0" y1="142.0" x2="393.0" y2="283.0" stroke="#d9d2bf" stroke-width="1" />
<text x="393.0" y="301.0" text-anchor="middle" fill="#6f6659" font-size="11" font-family="Trebuchet MS, Arial, sans-serif">100</text>
<line x1="460.8" y1="142.0" x2="460.8" y2="283.0" stroke="#d9d2bf" stroke-width="1" />
<text x="460.8" y="301.0" text-anchor="middle" fill="#6f6659" font-size="11" font-family="Trebuchet MS, Arial, sans-serif">125</text>
<line x1="664.2" y1="142.0" x2="664.2" y2="283.0" stroke="#d9d2bf" stroke-width="1" />
<text x="664.2" y="301.0" text-anchor="middle" fill="#6f6659" font-size="11" font-family="Trebuchet MS, Arial, sans-serif">200</text>
<line x1="1071.1" y1="142.0" x2="1071.1" y2="283.0" stroke="#d9d2bf" stroke-width="1" />
<text x="1071.1" y="301.0" text-anchor="middle" fill="#6f6659" font-size="11" font-family="Trebuchet MS, Arial, sans-serif">350</text>
<path d="M 148.89 239.51 L 189.58 259.59 L 257.39 269.64 L 325.20 269.32 L 393.01 270.17 L 460.82 273.28 L 664.25 268.93 L 1071.11 269.91" fill="none" stroke="#355070" stroke-width="3.2" stroke-linecap="round" stroke-linejoin="round" />
<circle cx="148.9" cy="239.5" r="4.5" fill="#355070" stroke="#fffdf7" stroke-width="1.3" />
<circle cx="189.6" cy="259.6" r="4.5" fill="#355070" stroke="#fffdf7" stroke-width="1.3" />
<circle cx="257.4" cy="269.6" r="4.5" fill="#355070" stroke="#fffdf7" stroke-width="1.3" />
<circle cx="325.2" cy="269.3" r="4.5" fill="#355070" stroke="#fffdf7" stroke-width="1.3" />
<circle cx="393.0" cy="270.2" r="4.5" fill="#355070" stroke="#fffdf7" stroke-width="1.3" />
<circle cx="460.8" cy="273.3" r="4.5" fill="#355070" stroke="#fffdf7" stroke-width="1.3" />
<circle cx="664.2" cy="268.9" r="4.5" fill="#355070" stroke="#fffdf7" stroke-width="1.3" />
<circle cx="1071.1" cy="269.9" r="4.5" fill="#355070" stroke="#fffdf7" stroke-width="1.3" />
<path d="M 148.89 151.72 L 189.58 168.58 L 257.39 180.94 L 325.20 170.39 L 393.01 176.30 L 460.82 181.33 L 664.25 175.88 L 1071.11 176.33" fill="none" stroke="#c1121f" stroke-width="3.2" stroke-linecap="round" stroke-linejoin="round" />
<circle cx="148.9" cy="151.7" r="4.5" fill="#c1121f" stroke="#fffdf7" stroke-width="1.3" />
<circle cx="189.6" cy="168.6" r="4.5" fill="#c1121f" stroke="#fffdf7" stroke-width="1.3" />
<circle cx="257.4" cy="180.9" r="4.5" fill="#c1121f" stroke="#fffdf7" stroke-width="1.3" />
<circle cx="325.2" cy="170.4" r="4.5" fill="#c1121f" stroke="#fffdf7" stroke-width="1.3" />
<circle cx="393.0" cy="176.3" r="4.5" fill="#c1121f" stroke="#fffdf7" stroke-width="1.3" />
<circle cx="460.8" cy="181.3" r="4.5" fill="#c1121f" stroke="#fffdf7" stroke-width="1.3" />
<circle cx="664.2" cy="175.9" r="4.5" fill="#c1121f" stroke="#fffdf7" stroke-width="1.3" />
<circle cx="1071.1" cy="176.3" r="4.5" fill="#c1121f" stroke="#fffdf7" stroke-width="1.3" />
<line x1="928.0" y1="154.0" x2="952.0" y2="154.0" stroke="#355070" stroke-width="4" stroke-linecap="round" />
<text x="962.0" y="158.0" fill="#1f1d1a" font-size="12" font-family="Trebuchet MS, Arial, sans-serif">Validation</text>
<line x1="928.0" y1="176.0" x2="952.0" y2="176.0" stroke="#c1121f" stroke-width="4" stroke-linecap="round" />
<text x="962.0" y="180.0" fill="#1f1d1a" font-size="12" font-family="Trebuchet MS, Arial, sans-serif">Test</text>
<text x="610.0" y="321.0" text-anchor="middle" fill="#1f1d1a" font-size="12" font-family="Trebuchet MS, Arial, sans-serif">Neuron Count</text>
<rect x="42.0" y="357.0" width="1096.0" height="255.0" rx="18" fill="#fffdf7" stroke="#e6dec9" />
<text x="66.0" y="391.0" fill="#1f1d1a" font-size="22" font-weight="700" font-family="Georgia, serif">MAPE</text>
<line x1="112.0" y1="579.5" x2="1108.0" y2="579.5" stroke="#d9d2bf" stroke-width="1" />
<text x="102.0" y="583.5" text-anchor="end" fill="#6f6659" font-size="11" font-family="Trebuchet MS, Arial, sans-serif">0.16</text>
<line x1="112.0" y1="550.6" x2="1108.0" y2="550.6" stroke="#d9d2bf" stroke-width="1" />
<text x="102.0" y="554.6" text-anchor="end" fill="#6f6659" font-size="11" font-family="Trebuchet MS, Arial, sans-serif">0.18</text>
<line x1="112.0" y1="521.7" x2="1108.0" y2="521.7" stroke="#d9d2bf" stroke-width="1" />
<text x="102.0" y="525.7" text-anchor="end" fill="#6f6659" font-size="11" font-family="Trebuchet MS, Arial, sans-serif">0.2</text>
<line x1="112.0" y1="492.8" x2="1108.0" y2="492.8" stroke="#d9d2bf" stroke-width="1" />
<text x="102.0" y="496.8" text-anchor="end" fill="#6f6659" font-size="11" font-family="Trebuchet MS, Arial, sans-serif">0.22</text>
<line x1="112.0" y1="463.9" x2="1108.0" y2="463.9" stroke="#d9d2bf" stroke-width="1" />
<text x="102.0" y="467.9" text-anchor="end" fill="#6f6659" font-size="11" font-family="Trebuchet MS, Arial, sans-serif">0.24</text>
<line x1="112.0" y1="435.0" x2="1108.0" y2="435.0" stroke="#d9d2bf" stroke-width="1" />
<text x="102.0" y="439.0" text-anchor="end" fill="#6f6659" font-size="11" font-family="Trebuchet MS, Arial, sans-serif">0.26</text>
<line x1="112.0" y1="406.1" x2="1108.0" y2="406.1" stroke="#d9d2bf" stroke-width="1" />
<text x="102.0" y="410.1" text-anchor="end" fill="#6f6659" font-size="11" font-family="Trebuchet MS, Arial, sans-serif">0.28</text>
<line x1="148.9" y1="423.0" x2="148.9" y2="564.0" stroke="#d9d2bf" stroke-width="1" />
<text x="148.9" y="582.0" text-anchor="middle" fill="#6f6659" font-size="11" font-family="Trebuchet MS, Arial, sans-serif">10</text>
<line x1="189.6" y1="423.0" x2="189.6" y2="564.0" stroke="#d9d2bf" stroke-width="1" />
<text x="189.6" y="582.0" text-anchor="middle" fill="#6f6659" font-size="11" font-family="Trebuchet MS, Arial, sans-serif">25</text>
<line x1="257.4" y1="423.0" x2="257.4" y2="564.0" stroke="#d9d2bf" stroke-width="1" />
<text x="257.4" y="582.0" text-anchor="middle" fill="#6f6659" font-size="11" font-family="Trebuchet MS, Arial, sans-serif">50</text>
<line x1="325.2" y1="423.0" x2="325.2" y2="564.0" stroke="#d9d2bf" stroke-width="1" />
<text x="325.2" y="582.0" text-anchor="middle" fill="#6f6659" font-size="11" font-family="Trebuchet MS, Arial, sans-serif">75</text>
<line x1="393.0" y1="423.0" x2="393.0" y2="564.0" stroke="#d9d2bf" stroke-width="1" />
<text x="393.0" y="582.0" text-anchor="middle" fill="#6f6659" font-size="11" font-family="Trebuchet MS, Arial, sans-serif">100</text>
<line x1="460.8" y1="423.0" x2="460.8" y2="564.0" stroke="#d9d2bf" stroke-width="1" />
<text x="460.8" y="582.0" text-anchor="middle" fill="#6f6659" font-size="11" font-family="Trebuchet MS, Arial, sans-serif">125</text>
<line x1="664.2" y1="423.0" x2="664.2" y2="564.0" stroke="#d9d2bf" stroke-width="1" />
<text x="664.2" y="582.0" text-anchor="middle" fill="#6f6659" font-size="11" font-family="Trebuchet MS, Arial, sans-serif">200</text>
<line x1="1071.1" y1="423.0" x2="1071.1" y2="564.0" stroke="#d9d2bf" stroke-width="1" />
<text x="1071.1" y="582.0" text-anchor="middle" fill="#6f6659" font-size="11" font-family="Trebuchet MS, Arial, sans-serif">350</text>
<path d="M 148.89 510.16 L 189.58 532.95 L 257.39 554.28 L 325.20 547.39 L 393.01 553.88 L 460.82 548.33 L 664.25 540.52 L 1071.11 536.76" fill="none" stroke="#355070" stroke-width="3.2" stroke-linecap="round" stroke-linejoin="round" />
<circle cx="148.9" cy="510.2" r="4.5" fill="#355070" stroke="#fffdf7" stroke-width="1.3" />
<circle cx="189.6" cy="533.0" r="4.5" fill="#355070" stroke="#fffdf7" stroke-width="1.3" />
<circle cx="257.4" cy="554.3" r="4.5" fill="#355070" stroke="#fffdf7" stroke-width="1.3" />
<circle cx="325.2" cy="547.4" r="4.5" fill="#355070" stroke="#fffdf7" stroke-width="1.3" />
<circle cx="393.0" cy="553.9" r="4.5" fill="#355070" stroke="#fffdf7" stroke-width="1.3" />
<circle cx="460.8" cy="548.3" r="4.5" fill="#355070" stroke="#fffdf7" stroke-width="1.3" />
<circle cx="664.2" cy="540.5" r="4.5" fill="#355070" stroke="#fffdf7" stroke-width="1.3" />
<circle cx="1071.1" cy="536.8" r="4.5" fill="#355070" stroke="#fffdf7" stroke-width="1.3" />
<path d="M 148.89 487.98 L 189.58 504.21 L 257.39 523.19 L 325.20 434.44 L 393.01 473.56 L 460.82 481.81 L 664.25 470.74 L 1071.11 432.72" fill="none" stroke="#c1121f" stroke-width="3.2" stroke-linecap="round" stroke-linejoin="round" />
<circle cx="148.9" cy="488.0" r="4.5" fill="#c1121f" stroke="#fffdf7" stroke-width="1.3" />
<circle cx="189.6" cy="504.2" r="4.5" fill="#c1121f" stroke="#fffdf7" stroke-width="1.3" />
<circle cx="257.4" cy="523.2" r="4.5" fill="#c1121f" stroke="#fffdf7" stroke-width="1.3" />
<circle cx="325.2" cy="434.4" r="4.5" fill="#c1121f" stroke="#fffdf7" stroke-width="1.3" />
<circle cx="393.0" cy="473.6" r="4.5" fill="#c1121f" stroke="#fffdf7" stroke-width="1.3" />
<circle cx="460.8" cy="481.8" r="4.5" fill="#c1121f" stroke="#fffdf7" stroke-width="1.3" />
<circle cx="664.2" cy="470.7" r="4.5" fill="#c1121f" stroke="#fffdf7" stroke-width="1.3" />
<circle cx="1071.1" cy="432.7" r="4.5" fill="#c1121f" stroke="#fffdf7" stroke-width="1.3" />
<line x1="928.0" y1="435.0" x2="952.0" y2="435.0" stroke="#355070" stroke-width="4" stroke-linecap="round" />
<text x="962.0" y="439.0" fill="#1f1d1a" font-size="12" font-family="Trebuchet MS, Arial, sans-serif">Validation</text>
<line x1="928.0" y1="457.0" x2="952.0" y2="457.0" stroke="#c1121f" stroke-width="4" stroke-linecap="round" />
<text x="962.0" y="461.0" fill="#1f1d1a" font-size="12" font-family="Trebuchet MS, Arial, sans-serif">Test</text>
<text x="610.0" y="602.0" text-anchor="middle" fill="#1f1d1a" font-size="12" font-family="Trebuchet MS, Arial, sans-serif">Neuron Count</text>
<rect x="42.0" y="638.0" width="1096.0" height="255.0" rx="18" fill="#fffdf7" stroke="#e6dec9" />
<text x="66.0" y="672.0" fill="#1f1d1a" font-size="22" font-weight="700" font-family="Georgia, serif">R^2</text>
<line x1="112.0" y1="866.0" x2="1108.0" y2="866.0" stroke="#d9d2bf" stroke-width="1" />
<text x="102.0" y="870.0" text-anchor="end" fill="#6f6659" font-size="11" font-family="Trebuchet MS, Arial, sans-serif">0.6</text>
<line x1="112.0" y1="829.1" x2="1108.0" y2="829.1" stroke="#d9d2bf" stroke-width="1" />
<text x="102.0" y="833.1" text-anchor="end" fill="#6f6659" font-size="11" font-family="Trebuchet MS, Arial, sans-serif">0.65</text>
<line x1="112.0" y1="792.3" x2="1108.0" y2="792.3" stroke="#d9d2bf" stroke-width="1" />
<text x="102.0" y="796.3" text-anchor="end" fill="#6f6659" font-size="11" font-family="Trebuchet MS, Arial, sans-serif">0.7</text>
<line x1="112.0" y1="755.5" x2="1108.0" y2="755.5" stroke="#d9d2bf" stroke-width="1" />
<text x="102.0" y="759.5" text-anchor="end" fill="#6f6659" font-size="11" font-family="Trebuchet MS, Arial, sans-serif">0.75</text>
<line x1="112.0" y1="718.6" x2="1108.0" y2="718.6" stroke="#d9d2bf" stroke-width="1" />
<text x="102.0" y="722.6" text-anchor="end" fill="#6f6659" font-size="11" font-family="Trebuchet MS, Arial, sans-serif">0.8</text>
<line x1="112.0" y1="681.8" x2="1108.0" y2="681.8" stroke="#d9d2bf" stroke-width="1" />
<text x="102.0" y="685.8" text-anchor="end" fill="#6f6659" font-size="11" font-family="Trebuchet MS, Arial, sans-serif">0.85</text>
<line x1="148.9" y1="704.0" x2="148.9" y2="845.0" stroke="#d9d2bf" stroke-width="1" />
<text x="148.9" y="863.0" text-anchor="middle" fill="#6f6659" font-size="11" font-family="Trebuchet MS, Arial, sans-serif">10</text>
<line x1="189.6" y1="704.0" x2="189.6" y2="845.0" stroke="#d9d2bf" stroke-width="1" />
<text x="189.6" y="863.0" text-anchor="middle" fill="#6f6659" font-size="11" font-family="Trebuchet MS, Arial, sans-serif">25</text>
<line x1="257.4" y1="704.0" x2="257.4" y2="845.0" stroke="#d9d2bf" stroke-width="1" />
<text x="257.4" y="863.0" text-anchor="middle" fill="#6f6659" font-size="11" font-family="Trebuchet MS, Arial, sans-serif">50</text>
<line x1="325.2" y1="704.0" x2="325.2" y2="845.0" stroke="#d9d2bf" stroke-width="1" />
<text x="325.2" y="863.0" text-anchor="middle" fill="#6f6659" font-size="11" font-family="Trebuchet MS, Arial, sans-serif">75</text>
<line x1="393.0" y1="704.0" x2="393.0" y2="845.0" stroke="#d9d2bf" stroke-width="1" />
<text x="393.0" y="863.0" text-anchor="middle" fill="#6f6659" font-size="11" font-family="Trebuchet MS, Arial, sans-serif">100</text>
<line x1="460.8" y1="704.0" x2="460.8" y2="845.0" stroke="#d9d2bf" stroke-width="1" />
<text x="460.8" y="863.0" text-anchor="middle" fill="#6f6659" font-size="11" font-family="Trebuchet MS, Arial, sans-serif">125</text>
<line x1="664.2" y1="704.0" x2="664.2" y2="845.0" stroke="#d9d2bf" stroke-width="1" />
<text x="664.2" y="863.0" text-anchor="middle" fill="#6f6659" font-size="11" font-family="Trebuchet MS, Arial, sans-serif">200</text>
<line x1="1071.1" y1="704.0" x2="1071.1" y2="845.0" stroke="#d9d2bf" stroke-width="1" />
<text x="1071.1" y="863.0" text-anchor="middle" fill="#6f6659" font-size="11" font-family="Trebuchet MS, Arial, sans-serif">350</text>
<path d="M 148.89 757.41 L 189.58 730.73 L 257.39 718.15 L 325.20 718.53 L 393.01 717.49 L 460.82 713.72 L 664.25 719.01 L 1071.11 717.81" fill="none" stroke="#355070" stroke-width="3.2" stroke-linecap="round" stroke-linejoin="round" />
<circle cx="148.9" cy="757.4" r="4.5" fill="#355070" stroke="#fffdf7" stroke-width="1.3" />
<circle cx="189.6" cy="730.7" r="4.5" fill="#355070" stroke="#fffdf7" stroke-width="1.3" />
<circle cx="257.4" cy="718.2" r="4.5" fill="#355070" stroke="#fffdf7" stroke-width="1.3" />
<circle cx="325.2" cy="718.5" r="4.5" fill="#355070" stroke="#fffdf7" stroke-width="1.3" />
<circle cx="393.0" cy="717.5" r="4.5" fill="#355070" stroke="#fffdf7" stroke-width="1.3" />
<circle cx="460.8" cy="713.7" r="4.5" fill="#355070" stroke="#fffdf7" stroke-width="1.3" />
<circle cx="664.2" cy="719.0" r="4.5" fill="#355070" stroke="#fffdf7" stroke-width="1.3" />
<circle cx="1071.1" cy="717.8" r="4.5" fill="#355070" stroke="#fffdf7" stroke-width="1.3" />
<path d="M 148.89 835.28 L 189.58 810.97 L 257.39 793.90 L 325.20 808.42 L 393.01 800.23 L 460.82 793.36 L 664.25 800.82 L 1071.11 800.18" fill="none" stroke="#c1121f" stroke-width="3.2" stroke-linecap="round" stroke-linejoin="round" />
<circle cx="148.9" cy="835.3" r="4.5" fill="#c1121f" stroke="#fffdf7" stroke-width="1.3" />
<circle cx="189.6" cy="811.0" r="4.5" fill="#c1121f" stroke="#fffdf7" stroke-width="1.3" />
<circle cx="257.4" cy="793.9" r="4.5" fill="#c1121f" stroke="#fffdf7" stroke-width="1.3" />
<circle cx="325.2" cy="808.4" r="4.5" fill="#c1121f" stroke="#fffdf7" stroke-width="1.3" />
<circle cx="393.0" cy="800.2" r="4.5" fill="#c1121f" stroke="#fffdf7" stroke-width="1.3" />
<circle cx="460.8" cy="793.4" r="4.5" fill="#c1121f" stroke="#fffdf7" stroke-width="1.3" />
<circle cx="664.2" cy="800.8" r="4.5" fill="#c1121f" stroke="#fffdf7" stroke-width="1.3" />
<circle cx="1071.1" cy="800.2" r="4.5" fill="#c1121f" stroke="#fffdf7" stroke-width="1.3" />
<line x1="928.0" y1="716.0" x2="952.0" y2="716.0" stroke="#355070" stroke-width="4" stroke-linecap="round" />
<text x="962.0" y="720.0" fill="#1f1d1a" font-size="12" font-family="Trebuchet MS, Arial, sans-serif">Validation</text>
<line x1="928.0" y1="738.0" x2="952.0" y2="738.0" stroke="#c1121f" stroke-width="4" stroke-linecap="round" />
<text x="962.0" y="742.0" fill="#1f1d1a" font-size="12" font-family="Trebuchet MS, Arial, sans-serif">Test</text>
<text x="610.0" y="883.0" text-anchor="middle" fill="#1f1d1a" font-size="12" font-family="Trebuchet MS, Arial, sans-serif">Neuron Count</text>
</svg>