<svg xmlns="http://www.w3.org/2000/svg" width="1180" height="720" viewBox="0 0 1180 720" role="img" aria-label="Best Model Metrics by Configuration">
<rect width="1180" height="720" fill="#f7f4ea" />
<text x="42" y="46" fill="#1f1d1a" font-size="28" font-weight="700" font-family="Georgia, serif">Best Model Metrics by Configuration</text>
<text x="42" y="68" fill="#6f6659" font-size="13" font-family="Trebuchet MS, Arial, sans-serif">RMSE and training time: lower is better. R^2: higher is better.</text>
<rect x="42.0" y="76.0" width="1096.0" height="180.0" rx="18" fill="#fffdf7" stroke="#e6dec9" />
<text x="66.0" y="110.0" fill="#1f1d1a" font-size="22" font-weight="700" font-family="Georgia, serif">Best Test RMSE</text>
<line x1="112.0" y1="208.0" x2="1108.0" y2="208.0" stroke="#d9d2bf" stroke-width="1" />
<text x="102.0" y="212.0" text-anchor="end" fill="#6f6659" font-size="11" font-family="Trebuchet MS, Arial, sans-serif">275k</text>
<line x1="112.0" y1="188.9" x2="1108.0" y2="188.9" stroke="#d9d2bf" stroke-width="1" />
<text x="102.0" y="192.9" text-anchor="end" fill="#6f6659" font-size="11" font-family="Trebuchet MS, Arial, sans-serif">280k</text>
<line x1="112.0" y1="169.8" x2="1108.0" y2="169.8" stroke="#d9d2bf" stroke-width="1" />
<text x="102.0" y="173.8" text-anchor="end" fill="#6f6659" font-size="11" font-family="Trebuchet MS, Arial, sans-serif">285k</text>
<line x1="112.0" y1="150.7" x2="1108.0" y2="150.7" stroke="#d9d2bf" stroke-width="1" />
<text x="102.0" y="154.7" text-anchor="end" fill="#6f6659" font-size="11" font-family="Trebuchet MS, Arial, sans-serif">290k</text>
<line x1="112.0" y1="131.5" x2="1108.0" y2="131.5" stroke="#d9d2bf" stroke-width="1" />
<text x="102.0" y="135.5" text-anchor="end" fill="#6f6659" font-size="11" font-family="Trebuchet MS, Arial, sans-serif">295k</text>
<line x1="148.9" y1="142.0" x2="148.9" y2="208.0" stroke="#d9d2bf" stroke-width="1" />
<text x="148.9" y="226.0" text-anchor="middle" fill="#6f6659" font-size="11" font-family="Trebuchet MS, Arial, sans-serif">10/5</text>
<line x1="280.6" y1="142.0" x2="280.6" y2="208.0" stroke="#d9d2bf" stroke-width="1" />
<text x="280.6" y="226.0" text-anchor="middle" fill="#6f6659" font-size="11" font-family="Trebuchet MS, Arial, sans-serif">25/10</text>
<line x1="412.4" y1="142.0" x2="412.4" y2="208.0" stroke="#d9d2bf" stroke-width="1" />
<text x="412.4" y="226.0" text-anchor="middle" fill="#6f6659" font-size="11" font-family="Trebuchet MS, Arial, sans-serif">50/25</text>
<line x1="544.1" y1="142.0" x2="544.1" y2="208.0" stroke="#d9d2bf" stroke-width="1" />
<text x="544.1" y="226.0" text-anchor="middle" fill="#6f6659" font-size="11" font-family="Trebuchet MS, Arial, sans-serif">75/50</text>
<line x1="675.9" y1="142.0" x2="675.9" y2="208.0" stroke="#d9d2bf" stroke-width="1" />
<text x="675.9" y="226.0" text-anchor="middle" fill="#6f6659" font-size="11" font-family="Trebuchet MS, Arial, sans-serif">100/75</text>
<line x1="807.6" y1="142.0" x2="807.6" y2="208.0" stroke="#d9d2bf" stroke-width="1" />
<text x="807.6" y="226.0" text-anchor="middle" fill="#6f6659" font-size="11" font-family="Trebuchet MS, Arial, sans-serif">125/100</text>
<line x1="939.4" y1="142.0" x2="939.4" y2="208.0" stroke="#d9d2bf" stroke-width="1" />
<text x="939.4" y="226.0" text-anchor="middle" fill="#6f6659" font-size="11" font-family="Trebuchet MS, Arial, sans-serif">200/125</text>
<line x1="1071.1" y1="142.0" x2="1071.1" y2="208.0" stroke="#d9d2bf" stroke-width="1" />
<text x="1071.1" y="226.0" text-anchor="middle" fill="#6f6659" font-size="11" font-family="Trebuchet MS, Arial, sans-serif">350/200</text>
<path d="M 148.89 146.55 L 280.63 203.45 L 412.38 187.94 L 544.13 169.81 L 675.87 183.77 L 807.62 194.28 L 939.37 169.93 L 1071.11 167.90" fill="none" stroke="#264653" stroke-width="3.2" stroke-linecap="round" stroke-linejoin="round" />
<circle cx="148.9" cy="146.6" r="4.8" fill="#264653" stroke="#fffdf7" stroke-width="1.3" />
<text x="156.9" y="136.6" fill="#264653" font-size="10" font-family="Trebuchet MS, Arial, sans-serif">291k</text>
<circle cx="280.6" cy="203.4" r="4.8" fill="#264653" stroke="#fffdf7" stroke-width="1.3" />
<text x="288.6" y="193.4" fill="#264653" font-size="10" font-family="Trebuchet MS, Arial, sans-serif">276k</text>
<circle cx="412.4" cy="187.9" r="4.8" fill="#264653" stroke="#fffdf7" stroke-width="1.3" />
<text x="420.4" y="177.9" fill="#264653" font-size="10" font-family="Trebuchet MS, Arial, sans-serif">280k</text>
<circle cx="544.1" cy="169.8" r="4.8" fill="#264653" stroke="#fffdf7" stroke-width="1.3" />
<text x="552.1" y="159.8" fill="#264653" font-size="10" font-family="Trebuchet MS, Arial, sans-serif">285k</text>
<circle cx="675.9" cy="183.8" r="4.8" fill="#264653" stroke="#fffdf7" stroke-width="1.3" />
<text x="683.9" y="173.8" fill="#264653" font-size="10" font-family="Trebuchet MS, Arial, sans-serif">281k</text>
<circle cx="807.6" cy="194.3" r="4.8" fill="#264653" stroke="#fffdf7" stroke-width="1.3" />
<text x="815.6" y="184.3" fill="#264653" font-size="10" font-family="Trebuchet MS, Arial, sans-serif">279k</text>
<circle cx="939.4" cy="169.9" r="4.8" fill="#264653" stroke="#fffdf7" stroke-width="1.3" />
<text x="947.4" y="159.9" fill="#264653" font-size="10" font-family="Trebuchet MS, Arial, sans-serif">285k</text>
<circle cx="1071.1" cy="167.9" r="4.8" fill="#264653" stroke="#fffdf7" stroke-width="1.3" />
<text x="1079.1" y="157.9" fill="#264653" font-size="10" font-family="Trebuchet MS, Arial, sans-serif">285k</text>
<text x="610.0" y="246.0" text-anchor="middle" fill="#1f1d1a" font-size="12" font-family="Trebuchet MS, Arial, sans-serif">Layer 1 / Layer 2 Neurons</text>
<rect x="42.0" y="274.0" width="1096.0" height="180.0" rx="18" fill="#fffdf7" stroke="#e6dec9" />
<text x="66.0" y="308.0" fill="#1f1d1a" font-size="22" font-weight="700" font-family="Georgia, serif">Best Test R^2</text>
<line x1="112.0" y1="417.3" x2="1108.0" y2="417.3" stroke="#d9d2bf" stroke-width="1" />
<text x="102.0" y="421.3" text-anchor="end" fill="#6f6659" font-size="11" font-family="Trebuchet MS, Arial, sans-serif">0.65</text>
<line x1="112.0" y1="400.5" x2="1108.0" y2="400.5" stroke="#d9d2bf" stroke-width="1" />
<text x="102.0" y="404.5" text-anchor="end" fill="#6f6659" font-size="11" font-family="Trebuchet MS, Arial, sans-serif">0.66</text>
<line x1="112.0" y1="383.8" x2="1108.0" y2="383.8" stroke="#d9d2bf" stroke-width="1" />
<text x="102.0" y="387.8" text-anchor="end" fill="#6f6659" font-size="11" font-family="Trebuchet MS, Arial, sans-serif">0.67</text>
<line x1="112.0" y1="367.0" x2="1108.0" y2="367.0" stroke="#d9d2bf" stroke-width="1" />
<text x="102.0" y="371.0" text-anchor="end" fill="#6f6659" font-size="11" font-family="Trebuchet MS, Arial, sans-serif">0.68</text>
<line x1="112.0" y1="350.2" x2="1108.0" y2="350.2" stroke="#d9d2bf" stroke-width="1" />
<text x="102.0" y="354.2" text-anchor="end" fill="#6f6659" font-size="11" font-family="Trebuchet MS, Arial, sans-serif">0.69</text>
<line x1="112.0" y1="333.4" x2="1108.0" y2="333.4" stroke="#d9d2bf" stroke-width="1" />
<text x="102.0" y="337.4" text-anchor="end" fill="#6f6659" font-size="11" font-family="Trebuchet MS, Arial, sans-serif">0.7</text>
<line x1="148.9" y1="340.0" x2="148.9" y2="406.0" stroke="#d9d2bf" stroke-width="1" />
<text x="148.9" y="424.0" text-anchor="middle" fill="#6f6659" font-size="11" font-family="Trebuchet MS, Arial, sans-serif">10/5</text>
<line x1="280.6" y1="340.0" x2="280.6" y2="406.0" stroke="#d9d2bf" stroke-width="1" />
<text x="280.6" y="424.0" text-anchor="middle" fill="#6f6659" font-size="11" font-family="Trebuchet MS, Arial, sans-serif">25/10</text>
<line x1="412.4" y1="340.0" x2="412.4" y2="406.0" stroke="#d9d2bf" stroke-width="1" />
<text x="412.4" y="424.0" text-anchor="middle" fill="#6f6659" font-size="11" font-family="Trebuchet MS, Arial, sans-serif">50/25</text>
<line x1="544.1" y1="340.0" x2="544.1" y2="406.0" stroke="#d9d2bf" stroke-width="1" />
<text x="544.1" y="424.0" text-anchor="middle" fill="#6f6659" font-size="11" font-family="Trebuchet MS, Arial, sans-serif">75/50</text>
<line x1="675.9" y1="340.0" x2="675.9" y2="406.0" stroke="#d9d2bf" stroke-width="1" />
<text x="675.9" y="424.0" text-anchor="middle" fill="#6f6659" font-size="11" font-family="Trebuchet MS, Arial, sans-serif">100/75</text>
<line x1="807.6" y1="340.0" x2="807.6" y2="406.0" stroke="#d9d2bf" stroke-width="1" />
<text x="807.6" y="424.0" text-anchor="middle" fill="#6f6659" font-size="11" font-family="Trebuchet MS, Arial, sans-serif">125/100</text>
<line x1="939.4" y1="340.0" x2="939.4" y2="406.0" stroke="#d9d2bf" stroke-width="1" />
<text x="939.4" y="424.0" text-anchor="middle" fill="#6f6659" font-size="11" font-family="Trebuchet MS, Arial, sans-serif">200/125</text>
<line x1="1071.1" y1="340.0" x2="1071.1" y2="406.0" stroke="#d9d2bf" stroke-width="1" />
<text x="1071.1" y="424.0" text-anchor="middle" fill="#6f6659" font-size="11" font-family="Trebuchet MS, Arial, sans-serif">350/200</text>
<path d="M 148.89 401.45 L 280.63 344.55 L 412.38 359.77 L 544.13 377.83 L 675.87 363.90 L 807.62 353.52 L 939.37 377.71 L 1071.11 379.75" fill="none" stroke="#2a9d8f" stroke-width="3.2" stroke-linecap="round" stroke-linejoin="round" />
<circle cx="148.9" cy="401.4" r="4.8" fill="#2a9d8f" stroke="#fffdf7" stroke-width="1.3" />
<text x="156.9" y="391.4" fill="#2a9d8f" font-size="10" font-family="Trebuchet MS, Arial, sans-serif">0.659</text>
<circle cx="280.6" cy="344.6" r="4.8" fill="#2a9d8f" stroke="#fffdf7" stroke-width="1.3" />
<text x="288.6" y="334.6" fill="#2a9d8f" font-size="10" font-family="Trebuchet MS, Arial, sans-serif">0.693</text>
<circle cx="412.4" cy="359.8" r="4.8" fill="#2a9d8f" stroke="#fffdf7" stroke-width="1.3" />
<text x="420.4" y="349.8" fill="#2a9d8f" font-size="10" font-family="Trebuchet MS, Arial, sans-serif">0.684</text>
<circle cx="544.1" cy="377.8" r="4.8" fill="#2a9d8f" stroke="#fffdf7" stroke-width="1.3" />
<text x="552.1" y="367.8" fill="#2a9d8f" font-size="10" font-family="Trebuchet MS, Arial, sans-serif">0.674</text>
<circle cx="675.9" cy="363.9" r="4.8" fill="#2a9d8f" stroke="#fffdf7" stroke-width="1.3" />
<text x="683.9" y="353.9" fill="#2a9d8f" font-size="10" font-family="Trebuchet MS, Arial, sans-serif">0.682</text>
<circle cx="807.6" cy="353.5" r="4.8" fill="#2a9d8f" stroke="#fffdf7" stroke-width="1.3" />
<text x="815.6" y="343.5" fill="#2a9d8f" font-size="10" font-family="Trebuchet MS, Arial, sans-serif">0.688</text>
<circle cx="939.4" cy="377.7" r="4.8" fill="#2a9d8f" stroke="#fffdf7" stroke-width="1.3" />
<text x="947.4" y="367.7" fill="#2a9d8f" font-size="10" font-family="Trebuchet MS, Arial, sans-serif">0.674</text>
<circle cx="1071.1" cy="379.7" r="4.8" fill="#2a9d8f" stroke="#fffdf7" stroke-width="1.3" />
<text x="1079.1" y="369.7" fill="#2a9d8f" font-size="10" font-family="Trebuchet MS, Arial, sans-serif">0.672</text>
<text x="610.0" y="444.0" text-anchor="middle" fill="#1f1d1a" font-size="12" font-family="Trebuchet MS, Arial, sans-serif">Layer 1 / Layer 2 Neurons</text>
<rect x="42.0" y="472.0" width="1096.0" height="180.0" rx="18" fill="#fffdf7" stroke="#e6dec9" />
<text x="66.0" y="506.0" fill="#1f1d1a" font-size="22" font-weight="700" font-family="Georgia, serif">Best Training Time (sec)</text>
<line x1="112.0" y1="612.7" x2="1108.0" y2="612.7" stroke="#d9d2bf" stroke-width="1" />
<text x="102.0" y="616.7" text-anchor="end" fill="#6f6659" font-size="11" font-family="Trebuchet MS, Arial, sans-serif">0</text>
<line x1="112.0" y1="599.8" x2="1108.0" y2="599.8" stroke="#d9d2bf" stroke-width="1" />
<text x="102.0" y="603.8" text-anchor="end" fill="#6f6659" font-size="11" font-family="Trebuchet MS, Arial, sans-serif">100</text>
<line x1="112.0" y1="586.8" x2="1108.0" y2="586.8" stroke="#d9d2bf" stroke-width="1" />
<text x="102.0" y="590.8" text-anchor="end" fill="#6f6659" font-size="11" font-family="Trebuchet MS, Arial, sans-serif">200</text>
<line x1="112.0" y1="573.9" x2="1108.0" y2="573.9" stroke="#d9d2bf" stroke-width="1" />
<text x="102.0" y="577.9" text-anchor="end" fill="#6f6659" font-size="11" font-family="Trebuchet MS, Arial, sans-serif">300</text>
<line x1="112.0" y1="560.9" x2="1108.0" y2="560.9" stroke="#d9d2bf" stroke-width="1" />
<text x="102.0" y="564.9" text-anchor="end" fill="#6f6659" font-size="11" font-family="Trebuchet MS, Arial, sans-serif">400</text>
<line x1="112.0" y1="548.0" x2="1108.0" y2="548.0" stroke="#d9d2bf" stroke-width="1" />
<text x="102.0" y="552.0" text-anchor="end" fill="#6f6659" font-size="11" font-family="Trebuchet MS, Arial, sans-serif">500</text>
<line x1="112.0" y1="535.0" x2="1108.0" y2="535.0" stroke="#d9d2bf" stroke-width="1" />
<text x="102.0" y="539.0" text-anchor="end" fill="#6f6659" font-size="11" font-family="Trebuchet MS, Arial, sans-serif">600</text>
<line x1="148.9" y1="538.0" x2="148.9" y2="604.0" stroke="#d9d2bf" stroke-width="1" />
<text x="148.9" y="622.0" text-anchor="middle" fill="#6f6659" font-size="11" font-family="Trebuchet MS, Arial, sans-serif">10/5</text>
<line x1="280.6" y1="538.0" x2="280.6" y2="604.0" stroke="#d9d2bf" stroke-width="1" />
<text x="280.6" y="622.0" text-anchor="middle" fill="#6f6659" font-size="11" font-family="Trebuchet MS, Arial, sans-serif">25/10</text>
<line x1="412.4" y1="538.0" x2="412.4" y2="604.0" stroke="#d9d2bf" stroke-width="1" />
<text x="412.4" y="622.0" text-anchor="middle" fill="#6f6659" font-size="11" font-family="Trebuchet MS, Arial, sans-serif">50/25</text>
<line x1="544.1" y1="538.0" x2="544.1" y2="604.0" stroke="#d9d2bf" stroke-width="1" />
<text x="544.1" y="622.0" text-anchor="middle" fill="#6f6659" font-size="11" font-family="Trebuchet MS, Arial, sans-serif">75/50</text>
<line x1="675.9" y1="538.0" x2="675.9" y2="604.0" stroke="#d9d2bf" stroke-width="1" />
<text x="675.9" y="622.0" text-anchor="middle" fill="#6f6659" font-size="11" font-family="Trebuchet MS, Arial, sans-serif">100/75</text>
<line x1="807.6" y1="538.0" x2="807.6" y2="604.0" stroke="#d9d2bf" stroke-width="1" />
<text x="807.6" y="622.0" text-anchor="middle" fill="#6f6659" font-size="11" font-family="Trebuchet MS, Arial, sans-serif">125/100</text>
<line x1="939.4" y1="538.0" x2="939.4" y2="604.0" stroke="#d9d2bf" stroke-width="1" />
<text x="939.4" y="622.0" text-anchor="middle" fill="#6f6659" font-size="11" font-family="Trebuchet MS, Arial, sans-serif">200/125</text>
<line x1="1071.1" y1="538.0" x2="1071.1" y2="604.0" stroke="#d9d2bf" stroke-width="1" />
<text x="1071.1" y="622.0" text-anchor="middle" fill="#6f6659" font-size="11" font-family="Trebuchet MS, Arial, sans-serif">350/200</text>
<path d="M 148.89 554.04 L 280.63 553.94 L 412.38 552.34 L 544.13 580.59 L 675.87 547.08 L 807.62 549.65 L 939.37 599.45 L 1071.11 542.55" fill="none" stroke="#e76f51" stroke-width="3.2" stroke-linecap="round" stroke-linejoin="round" />
<circle cx="148.9" cy="554.0" r="4.8" fill="#e76f51" stroke="#fffdf7" stroke-width="1.3" />
<text x="156.9" y="544.0" fill="#e76f51" font-size="10" font-family="Trebuchet MS, Arial, sans-serif">453</text>
<circle cx="280.6" cy="553.9" r="4.8" fill="#e76f51" stroke="#fffdf7" stroke-width="1.3" />
<text x="288.6" y="543.9" fill="#e76f51" font-size="10" font-family="Trebuchet MS, Arial, sans-serif">454</text>
<circle cx="412.4" cy="552.3" r="4.8" fill="#e76f51" stroke="#fffdf7" stroke-width="1.3" />
<text x="420.4" y="542.3" fill="#e76f51" font-size="10" font-family="Trebuchet MS, Arial, sans-serif">466</text>
<circle cx="544.1" cy="580.6" r="4.8" fill="#e76f51" stroke="#fffdf7" stroke-width="1.3" />
<text x="552.1" y="570.6" fill="#e76f51" font-size="10" font-family="Trebuchet MS, Arial, sans-serif">248</text>
<circle cx="675.9" cy="547.1" r="4.8" fill="#e76f51" stroke="#fffdf7" stroke-width="1.3" />
<text x="683.9" y="537.1" fill="#e76f51" font-size="10" font-family="Trebuchet MS, Arial, sans-serif">507</text>
<circle cx="807.6" cy="549.6" r="4.8" fill="#e76f51" stroke="#fffdf7" stroke-width="1.3" />
<text x="815.6" y="539.6" fill="#e76f51" font-size="10" font-family="Trebuchet MS, Arial, sans-serif">487</text>
<circle cx="939.4" cy="599.4" r="4.8" fill="#e76f51" stroke="#fffdf7" stroke-width="1.3" />
<text x="947.4" y="589.4" fill="#e76f51" font-size="10" font-family="Trebuchet MS, Arial, sans-serif">103</text>
<circle cx="1071.1" cy="542.6" r="4.8" fill="#e76f51" stroke="#fffdf7" stroke-width="1.3" />
<text x="1079.1" y="532.6" fill="#e76f51" font-size="10" font-family="Trebuchet MS, Arial, sans-serif">542</text>
<text x="610.0" y="642.0" text-anchor="middle" fill="#1f1d1a" font-size="12" font-family="Trebuchet MS, Arial, sans-serif">Layer 1 / Layer 2 Neurons</text>
</svg>