<svg xmlns="http://www.w3.org/2000/svg" width="1180" height="980" viewBox="0 0 1180 980" role="img" aria-label="Best Model Metrics by Configuration">
<rect width="1180" height="980" fill="#f7f4ea" />
<text x="42" y="46" fill="#1f1d1a" font-size="28" font-weight="700" font-family="Georgia, serif">Best Model Metrics by Configuration</text>
<rect x="42.0" y="76.0" width="1096.0" height="255.0" rx="18" fill="#fffdf7" stroke="#e6dec9" />
<text x="66.0" y="110.0" fill="#1f1d1a" font-size="22" font-weight="700" font-family="Georgia, serif">Best Test RMSE</text>
<line x1="112.0" y1="283.1" x2="1108.0" y2="283.1" stroke="#d9d2bf" stroke-width="1" />
<text x="102.0" y="287.1" text-anchor="end" fill="#6f6659" font-size="11" font-family="Trebuchet MS, Arial, sans-serif">275k</text>
<line x1="112.0" y1="242.2" x2="1108.0" y2="242.2" stroke="#d9d2bf" stroke-width="1" />
<text x="102.0" y="246.2" text-anchor="end" fill="#6f6659" font-size="11" font-family="Trebuchet MS, Arial, sans-serif">280k</text>
<line x1="112.0" y1="201.4" x2="1108.0" y2="201.4" stroke="#d9d2bf" stroke-width="1" />
<text x="102.0" y="205.4" text-anchor="end" fill="#6f6659" font-size="11" font-family="Trebuchet MS, Arial, sans-serif">285k</text>
<line x1="112.0" y1="160.5" x2="1108.0" y2="160.5" stroke="#d9d2bf" stroke-width="1" />
<text x="102.0" y="164.5" text-anchor="end" fill="#6f6659" font-size="11" font-family="Trebuchet MS, Arial, sans-serif">290k</text>
<line x1="112.0" y1="119.6" x2="1108.0" y2="119.6" stroke="#d9d2bf" stroke-width="1" />
<text x="102.0" y="123.6" text-anchor="end" fill="#6f6659" font-size="11" font-family="Trebuchet MS, Arial, sans-serif">295k</text>
<line x1="148.9" y1="142.0" x2="148.9" y2="283.0" stroke="#d9d2bf" stroke-width="1" />
<text x="148.9" y="301.0" text-anchor="middle" fill="#6f6659" font-size="11" font-family="Trebuchet MS, Arial, sans-serif">10/5</text>
<line x1="280.6" y1="142.0" x2="280.6" y2="283.0" stroke="#d9d2bf" stroke-width="1" />
<text x="280.6" y="301.0" text-anchor="middle" fill="#6f6659" font-size="11" font-family="Trebuchet MS, Arial, sans-serif">25/10</text>
<line x1="412.4" y1="142.0" x2="412.4" y2="283.0" stroke="#d9d2bf" stroke-width="1" />
<text x="412.4" y="301.0" text-anchor="middle" fill="#6f6659" font-size="11" font-family="Trebuchet MS, Arial, sans-serif">50/25</text>
<line x1="544.1" y1="142.0" x2="544.1" y2="283.0" stroke="#d9d2bf" stroke-width="1" />
<text x="544.1" y="301.0" text-anchor="middle" fill="#6f6659" font-size="11" font-family="Trebuchet MS, Arial, sans-serif">75/50</text>
<line x1="675.9" y1="142.0" x2="675.9" y2="283.0" stroke="#d9d2bf" stroke-width="1" />
<text x="675.9" y="301.0" text-anchor="middle" fill="#6f6659" font-size="11" font-family="Trebuchet MS, Arial, sans-serif">100/75</text>
<line x1="807.6" y1="142.0" x2="807.6" y2="283.0" stroke="#d9d2bf" stroke-width="1" />
<text x="807.6" y="301.0" text-anchor="middle" fill="#6f6659" font-size="11" font-family="Trebuchet MS, Arial, sans-serif">125/100</text>
<line x1="939.4" y1="142.0" x2="939.4" y2="283.0" stroke="#d9d2bf" stroke-width="1" />
<text x="939.4" y="301.0" text-anchor="middle" fill="#6f6659" font-size="11" font-family="Trebuchet MS, Arial, sans-serif">200/125</text>
<line x1="1071.1" y1="142.0" x2="1071.1" y2="283.0" stroke="#d9d2bf" stroke-width="1" />
<text x="1071.1" y="301.0" text-anchor="middle" fill="#6f6659" font-size="11" font-family="Trebuchet MS, Arial, sans-serif">350/200</text>
<path d="M 148.89 151.72 L 280.63 273.28 L 412.38 240.14 L 544.13 201.42 L 675.87 231.23 L 807.62 253.69 L 939.37 201.67 L 1071.11 197.34" fill="none" stroke="#264653" stroke-width="3.2" stroke-linecap="round" stroke-linejoin="round" />
<circle cx="148.9" cy="151.7" r="4.8" fill="#264653" stroke="#fffdf7" stroke-width="1.3" />
<text x="156.9" y="141.7" fill="#264653" font-size="10" font-family="Trebuchet MS, Arial, sans-serif">291k</text>
<circle cx="280.6" cy="273.3" r="4.8" fill="#264653" stroke="#fffdf7" stroke-width="1.3" />
<text x="288.6" y="263.3" fill="#264653" font-size="10" font-family="Trebuchet MS, Arial, sans-serif">276k</text>
<circle cx="412.4" cy="240.1" r="4.8" fill="#264653" stroke="#fffdf7" stroke-width="1.3" />
<text x="420.4" y="230.1" fill="#264653" font-size="10" font-family="Trebuchet MS, Arial, sans-serif">280k</text>
<circle cx="544.1" cy="201.4" r="4.8" fill="#264653" stroke="#fffdf7" stroke-width="1.3" />
<text x="552.1" y="191.4" fill="#264653" font-size="10" font-family="Trebuchet MS, Arial, sans-serif">285k</text>
<circle cx="675.9" cy="231.2" r="4.8" fill="#264653" stroke="#fffdf7" stroke-width="1.3" />
<text x="683.9" y="221.2" fill="#264653" font-size="10" font-family="Trebuchet MS, Arial, sans-serif">281k</text>
<circle cx="807.6" cy="253.7" r="4.8" fill="#264653" stroke="#fffdf7" stroke-width="1.3" />
<text x="815.6" y="243.7" fill="#264653" font-size="10" font-family="Trebuchet MS, Arial, sans-serif">279k</text>
<circle cx="939.4" cy="201.7" r="4.8" fill="#264653" stroke="#fffdf7" stroke-width="1.3" />
<text x="947.4" y="191.7" fill="#264653" font-size="10" font-family="Trebuchet MS, Arial, sans-serif">285k</text>
<circle cx="1071.1" cy="197.3" r="4.8" fill="#264653" stroke="#fffdf7" stroke-width="1.3" />
<text x="1079.1" y="187.3" fill="#264653" font-size="10" font-family="Trebuchet MS, Arial, sans-serif">285k</text>
<text x="610.0" y="321.0" text-anchor="middle" fill="#1f1d1a" font-size="12" font-family="Trebuchet MS, Arial, sans-serif">Layer 1 / Layer 2 Neurons</text>
<rect x="42.0" y="357.0" width="1096.0" height="255.0" rx="18" fill="#fffdf7" stroke="#e6dec9" />
<text x="66.0" y="391.0" fill="#1f1d1a" font-size="22" font-weight="700" font-family="Georgia, serif">Best Test R^2</text>
<line x1="112.0" y1="588.1" x2="1108.0" y2="588.1" stroke="#d9d2bf" stroke-width="1" />
<text x="102.0" y="592.1" text-anchor="end" fill="#6f6659" font-size="11" font-family="Trebuchet MS, Arial, sans-serif">0.65</text>
<line x1="112.0" y1="552.3" x2="1108.0" y2="552.3" stroke="#d9d2bf" stroke-width="1" />
<text x="102.0" y="556.3" text-anchor="end" fill="#6f6659" font-size="11" font-family="Trebuchet MS, Arial, sans-serif">0.66</text>
<line x1="112.0" y1="516.5" x2="1108.0" y2="516.5" stroke="#d9d2bf" stroke-width="1" />
<text x="102.0" y="520.5" text-anchor="end" fill="#6f6659" font-size="11" font-family="Trebuchet MS, Arial, sans-serif">0.67</text>
<line x1="112.0" y1="480.6" x2="1108.0" y2="480.6" stroke="#d9d2bf" stroke-width="1" />
<text x="102.0" y="484.6" text-anchor="end" fill="#6f6659" font-size="11" font-family="Trebuchet MS, Arial, sans-serif">0.68</text>
<line x1="112.0" y1="444.8" x2="1108.0" y2="444.8" stroke="#d9d2bf" stroke-width="1" />
<text x="102.0" y="448.8" text-anchor="end" fill="#6f6659" font-size="11" font-family="Trebuchet MS, Arial, sans-serif">0.69</text>
<line x1="112.0" y1="409.0" x2="1108.0" y2="409.0" stroke="#d9d2bf" stroke-width="1" />
<text x="102.0" y="413.0" text-anchor="end" fill="#6f6659" font-size="11" font-family="Trebuchet MS, Arial, sans-serif">0.7</text>
<line x1="148.9" y1="423.0" x2="148.9" y2="564.0" stroke="#d9d2bf" stroke-width="1" />
<text x="148.9" y="582.0" text-anchor="middle" fill="#6f6659" font-size="11" font-family="Trebuchet MS, Arial, sans-serif">10/5</text>
<line x1="280.6" y1="423.0" x2="280.6" y2="564.0" stroke="#d9d2bf" stroke-width="1" />
<text x="280.6" y="582.0" text-anchor="middle" fill="#6f6659" font-size="11" font-family="Trebuchet MS, Arial, sans-serif">25/10</text>
<line x1="412.4" y1="423.0" x2="412.4" y2="564.0" stroke="#d9d2bf" stroke-width="1" />
<text x="412.4" y="582.0" text-anchor="middle" fill="#6f6659" font-size="11" font-family="Trebuchet MS, Arial, sans-serif">50/25</text>
<line x1="544.1" y1="423.0" x2="544.1" y2="564.0" stroke="#d9d2bf" stroke-width="1" />
<text x="544.1" y="582.0" text-anchor="middle" fill="#6f6659" font-size="11" font-family="Trebuchet MS, Arial, sans-serif">75/50</text>
<line x1="675.9" y1="423.0" x2="675.9" y2="564.0" stroke="#d9d2bf" stroke-width="1" />
<text x="675.9" y="582.0" text-anchor="middle" fill="#6f6659" font-size="11" font-family="Trebuchet MS, Arial, sans-serif">100/75</text>
<line x1="807.6" y1="423.0" x2="807.6" y2="564.0" stroke="#d9d2bf" stroke-width="1" />
<text x="807.6" y="582.0" text-anchor="middle" fill="#6f6659" font-size="11" font-family="Trebuchet MS, Arial, sans-serif">125/100</text>
<line x1="939.4" y1="423.0" x2="939.4" y2="564.0" stroke="#d9d2bf" stroke-width="1" />
<text x="939.4" y="582.0" text-anchor="middle" fill="#6f6659" font-size="11" font-family="Trebuchet MS, Arial, sans-serif">200/125</text>
<line x1="1071.1" y1="423.0" x2="1071.1" y2="564.0" stroke="#d9d2bf" stroke-width="1" />
<text x="1071.1" y="582.0" text-anchor="middle" fill="#6f6659" font-size="11" font-family="Trebuchet MS, Arial, sans-serif">350/200</text>
<path d="M 148.89 554.28 L 280.63 432.72 L 412.38 465.23 L 544.13 503.81 L 675.87 474.05 L 807.62 451.88 L 939.37 503.56 L 1071.11 507.92" fill="none" stroke="#2a9d8f" stroke-width="3.2" stroke-linecap="round" stroke-linejoin="round" />
<circle cx="148.9" cy="554.3" r="4.8" fill="#2a9d8f" stroke="#fffdf7" stroke-width="1.3" />
<text x="156.9" y="544.3" fill="#2a9d8f" font-size="10" font-family="Trebuchet MS, Arial, sans-serif">0.659</text>
<circle cx="280.6" cy="432.7" r="4.8" fill="#2a9d8f" stroke="#fffdf7" stroke-width="1.3" />
<text x="288.6" y="422.7" fill="#2a9d8f" font-size="10" font-family="Trebuchet MS, Arial, sans-serif">0.693</text>
<circle cx="412.4" cy="465.2" r="4.8" fill="#2a9d8f" stroke="#fffdf7" stroke-width="1.3" />
<text x="420.4" y="455.2" fill="#2a9d8f" font-size="10" font-family="Trebuchet MS, Arial, sans-serif">0.684</text>
<circle cx="544.1" cy="503.8" r="4.8" fill="#2a9d8f" stroke="#fffdf7" stroke-width="1.3" />
<text x="552.1" y="493.8" fill="#2a9d8f" font-size="10" font-family="Trebuchet MS, Arial, sans-serif">0.674</text>
<circle cx="675.9" cy="474.1" r="4.8" fill="#2a9d8f" stroke="#fffdf7" stroke-width="1.3" />
<text x="683.9" y="464.1" fill="#2a9d8f" font-size="10" font-family="Trebuchet MS, Arial, sans-serif">0.682</text>
<circle cx="807.6" cy="451.9" r="4.8" fill="#2a9d8f" stroke="#fffdf7" stroke-width="1.3" />
<text x="815.6" y="441.9" fill="#2a9d8f" font-size="10" font-family="Trebuchet MS, Arial, sans-serif">0.688</text>
<circle cx="939.4" cy="503.6" r="4.8" fill="#2a9d8f" stroke="#fffdf7" stroke-width="1.3" />
<text x="947.4" y="493.6" fill="#2a9d8f" font-size="10" font-family="Trebuchet MS, Arial, sans-serif">0.674</text>
<circle cx="1071.1" cy="507.9" r="4.8" fill="#2a9d8f" stroke="#fffdf7" stroke-width="1.3" />
<text x="1079.1" y="497.9" fill="#2a9d8f" font-size="10" font-family="Trebuchet MS, Arial, sans-serif">0.672</text>
<text x="610.0" y="602.0" text-anchor="middle" fill="#1f1d1a" font-size="12" font-family="Trebuchet MS, Arial, sans-serif">Layer 1 / Layer 2 Neurons</text>
<rect x="42.0" y="638.0" width="1096.0" height="255.0" rx="18" fill="#fffdf7" stroke="#e6dec9" />
<text x="66.0" y="672.0" fill="#1f1d1a" font-size="22" font-weight="700" font-family="Georgia, serif">Best Training Time (sec)</text>
<line x1="112.0" y1="863.7" x2="1108.0" y2="863.7" stroke="#d9d2bf" stroke-width="1" />
<text x="102.0" y="867.7" text-anchor="end" fill="#6f6659" font-size="11" font-family="Trebuchet MS, Arial, sans-serif">0</text>
<line x1="112.0" y1="836.0" x2="1108.0" y2="836.0" stroke="#d9d2bf" stroke-width="1" />
<text x="102.0" y="840.0" text-anchor="end" fill="#6f6659" font-size="11" font-family="Trebuchet MS, Arial, sans-serif">100</text>
<line x1="112.0" y1="808.3" x2="1108.0" y2="808.3" stroke="#d9d2bf" stroke-width="1" />
<text x="102.0" y="812.3" text-anchor="end" fill="#6f6659" font-size="11" font-family="Trebuchet MS, Arial, sans-serif">200</text>
<line x1="112.0" y1="780.6" x2="1108.0" y2="780.6" stroke="#d9d2bf" stroke-width="1" />
<text x="102.0" y="784.6" text-anchor="end" fill="#6f6659" font-size="11" font-family="Trebuchet MS, Arial, sans-serif">300</text>
<line x1="112.0" y1="752.9" x2="1108.0" y2="752.9" stroke="#d9d2bf" stroke-width="1" />
<text x="102.0" y="756.9" text-anchor="end" fill="#6f6659" font-size="11" font-family="Trebuchet MS, Arial, sans-serif">400</text>
<line x1="112.0" y1="725.3" x2="1108.0" y2="725.3" stroke="#d9d2bf" stroke-width="1" />
<text x="102.0" y="729.3" text-anchor="end" fill="#6f6659" font-size="11" font-family="Trebuchet MS, Arial, sans-serif">500</text>
<line x1="112.0" y1="697.6" x2="1108.0" y2="697.6" stroke="#d9d2bf" stroke-width="1" />
<text x="102.0" y="701.6" text-anchor="end" fill="#6f6659" font-size="11" font-family="Trebuchet MS, Arial, sans-serif">600</text>
<line x1="148.9" y1="704.0" x2="148.9" y2="845.0" stroke="#d9d2bf" stroke-width="1" />
<text x="148.9" y="863.0" text-anchor="middle" fill="#6f6659" font-size="11" font-family="Trebuchet MS, Arial, sans-serif">10/5</text>
<line x1="280.6" y1="704.0" x2="280.6" y2="845.0" stroke="#d9d2bf" stroke-width="1" />
<text x="280.6" y="863.0" text-anchor="middle" fill="#6f6659" font-size="11" font-family="Trebuchet MS, Arial, sans-serif">25/10</text>
<line x1="412.4" y1="704.0" x2="412.4" y2="845.0" stroke="#d9d2bf" stroke-width="1" />
<text x="412.4" y="863.0" text-anchor="middle" fill="#6f6659" font-size="11" font-family="Trebuchet MS, Arial, sans-serif">50/25</text>
<line x1="544.1" y1="704.0" x2="544.1" y2="845.0" stroke="#d9d2bf" stroke-width="1" />
<text x="544.1" y="863.0" text-anchor="middle" fill="#6f6659" font-size="11" font-family="Trebuchet MS, Arial, sans-serif">75/50</text>
<line x1="675.9" y1="704.0" x2="675.9" y2="845.0" stroke="#d9d2bf" stroke-width="1" />
<text x="675.9" y="863.0" text-anchor="middle" fill="#6f6659" font-size="11" font-family="Trebuchet MS, Arial, sans-serif">100/75</text>
<line x1="807.6" y1="704.0" x2="807.6" y2="845.0" stroke="#d9d2bf" stroke-width="1" />
<text x="807.6" y="863.0" text-anchor="middle" fill="#6f6659" font-size="11" font-family="Trebuchet MS, Arial, sans-serif">125/100</text>
<line x1="939.4" y1="704.0" x2="939.4" y2="845.0" stroke="#d9d2bf" stroke-width="1" />
<text x="939.4" y="863.0" text-anchor="middle" fill="#6f6659" font-size="11" font-family="Trebuchet MS, Arial, sans-serif">200/125</text>
<line x1="1071.1" y1="704.0" x2="1071.1" y2="845.0" stroke="#d9d2bf" stroke-width="1" />
<text x="1071.1" y="863.0" text-anchor="middle" fill="#6f6659" font-size="11" font-family="Trebuchet MS, Arial, sans-serif">350/200</text>
<path d="M 148.89 738.27 L 280.63 738.06 L 412.38 734.63 L 544.13 794.98 L 675.87 723.41 L 807.62 728.88 L 939.37 835.28 L 1071.11 713.72" fill="none" stroke="#e76f51" stroke-width="3.2" stroke-linecap="round" stroke-linejoin="round" />
<circle cx="148.9" cy="738.3" r="4.8" fill="#e76f51" stroke="#fffdf7" stroke-width="1.3" />
<text x="156.9" y="728.3" fill="#e76f51" font-size="10" font-family="Trebuchet MS, Arial, sans-serif">453</text>
<circle cx="280.6" cy="738.1" r="4.8" fill="#e76f51" stroke="#fffdf7" stroke-width="1.3" />
<text x="288.6" y="728.1" fill="#e76f51" font-size="10" font-family="Trebuchet MS, Arial, sans-serif">454</text>
<circle cx="412.4" cy="734.6" r="4.8" fill="#e76f51" stroke="#fffdf7" stroke-width="1.3" />
<text x="420.4" y="724.6" fill="#e76f51" font-size="10" font-family="Trebuchet MS, Arial, sans-serif">466</text>
<circle cx="544.1" cy="795.0" r="4.8" fill="#e76f51" stroke="#fffdf7" stroke-width="1.3" />
<text x="552.1" y="785.0" fill="#e76f51" font-size="10" font-family="Trebuchet MS, Arial, sans-serif">248</text>
<circle cx="675.9" cy="723.4" r="4.8" fill="#e76f51" stroke="#fffdf7" stroke-width="1.3" />
<text x="683.9" y="713.4" fill="#e76f51" font-size="10" font-family="Trebuchet MS, Arial, sans-serif">507</text>
<circle cx="807.6" cy="728.9" r="4.8" fill="#e76f51" stroke="#fffdf7" stroke-width="1.3" />
<text x="815.6" y="718.9" fill="#e76f51" font-size="10" font-family="Trebuchet MS, Arial, sans-serif">487</text>
<circle cx="939.4" cy="835.3" r="4.8" fill="#e76f51" stroke="#fffdf7" stroke-width="1.3" />
<text x="947.4" y="825.3" fill="#e76f51" font-size="10" font-family="Trebuchet MS, Arial, sans-serif">103</text>
<circle cx="1071.1" cy="713.7" r="4.8" fill="#e76f51" stroke="#fffdf7" stroke-width="1.3" />
<text x="1079.1" y="703.7" fill="#e76f51" font-size="10" font-family="Trebuchet MS, Arial, sans-serif">542</text>
<text x="610.0" y="883.0" text-anchor="middle" fill="#1f1d1a" font-size="12" font-family="Trebuchet MS, Arial, sans-serif">Layer 1 / Layer 2 Neurons</text>
</svg>