<svg xmlns="http://www.w3.org/2000/svg" width="1180" height="720" viewBox="0 0 1180 720" role="img" aria-label="Test RMSE vs Epoch Budget">
<rect width="1180" height="720" fill="#f7f4ea" />
<rect x="28.0" y="24.0" width="1124.0" height="672.0" rx="18" fill="#fffdf7" stroke="#e6dec9" />
<text x="52.0" y="58.0" fill="#1f1d1a" font-size="22" font-weight="700" font-family="Georgia, serif">Test RMSE vs Epoch Budget</text>
<text x="52.0" y="82.0" fill="#6f6659" font-size="13" font-family="Trebuchet MS, Arial, sans-serif">Lower is better.</text>
<line x1="98.0" y1="667.5" x2="1122.0" y2="667.5" stroke="#d9d2bf" stroke-width="1" />
<text x="86.0" y="672.5" text-anchor="end" fill="#6f6659" font-size="12" font-family="Trebuchet MS, Arial, sans-serif">200k</text>
<line x1="98.0" y1="592.8" x2="1122.0" y2="592.8" stroke="#d9d2bf" stroke-width="1" />
<text x="86.0" y="597.8" text-anchor="end" fill="#6f6659" font-size="12" font-family="Trebuchet MS, Arial, sans-serif">300k</text>
<line x1="98.0" y1="518.2" x2="1122.0" y2="518.2" stroke="#d9d2bf" stroke-width="1" />
<text x="86.0" y="523.2" text-anchor="end" fill="#6f6659" font-size="12" font-family="Trebuchet MS, Arial, sans-serif">400k</text>
<line x1="98.0" y1="443.5" x2="1122.0" y2="443.5" stroke="#d9d2bf" stroke-width="1" />
<text x="86.0" y="448.5" text-anchor="end" fill="#6f6659" font-size="12" font-family="Trebuchet MS, Arial, sans-serif">500k</text>
<line x1="98.0" y1="368.8" x2="1122.0" y2="368.8" stroke="#d9d2bf" stroke-width="1" />
<text x="86.0" y="373.8" text-anchor="end" fill="#6f6659" font-size="12" font-family="Trebuchet MS, Arial, sans-serif">600k</text>
<line x1="98.0" y1="294.1" x2="1122.0" y2="294.1" stroke="#d9d2bf" stroke-width="1" />
<text x="86.0" y="299.1" text-anchor="end" fill="#6f6659" font-size="12" font-family="Trebuchet MS, Arial, sans-serif">700k</text>
<line x1="98.0" y1="219.4" x2="1122.0" y2="219.4" stroke="#d9d2bf" stroke-width="1" />
<text x="86.0" y="224.4" text-anchor="end" fill="#6f6659" font-size="12" font-family="Trebuchet MS, Arial, sans-serif">800k</text>
<line x1="98.0" y1="144.7" x2="1122.0" y2="144.7" stroke="#d9d2bf" stroke-width="1" />
<text x="86.0" y="149.7" text-anchor="end" fill="#6f6659" font-size="12" font-family="Trebuchet MS, Arial, sans-serif">900k</text>
<line x1="98.0" y1="70.0" x2="1122.0" y2="70.0" stroke="#d9d2bf" stroke-width="1" />
<text x="86.0" y="75.0" text-anchor="end" fill="#6f6659" font-size="12" font-family="Trebuchet MS, Arial, sans-serif">1.0M</text>
<line x1="117.7" y1="106.0" x2="117.7" y2="648.0" stroke="#d9d2bf" stroke-width="1" />
<text x="117.7" y="670.0" text-anchor="middle" fill="#6f6659" font-size="12" font-family="Trebuchet MS, Arial, sans-serif">10</text>
<line x1="147.8" y1="106.0" x2="147.8" y2="648.0" stroke="#d9d2bf" stroke-width="1" />
<text x="147.8" y="670.0" text-anchor="middle" fill="#6f6659" font-size="12" font-family="Trebuchet MS, Arial, sans-serif">25</text>
<line x1="198.1" y1="106.0" x2="198.1" y2="648.0" stroke="#d9d2bf" stroke-width="1" />
<text x="198.1" y="670.0" text-anchor="middle" fill="#6f6659" font-size="12" font-family="Trebuchet MS, Arial, sans-serif">50</text>
<line x1="248.3" y1="106.0" x2="248.3" y2="648.0" stroke="#d9d2bf" stroke-width="1" />
<text x="248.3" y="670.0" text-anchor="middle" fill="#6f6659" font-size="12" font-family="Trebuchet MS, Arial, sans-serif">75</text>
<line x1="298.5" y1="106.0" x2="298.5" y2="648.0" stroke="#d9d2bf" stroke-width="1" />
<text x="298.5" y="670.0" text-anchor="middle" fill="#6f6659" font-size="12" font-family="Trebuchet MS, Arial, sans-serif">100</text>
<line x1="348.8" y1="106.0" x2="348.8" y2="648.0" stroke="#d9d2bf" stroke-width="1" />
<text x="348.8" y="670.0" text-anchor="middle" fill="#6f6659" font-size="12" font-family="Trebuchet MS, Arial, sans-serif">125</text>
<line x1="600.0" y1="106.0" x2="600.0" y2="648.0" stroke="#d9d2bf" stroke-width="1" />
<text x="600.0" y="670.0" text-anchor="middle" fill="#6f6659" font-size="12" font-family="Trebuchet MS, Arial, sans-serif">250</text>
<line x1="1102.3" y1="106.0" x2="1102.3" y2="648.0" stroke="#d9d2bf" stroke-width="1" />
<text x="1102.3" y="670.0" text-anchor="middle" fill="#6f6659" font-size="12" font-family="Trebuchet MS, Arial, sans-serif">500</text>
<line x1="98.0" y1="648.0" x2="1122.0" y2="648.0" stroke="#544b3d" stroke-width="1.6" />
<line x1="98.0" y1="106.0" x2="98.0" y2="648.0" stroke="#544b3d" stroke-width="1.6" />
<path d="M 117.69 176.11 L 147.83 572.54 L 198.07 584.95 L 248.30 430.04 L 298.54 590.63 L 348.78 595.74 L 599.95 599.42 L 1102.31 599.51" fill="none" stroke="#1b4965" stroke-width="3.2" stroke-linecap="round" stroke-linejoin="round" />
<circle cx="117.7" cy="176.1" r="4.4" fill="#1b4965" stroke="#fffdf7" stroke-width="1.4" />
<circle cx="147.8" cy="572.5" r="4.4" fill="#1b4965" stroke="#fffdf7" stroke-width="1.4" />
<circle cx="198.1" cy="584.9" r="4.4" fill="#1b4965" stroke="#fffdf7" stroke-width="1.4" />
<circle cx="248.3" cy="430.0" r="4.4" fill="#1b4965" stroke="#fffdf7" stroke-width="1.4" />
<circle cx="298.5" cy="590.6" r="4.4" fill="#1b4965" stroke="#fffdf7" stroke-width="1.4" />
<circle cx="348.8" cy="595.7" r="4.4" fill="#1b4965" stroke="#fffdf7" stroke-width="1.4" />
<circle cx="600.0" cy="599.4" r="4.4" fill="#1b4965" stroke="#fffdf7" stroke-width="1.4" />
<circle cx="1102.3" cy="599.5" r="4.4" fill="#1b4965" stroke="#fffdf7" stroke-width="1.4" />
<path d="M 117.69 143.38 L 147.83 554.22 L 198.07 593.06 L 248.30 596.65 L 298.54 603.09 L 348.78 596.72 L 599.95 596.12 L 1102.31 610.62" fill="none" stroke="#ca6702" stroke-width="3.2" stroke-linecap="round" stroke-linejoin="round" />
<circle cx="117.7" cy="143.4" r="4.4" fill="#ca6702" stroke="#fffdf7" stroke-width="1.4" />
<circle cx="147.8" cy="554.2" r="4.4" fill="#ca6702" stroke="#fffdf7" stroke-width="1.4" />
<circle cx="198.1" cy="593.1" r="4.4" fill="#ca6702" stroke="#fffdf7" stroke-width="1.4" />
<circle cx="248.3" cy="596.7" r="4.4" fill="#ca6702" stroke="#fffdf7" stroke-width="1.4" />
<circle cx="298.5" cy="603.1" r="4.4" fill="#ca6702" stroke="#fffdf7" stroke-width="1.4" />
<circle cx="348.8" cy="596.7" r="4.4" fill="#ca6702" stroke="#fffdf7" stroke-width="1.4" />
<circle cx="600.0" cy="596.1" r="4.4" fill="#ca6702" stroke="#fffdf7" stroke-width="1.4" />
<circle cx="1102.3" cy="610.6" r="4.4" fill="#ca6702" stroke="#fffdf7" stroke-width="1.4" />
<path d="M 117.69 361.24 L 147.83 583.82 L 198.07 578.85 L 248.30 605.09 L 298.54 599.38 L 348.78 607.38 L 599.95 606.24 L 1102.31 607.59" fill="none" stroke="#0b6e4f" stroke-width="3.2" stroke-linecap="round" stroke-linejoin="round" />
<circle cx="117.7" cy="361.2" r="4.4" fill="#0b6e4f" stroke="#fffdf7" stroke-width="1.4" />
<circle cx="147.8" cy="583.8" r="4.4" fill="#0b6e4f" stroke="#fffdf7" stroke-width="1.4" />
<circle cx="198.1" cy="578.8" r="4.4" fill="#0b6e4f" stroke="#fffdf7" stroke-width="1.4" />
<circle cx="248.3" cy="605.1" r="4.4" fill="#0b6e4f" stroke="#fffdf7" stroke-width="1.4" />
<circle cx="298.5" cy="599.4" r="4.4" fill="#0b6e4f" stroke="#fffdf7" stroke-width="1.4" />
<circle cx="348.8" cy="607.4" r="4.4" fill="#0b6e4f" stroke="#fffdf7" stroke-width="1.4" />
<circle cx="600.0" cy="606.2" r="4.4" fill="#0b6e4f" stroke="#fffdf7" stroke-width="1.4" />
<circle cx="1102.3" cy="607.6" r="4.4" fill="#0b6e4f" stroke="#fffdf7" stroke-width="1.4" />
<path d="M 117.69 478.30 L 147.83 548.35 L 198.07 589.54 L 248.30 596.77 L 298.54 600.69 L 348.78 599.33 L 599.95 604.05 L 1102.31 601.19" fill="none" stroke="#b02e0c" stroke-width="3.2" stroke-linecap="round" stroke-linejoin="round" />
<circle cx="117.7" cy="478.3" r="4.4" fill="#b02e0c" stroke="#fffdf7" stroke-width="1.4" />
<circle cx="147.8" cy="548.3" r="4.4" fill="#b02e0c" stroke="#fffdf7" stroke-width="1.4" />
<circle cx="198.1" cy="589.5" r="4.4" fill="#b02e0c" stroke="#fffdf7" stroke-width="1.4" />
<circle cx="248.3" cy="596.8" r="4.4" fill="#b02e0c" stroke="#fffdf7" stroke-width="1.4" />
<circle cx="298.5" cy="600.7" r="4.4" fill="#b02e0c" stroke="#fffdf7" stroke-width="1.4" />
<circle cx="348.8" cy="599.3" r="4.4" fill="#b02e0c" stroke="#fffdf7" stroke-width="1.4" />
<circle cx="600.0" cy="604.1" r="4.4" fill="#b02e0c" stroke="#fffdf7" stroke-width="1.4" />
<circle cx="1102.3" cy="601.2" r="4.4" fill="#b02e0c" stroke="#fffdf7" stroke-width="1.4" />
<path d="M 117.69 517.41 L 147.83 558.90 L 198.07 578.94 L 248.30 581.51 L 298.54 596.63 L 348.78 603.33 L 599.95 598.85 L 1102.31 606.78" fill="none" stroke="#5f0f40" stroke-width="3.2" stroke-linecap="round" stroke-linejoin="round" />
<circle cx="117.7" cy="517.4" r="4.4" fill="#5f0f40" stroke="#fffdf7" stroke-width="1.4" />
<circle cx="147.8" cy="558.9" r="4.4" fill="#5f0f40" stroke="#fffdf7" stroke-width="1.4" />
<circle cx="198.1" cy="578.9" r="4.4" fill="#5f0f40" stroke="#fffdf7" stroke-width="1.4" />
<circle cx="248.3" cy="581.5" r="4.4" fill="#5f0f40" stroke="#fffdf7" stroke-width="1.4" />
<circle cx="298.5" cy="596.6" r="4.4" fill="#5f0f40" stroke="#fffdf7" stroke-width="1.4" />
<circle cx="348.8" cy="603.3" r="4.4" fill="#5f0f40" stroke="#fffdf7" stroke-width="1.4" />
<circle cx="600.0" cy="598.9" r="4.4" fill="#5f0f40" stroke="#fffdf7" stroke-width="1.4" />
<circle cx="1102.3" cy="606.8" r="4.4" fill="#5f0f40" stroke="#fffdf7" stroke-width="1.4" />
<path d="M 117.69 512.54 L 147.83 555.07 L 198.07 594.83 L 248.30 583.25 L 298.54 599.00 L 348.78 598.46 L 599.95 604.64 L 1102.31 608.83" fill="none" stroke="#3a5a40" stroke-width="3.2" stroke-linecap="round" stroke-linejoin="round" />
<circle cx="117.7" cy="512.5" r="4.4" fill="#3a5a40" stroke="#fffdf7" stroke-width="1.4" />
<circle cx="147.8" cy="555.1" r="4.4" fill="#3a5a40" stroke="#fffdf7" stroke-width="1.4" />
<circle cx="198.1" cy="594.8" r="4.4" fill="#3a5a40" stroke="#fffdf7" stroke-width="1.4" />
<circle cx="248.3" cy="583.3" r="4.4" fill="#3a5a40" stroke="#fffdf7" stroke-width="1.4" />
<circle cx="298.5" cy="599.0" r="4.4" fill="#3a5a40" stroke="#fffdf7" stroke-width="1.4" />
<circle cx="348.8" cy="598.5" r="4.4" fill="#3a5a40" stroke="#fffdf7" stroke-width="1.4" />
<circle cx="600.0" cy="604.6" r="4.4" fill="#3a5a40" stroke="#fffdf7" stroke-width="1.4" />
<circle cx="1102.3" cy="608.8" r="4.4" fill="#3a5a40" stroke="#fffdf7" stroke-width="1.4" />
<path d="M 117.69 520.22 L 147.83 572.98 L 198.07 579.16 L 248.30 594.07 L 298.54 604.08 L 348.78 596.58 L 599.95 603.92 L 1102.31 596.94" fill="none" stroke="#6c757d" stroke-width="3.2" stroke-linecap="round" stroke-linejoin="round" />
<circle cx="117.7" cy="520.2" r="4.4" fill="#6c757d" stroke="#fffdf7" stroke-width="1.4" />
<circle cx="147.8" cy="573.0" r="4.4" fill="#6c757d" stroke="#fffdf7" stroke-width="1.4" />
<circle cx="198.1" cy="579.2" r="4.4" fill="#6c757d" stroke="#fffdf7" stroke-width="1.4" />
<circle cx="248.3" cy="594.1" r="4.4" fill="#6c757d" stroke="#fffdf7" stroke-width="1.4" />
<circle cx="298.5" cy="604.1" r="4.4" fill="#6c757d" stroke="#fffdf7" stroke-width="1.4" />
<circle cx="348.8" cy="596.6" r="4.4" fill="#6c757d" stroke="#fffdf7" stroke-width="1.4" />
<circle cx="600.0" cy="603.9" r="4.4" fill="#6c757d" stroke="#fffdf7" stroke-width="1.4" />
<circle cx="1102.3" cy="596.9" r="4.4" fill="#6c757d" stroke="#fffdf7" stroke-width="1.4" />
<path d="M 117.69 560.78 L 147.83 583.41 L 198.07 587.86 L 248.30 595.53 L 298.54 600.17 L 348.78 603.08 L 599.95 602.65 L 1102.31 603.68" fill="none" stroke="#7b2cbf" stroke-width="3.2" stroke-linecap="round" stroke-linejoin="round" />
<circle cx="117.7" cy="560.8" r="4.4" fill="#7b2cbf" stroke="#fffdf7" stroke-width="1.4" />
<circle cx="147.8" cy="583.4" r="4.4" fill="#7b2cbf" stroke="#fffdf7" stroke-width="1.4" />
<circle cx="198.1" cy="587.9" r="4.4" fill="#7b2cbf" stroke="#fffdf7" stroke-width="1.4" />
<circle cx="248.3" cy="595.5" r="4.4" fill="#7b2cbf" stroke="#fffdf7" stroke-width="1.4" />
<circle cx="298.5" cy="600.2" r="4.4" fill="#7b2cbf" stroke="#fffdf7" stroke-width="1.4" />
<circle cx="348.8" cy="603.1" r="4.4" fill="#7b2cbf" stroke="#fffdf7" stroke-width="1.4" />
<circle cx="600.0" cy="602.7" r="4.4" fill="#7b2cbf" stroke="#fffdf7" stroke-width="1.4" />
<circle cx="1102.3" cy="603.7" r="4.4" fill="#7b2cbf" stroke="#fffdf7" stroke-width="1.4" />
<line x1="902.0" y1="114.0" x2="926.0" y2="114.0" stroke="#1b4965" stroke-width="4" stroke-linecap="round" />
<text x="936.0" y="118.0" fill="#1f1d1a" font-size="13" font-family="Trebuchet MS, Arial, sans-serif">10/5</text>
<line x1="902.0" y1="138.0" x2="926.0" y2="138.0" stroke="#ca6702" stroke-width="4" stroke-linecap="round" />
<text x="936.0" y="142.0" fill="#1f1d1a" font-size="13" font-family="Trebuchet MS, Arial, sans-serif">25/10</text>
<line x1="902.0" y1="162.0" x2="926.0" y2="162.0" stroke="#0b6e4f" stroke-width="4" stroke-linecap="round" />
<text x="936.0" y="166.0" fill="#1f1d1a" font-size="13" font-family="Trebuchet MS, Arial, sans-serif">50/25</text>
<line x1="902.0" y1="186.0" x2="926.0" y2="186.0" stroke="#b02e0c" stroke-width="4" stroke-linecap="round" />
<text x="936.0" y="190.0" fill="#1f1d1a" font-size="13" font-family="Trebuchet MS, Arial, sans-serif">75/50</text>
<line x1="902.0" y1="210.0" x2="926.0" y2="210.0" stroke="#5f0f40" stroke-width="4" stroke-linecap="round" />
<text x="936.0" y="214.0" fill="#1f1d1a" font-size="13" font-family="Trebuchet MS, Arial, sans-serif">100/75</text>
<line x1="902.0" y1="234.0" x2="926.0" y2="234.0" stroke="#3a5a40" stroke-width="4" stroke-linecap="round" />
<text x="936.0" y="238.0" fill="#1f1d1a" font-size="13" font-family="Trebuchet MS, Arial, sans-serif">125/100</text>
<line x1="902.0" y1="258.0" x2="926.0" y2="258.0" stroke="#6c757d" stroke-width="4" stroke-linecap="round" />
<text x="936.0" y="262.0" fill="#1f1d1a" font-size="13" font-family="Trebuchet MS, Arial, sans-serif">200/125</text>
<line x1="902.0" y1="282.0" x2="926.0" y2="282.0" stroke="#7b2cbf" stroke-width="4" stroke-linecap="round" />
<text x="936.0" y="286.0" fill="#1f1d1a" font-size="13" font-family="Trebuchet MS, Arial, sans-serif">350/200</text>
<text x="610.0" y="694.0" text-anchor="middle" fill="#1f1d1a" font-size="14" font-family="Trebuchet MS, Arial, sans-serif">Epoch Budget</text>
<text x="24" y="377.0" transform="rotate(-90 24 377.0)" text-anchor="middle" fill="#1f1d1a" font-size="14" font-family="Trebuchet MS, Arial, sans-serif">Test RMSE</text>
</svg>