<svg xmlns="http://www.w3.org/2000/svg" width="1180" height="720" viewBox="0 0 1180 720" role="img" aria-label="Test RMSE vs Epoch Budget (Zoomed Comparison)">
<rect width="1180" height="720" fill="#f7f4ea" />
<rect x="28.0" y="24.0" width="1124.0" height="672.0" rx="18" fill="#fffdf7" stroke="#e6dec9" />
<text x="52.0" y="58.0" fill="#1f1d1a" font-size="22" font-weight="700" font-family="Georgia, serif">Test RMSE vs Epoch Budget (Zoomed Comparison)</text>
<text x="52.0" y="82.0" fill="#6f6659" font-size="13" font-family="Trebuchet MS, Arial, sans-serif">Lower is better. Excludes the smallest model to show the competitive range more clearly.</text>
<line x1="98.0" y1="678.7" x2="1122.0" y2="678.7" stroke="#d9d2bf" stroke-width="1" />
<text x="86.0" y="683.7" text-anchor="end" fill="#6f6659" font-size="12" font-family="Trebuchet MS, Arial, sans-serif">270k</text>
<line x1="98.0" y1="568.9" x2="1122.0" y2="568.9" stroke="#d9d2bf" stroke-width="1" />
<text x="86.0" y="573.9" text-anchor="end" fill="#6f6659" font-size="12" font-family="Trebuchet MS, Arial, sans-serif">280k</text>
<line x1="98.0" y1="459.0" x2="1122.0" y2="459.0" stroke="#d9d2bf" stroke-width="1" />
<text x="86.0" y="464.0" text-anchor="end" fill="#6f6659" font-size="12" font-family="Trebuchet MS, Arial, sans-serif">290k</text>
<line x1="98.0" y1="349.2" x2="1122.0" y2="349.2" stroke="#d9d2bf" stroke-width="1" />
<text x="86.0" y="354.2" text-anchor="end" fill="#6f6659" font-size="12" font-family="Trebuchet MS, Arial, sans-serif">300k</text>
<line x1="98.0" y1="239.4" x2="1122.0" y2="239.4" stroke="#d9d2bf" stroke-width="1" />
<text x="86.0" y="244.4" text-anchor="end" fill="#6f6659" font-size="12" font-family="Trebuchet MS, Arial, sans-serif">310k</text>
<line x1="98.0" y1="129.5" x2="1122.0" y2="129.5" stroke="#d9d2bf" stroke-width="1" />
<text x="86.0" y="134.5" text-anchor="end" fill="#6f6659" font-size="12" font-family="Trebuchet MS, Arial, sans-serif">320k</text>
<line x1="98.0" y1="19.7" x2="1122.0" y2="19.7" stroke="#d9d2bf" stroke-width="1" />
<text x="86.0" y="24.7" text-anchor="end" fill="#6f6659" font-size="12" font-family="Trebuchet MS, Arial, sans-serif">330k</text>
<line x1="117.7" y1="106.0" x2="117.7" y2="648.0" stroke="#d9d2bf" stroke-width="1" />
<text x="117.7" y="670.0" text-anchor="middle" fill="#6f6659" font-size="12" font-family="Trebuchet MS, Arial, sans-serif">50</text>
<line x1="172.4" y1="106.0" x2="172.4" y2="648.0" stroke="#d9d2bf" stroke-width="1" />
<text x="172.4" y="670.0" text-anchor="middle" fill="#6f6659" font-size="12" font-family="Trebuchet MS, Arial, sans-serif">75</text>
<line x1="227.1" y1="106.0" x2="227.1" y2="648.0" stroke="#d9d2bf" stroke-width="1" />
<text x="227.1" y="670.0" text-anchor="middle" fill="#6f6659" font-size="12" font-family="Trebuchet MS, Arial, sans-serif">100</text>
<line x1="281.8" y1="106.0" x2="281.8" y2="648.0" stroke="#d9d2bf" stroke-width="1" />
<text x="281.8" y="670.0" text-anchor="middle" fill="#6f6659" font-size="12" font-family="Trebuchet MS, Arial, sans-serif">125</text>
<line x1="555.3" y1="106.0" x2="555.3" y2="648.0" stroke="#d9d2bf" stroke-width="1" />
<text x="555.3" y="670.0" text-anchor="middle" fill="#6f6659" font-size="12" font-family="Trebuchet MS, Arial, sans-serif">250</text>
<line x1="1102.3" y1="106.0" x2="1102.3" y2="648.0" stroke="#d9d2bf" stroke-width="1" />
<text x="1102.3" y="670.0" text-anchor="middle" fill="#6f6659" font-size="12" font-family="Trebuchet MS, Arial, sans-serif">500</text>
<line x1="98.0" y1="648.0" x2="1122.0" y2="648.0" stroke="#544b3d" stroke-width="1.6" />
<line x1="98.0" y1="106.0" x2="98.0" y2="648.0" stroke="#544b3d" stroke-width="1.6" />
<path d="M 117.69 352.38 L 172.39 405.17 L 227.09 499.83 L 281.79 406.18 L 555.30 397.38 L 1102.31 610.62" fill="none" stroke="#ca6702" stroke-width="3.2" stroke-linecap="round" stroke-linejoin="round" />
<circle cx="117.7" cy="352.4" r="4.4" fill="#ca6702" stroke="#fffdf7" stroke-width="1.4" />
<circle cx="172.4" cy="405.2" r="4.4" fill="#ca6702" stroke="#fffdf7" stroke-width="1.4" />
<circle cx="227.1" cy="499.8" r="4.4" fill="#ca6702" stroke="#fffdf7" stroke-width="1.4" />
<circle cx="281.8" cy="406.2" r="4.4" fill="#ca6702" stroke="#fffdf7" stroke-width="1.4" />
<circle cx="555.3" cy="397.4" r="4.4" fill="#ca6702" stroke="#fffdf7" stroke-width="1.4" />
<circle cx="1102.3" cy="610.6" r="4.4" fill="#ca6702" stroke="#fffdf7" stroke-width="1.4" />
<path d="M 117.69 143.38 L 172.39 529.27 L 227.09 445.38 L 281.79 562.97 L 555.30 546.16 L 1102.31 566.07" fill="none" stroke="#0b6e4f" stroke-width="3.2" stroke-linecap="round" stroke-linejoin="round" />
<circle cx="117.7" cy="143.4" r="4.4" fill="#0b6e4f" stroke="#fffdf7" stroke-width="1.4" />
<circle cx="172.4" cy="529.3" r="4.4" fill="#0b6e4f" stroke="#fffdf7" stroke-width="1.4" />
<circle cx="227.1" cy="445.4" r="4.4" fill="#0b6e4f" stroke="#fffdf7" stroke-width="1.4" />
<circle cx="281.8" cy="563.0" r="4.4" fill="#0b6e4f" stroke="#fffdf7" stroke-width="1.4" />
<circle cx="555.3" cy="546.2" r="4.4" fill="#0b6e4f" stroke="#fffdf7" stroke-width="1.4" />
<circle cx="1102.3" cy="566.1" r="4.4" fill="#0b6e4f" stroke="#fffdf7" stroke-width="1.4" />
<path d="M 117.69 300.59 L 172.39 406.92 L 227.09 464.57 L 281.79 444.57 L 555.30 514.03 L 1102.31 471.92" fill="none" stroke="#b02e0c" stroke-width="3.2" stroke-linecap="round" stroke-linejoin="round" />
<circle cx="117.7" cy="300.6" r="4.4" fill="#b02e0c" stroke="#fffdf7" stroke-width="1.4" />
<circle cx="172.4" cy="406.9" r="4.4" fill="#b02e0c" stroke="#fffdf7" stroke-width="1.4" />
<circle cx="227.1" cy="464.6" r="4.4" fill="#b02e0c" stroke="#fffdf7" stroke-width="1.4" />
<circle cx="281.8" cy="444.6" r="4.4" fill="#b02e0c" stroke="#fffdf7" stroke-width="1.4" />
<circle cx="555.3" cy="514.0" r="4.4" fill="#b02e0c" stroke="#fffdf7" stroke-width="1.4" />
<circle cx="1102.3" cy="471.9" r="4.4" fill="#b02e0c" stroke="#fffdf7" stroke-width="1.4" />
<path d="M 117.69 144.68 L 172.39 182.44 L 227.09 404.89 L 281.79 503.43 L 555.30 437.57 L 1102.31 554.10" fill="none" stroke="#5f0f40" stroke-width="3.2" stroke-linecap="round" stroke-linejoin="round" />
<circle cx="117.7" cy="144.7" r="4.4" fill="#5f0f40" stroke="#fffdf7" stroke-width="1.4" />
<circle cx="172.4" cy="182.4" r="4.4" fill="#5f0f40" stroke="#fffdf7" stroke-width="1.4" />
<circle cx="227.1" cy="404.9" r="4.4" fill="#5f0f40" stroke="#fffdf7" stroke-width="1.4" />
<circle cx="281.8" cy="503.4" r="4.4" fill="#5f0f40" stroke="#fffdf7" stroke-width="1.4" />
<circle cx="555.3" cy="437.6" r="4.4" fill="#5f0f40" stroke="#fffdf7" stroke-width="1.4" />
<circle cx="1102.3" cy="554.1" r="4.4" fill="#5f0f40" stroke="#fffdf7" stroke-width="1.4" />
<path d="M 117.69 378.43 L 172.39 208.17 L 227.09 439.77 L 281.79 431.75 L 555.30 522.71 L 1102.31 584.29" fill="none" stroke="#3a5a40" stroke-width="3.2" stroke-linecap="round" stroke-linejoin="round" />
<circle cx="117.7" cy="378.4" r="4.4" fill="#3a5a40" stroke="#fffdf7" stroke-width="1.4" />
<circle cx="172.4" cy="208.2" r="4.4" fill="#3a5a40" stroke="#fffdf7" stroke-width="1.4" />
<circle cx="227.1" cy="439.8" r="4.4" fill="#3a5a40" stroke="#fffdf7" stroke-width="1.4" />
<circle cx="281.8" cy="431.7" r="4.4" fill="#3a5a40" stroke="#fffdf7" stroke-width="1.4" />
<circle cx="555.3" cy="522.7" r="4.4" fill="#3a5a40" stroke="#fffdf7" stroke-width="1.4" />
<circle cx="1102.3" cy="584.3" r="4.4" fill="#3a5a40" stroke="#fffdf7" stroke-width="1.4" />
<path d="M 117.69 147.97 L 172.39 367.29 L 227.09 514.36 L 281.79 404.08 L 555.30 512.11 L 1102.31 409.50" fill="none" stroke="#6c757d" stroke-width="3.2" stroke-linecap="round" stroke-linejoin="round" />
<circle cx="117.7" cy="148.0" r="4.4" fill="#6c757d" stroke="#fffdf7" stroke-width="1.4" />
<circle cx="172.4" cy="367.3" r="4.4" fill="#6c757d" stroke="#fffdf7" stroke-width="1.4" />
<circle cx="227.1" cy="514.4" r="4.4" fill="#6c757d" stroke="#fffdf7" stroke-width="1.4" />
<circle cx="281.8" cy="404.1" r="4.4" fill="#6c757d" stroke="#fffdf7" stroke-width="1.4" />
<circle cx="555.3" cy="512.1" r="4.4" fill="#6c757d" stroke="#fffdf7" stroke-width="1.4" />
<circle cx="1102.3" cy="409.5" r="4.4" fill="#6c757d" stroke="#fffdf7" stroke-width="1.4" />
<path d="M 117.69 275.87 L 172.39 388.73 L 227.09 456.98 L 281.79 499.68 L 555.30 493.43 L 1102.31 508.54" fill="none" stroke="#7b2cbf" stroke-width="3.2" stroke-linecap="round" stroke-linejoin="round" />
<circle cx="117.7" cy="275.9" r="4.4" fill="#7b2cbf" stroke="#fffdf7" stroke-width="1.4" />
<circle cx="172.4" cy="388.7" r="4.4" fill="#7b2cbf" stroke="#fffdf7" stroke-width="1.4" />
<circle cx="227.1" cy="457.0" r="4.4" fill="#7b2cbf" stroke="#fffdf7" stroke-width="1.4" />
<circle cx="281.8" cy="499.7" r="4.4" fill="#7b2cbf" stroke="#fffdf7" stroke-width="1.4" />
<circle cx="555.3" cy="493.4" r="4.4" fill="#7b2cbf" stroke="#fffdf7" stroke-width="1.4" />
<circle cx="1102.3" cy="508.5" r="4.4" fill="#7b2cbf" stroke="#fffdf7" stroke-width="1.4" />
<line x1="902.0" y1="114.0" x2="926.0" y2="114.0" stroke="#ca6702" stroke-width="4" stroke-linecap="round" />
<text x="936.0" y="118.0" fill="#1f1d1a" font-size="13" font-family="Trebuchet MS, Arial, sans-serif">25/10</text>
<line x1="902.0" y1="138.0" x2="926.0" y2="138.0" stroke="#0b6e4f" stroke-width="4" stroke-linecap="round" />
<text x="936.0" y="142.0" fill="#1f1d1a" font-size="13" font-family="Trebuchet MS, Arial, sans-serif">50/25</text>
<line x1="902.0" y1="162.0" x2="926.0" y2="162.0" stroke="#b02e0c" stroke-width="4" stroke-linecap="round" />
<text x="936.0" y="166.0" fill="#1f1d1a" font-size="13" font-family="Trebuchet MS, Arial, sans-serif">75/50</text>
<line x1="902.0" y1="186.0" x2="926.0" y2="186.0" stroke="#5f0f40" stroke-width="4" stroke-linecap="round" />
<text x="936.0" y="190.0" fill="#1f1d1a" font-size="13" font-family="Trebuchet MS, Arial, sans-serif">100/75</text>
<line x1="902.0" y1="210.0" x2="926.0" y2="210.0" stroke="#3a5a40" stroke-width="4" stroke-linecap="round" />
<text x="936.0" y="214.0" fill="#1f1d1a" font-size="13" font-family="Trebuchet MS, Arial, sans-serif">125/100</text>
<line x1="902.0" y1="234.0" x2="926.0" y2="234.0" stroke="#6c757d" stroke-width="4" stroke-linecap="round" />
<text x="936.0" y="238.0" fill="#1f1d1a" font-size="13" font-family="Trebuchet MS, Arial, sans-serif">200/125</text>
<line x1="902.0" y1="258.0" x2="926.0" y2="258.0" stroke="#7b2cbf" stroke-width="4" stroke-linecap="round" />
<text x="936.0" y="262.0" fill="#1f1d1a" font-size="13" font-family="Trebuchet MS, Arial, sans-serif">350/200</text>
<text x="610.0" y="694.0" text-anchor="middle" fill="#1f1d1a" font-size="14" font-family="Trebuchet MS, Arial, sans-serif">Epoch Budget</text>
<text x="24" y="377.0" transform="rotate(-90 24 377.0)" text-anchor="middle" fill="#1f1d1a" font-size="14" font-family="Trebuchet MS, Arial, sans-serif">Test RMSE</text>
</svg>