<svg xmlns="http://www.w3.org/2000/svg" width="1180" height="720" viewBox="0 0 1180 720" role="img" aria-label="Test RMSE vs Epoch Budget (Focused View)">
<rect width="1180" height="720" fill="#f7f4ea" />
<rect x="28.0" y="24.0" width="1124.0" height="672.0" rx="18" fill="#fffdf7" stroke="#e6dec9" />
<text x="52.0" y="58.0" fill="#1f1d1a" font-size="22" font-weight="700" font-family="Georgia, serif">Test RMSE vs Epoch Budget (Focused View)</text>
<text x="52.0" y="82.0" fill="#6f6659" font-size="13" font-family="Trebuchet MS, Arial, sans-serif">Lower is better.</text>
<line x1="98.0" y1="661.3" x2="1122.0" y2="661.3" stroke="#d9d2bf" stroke-width="1" />
<text x="86.0" y="666.3" text-anchor="end" fill="#6f6659" font-size="12" font-family="Trebuchet MS, Arial, sans-serif">250k</text>
<line x1="98.0" y1="564.6" x2="1122.0" y2="564.6" stroke="#d9d2bf" stroke-width="1" />
<text x="86.0" y="569.6" text-anchor="end" fill="#6f6659" font-size="12" font-family="Trebuchet MS, Arial, sans-serif">300k</text>
<line x1="98.0" y1="468.0" x2="1122.0" y2="468.0" stroke="#d9d2bf" stroke-width="1" />
<text x="86.0" y="473.0" text-anchor="end" fill="#6f6659" font-size="12" font-family="Trebuchet MS, Arial, sans-serif">350k</text>
<line x1="98.0" y1="371.4" x2="1122.0" y2="371.4" stroke="#d9d2bf" stroke-width="1" />
<text x="86.0" y="376.4" text-anchor="end" fill="#6f6659" font-size="12" font-family="Trebuchet MS, Arial, sans-serif">400k</text>
<line x1="98.0" y1="274.7" x2="1122.0" y2="274.7" stroke="#d9d2bf" stroke-width="1" />
<text x="86.0" y="279.7" text-anchor="end" fill="#6f6659" font-size="12" font-family="Trebuchet MS, Arial, sans-serif">450k</text>
<line x1="98.0" y1="178.1" x2="1122.0" y2="178.1" stroke="#d9d2bf" stroke-width="1" />
<text x="86.0" y="183.1" text-anchor="end" fill="#6f6659" font-size="12" font-family="Trebuchet MS, Arial, sans-serif">500k</text>
<line x1="98.0" y1="81.5" x2="1122.0" y2="81.5" stroke="#d9d2bf" stroke-width="1" />
<text x="86.0" y="86.5" text-anchor="end" fill="#6f6659" font-size="12" font-family="Trebuchet MS, Arial, sans-serif">550k</text>
<line x1="117.7" y1="106.0" x2="117.7" y2="648.0" stroke="#d9d2bf" stroke-width="1" />
<text x="117.7" y="670.0" text-anchor="middle" fill="#6f6659" font-size="12" font-family="Trebuchet MS, Arial, sans-serif">50</text>
<line x1="172.4" y1="106.0" x2="172.4" y2="648.0" stroke="#d9d2bf" stroke-width="1" />
<text x="172.4" y="670.0" text-anchor="middle" fill="#6f6659" font-size="12" font-family="Trebuchet MS, Arial, sans-serif">75</text>
<line x1="227.1" y1="106.0" x2="227.1" y2="648.0" stroke="#d9d2bf" stroke-width="1" />
<text x="227.1" y="670.0" text-anchor="middle" fill="#6f6659" font-size="12" font-family="Trebuchet MS, Arial, sans-serif">100</text>
<line x1="281.8" y1="106.0" x2="281.8" y2="648.0" stroke="#d9d2bf" stroke-width="1" />
<text x="281.8" y="670.0" text-anchor="middle" fill="#6f6659" font-size="12" font-family="Trebuchet MS, Arial, sans-serif">125</text>
<line x1="555.3" y1="106.0" x2="555.3" y2="648.0" stroke="#d9d2bf" stroke-width="1" />
<text x="555.3" y="670.0" text-anchor="middle" fill="#6f6659" font-size="12" font-family="Trebuchet MS, Arial, sans-serif">250</text>
<line x1="1102.3" y1="106.0" x2="1102.3" y2="648.0" stroke="#d9d2bf" stroke-width="1" />
<text x="1102.3" y="670.0" text-anchor="middle" fill="#6f6659" font-size="12" font-family="Trebuchet MS, Arial, sans-serif">500</text>
<line x1="98.0" y1="648.0" x2="1122.0" y2="648.0" stroke="#544b3d" stroke-width="1.6" />
<line x1="98.0" y1="106.0" x2="98.0" y2="648.0" stroke="#544b3d" stroke-width="1.6" />
<path d="M 117.69 544.19 L 172.39 143.38 L 227.09 558.90 L 281.79 572.12 L 555.30 581.64 L 1102.31 581.87" fill="none" stroke="#1b4965" stroke-width="3.2" stroke-linecap="round" stroke-linejoin="round" />
<circle cx="117.7" cy="544.2" r="4.4" fill="#1b4965" stroke="#fffdf7" stroke-width="1.4" />
<circle cx="172.4" cy="143.4" r="4.4" fill="#1b4965" stroke="#fffdf7" stroke-width="1.4" />
<circle cx="227.1" cy="558.9" r="4.4" fill="#1b4965" stroke="#fffdf7" stroke-width="1.4" />
<circle cx="281.8" cy="572.1" r="4.4" fill="#1b4965" stroke="#fffdf7" stroke-width="1.4" />
<circle cx="555.3" cy="581.6" r="4.4" fill="#1b4965" stroke="#fffdf7" stroke-width="1.4" />
<circle cx="1102.3" cy="581.9" r="4.4" fill="#1b4965" stroke="#fffdf7" stroke-width="1.4" />
<path d="M 117.69 565.18 L 172.39 574.47 L 227.09 591.13 L 281.79 574.65 L 555.30 573.10 L 1102.31 610.62" fill="none" stroke="#ca6702" stroke-width="3.2" stroke-linecap="round" stroke-linejoin="round" />
<circle cx="117.7" cy="565.2" r="4.4" fill="#ca6702" stroke="#fffdf7" stroke-width="1.4" />
<circle cx="172.4" cy="574.5" r="4.4" fill="#ca6702" stroke="#fffdf7" stroke-width="1.4" />
<circle cx="227.1" cy="591.1" r="4.4" fill="#ca6702" stroke="#fffdf7" stroke-width="1.4" />
<circle cx="281.8" cy="574.7" r="4.4" fill="#ca6702" stroke="#fffdf7" stroke-width="1.4" />
<circle cx="555.3" cy="573.1" r="4.4" fill="#ca6702" stroke="#fffdf7" stroke-width="1.4" />
<circle cx="1102.3" cy="610.6" r="4.4" fill="#ca6702" stroke="#fffdf7" stroke-width="1.4" />
<path d="M 117.69 528.41 L 172.39 596.31 L 227.09 581.55 L 281.79 602.24 L 555.30 599.28 L 1102.31 602.78" fill="none" stroke="#0b6e4f" stroke-width="3.2" stroke-linecap="round" stroke-linejoin="round" />
<circle cx="117.7" cy="528.4" r="4.4" fill="#0b6e4f" stroke="#fffdf7" stroke-width="1.4" />
<circle cx="172.4" cy="596.3" r="4.4" fill="#0b6e4f" stroke="#fffdf7" stroke-width="1.4" />
<circle cx="227.1" cy="581.5" r="4.4" fill="#0b6e4f" stroke="#fffdf7" stroke-width="1.4" />
<circle cx="281.8" cy="602.2" r="4.4" fill="#0b6e4f" stroke="#fffdf7" stroke-width="1.4" />
<circle cx="555.3" cy="599.3" r="4.4" fill="#0b6e4f" stroke="#fffdf7" stroke-width="1.4" />
<circle cx="1102.3" cy="602.8" r="4.4" fill="#0b6e4f" stroke="#fffdf7" stroke-width="1.4" />
<path d="M 117.69 556.07 L 172.39 574.78 L 227.09 584.93 L 281.79 581.41 L 555.30 593.63 L 1102.31 586.22" fill="none" stroke="#b02e0c" stroke-width="3.2" stroke-linecap="round" stroke-linejoin="round" />
<circle cx="117.7" cy="556.1" r="4.4" fill="#b02e0c" stroke="#fffdf7" stroke-width="1.4" />
<circle cx="172.4" cy="574.8" r="4.4" fill="#b02e0c" stroke="#fffdf7" stroke-width="1.4" />
<circle cx="227.1" cy="584.9" r="4.4" fill="#b02e0c" stroke="#fffdf7" stroke-width="1.4" />
<circle cx="281.8" cy="581.4" r="4.4" fill="#b02e0c" stroke="#fffdf7" stroke-width="1.4" />
<circle cx="555.3" cy="593.6" r="4.4" fill="#b02e0c" stroke="#fffdf7" stroke-width="1.4" />
<circle cx="1102.3" cy="586.2" r="4.4" fill="#b02e0c" stroke="#fffdf7" stroke-width="1.4" />
<path d="M 117.69 528.64 L 172.39 535.29 L 227.09 574.42 L 281.79 591.76 L 555.30 580.17 L 1102.31 600.68" fill="none" stroke="#5f0f40" stroke-width="3.2" stroke-linecap="round" stroke-linejoin="round" />
<circle cx="117.7" cy="528.6" r="4.4" fill="#5f0f40" stroke="#fffdf7" stroke-width="1.4" />
<circle cx="172.4" cy="535.3" r="4.4" fill="#5f0f40" stroke="#fffdf7" stroke-width="1.4" />
<circle cx="227.1" cy="574.4" r="4.4" fill="#5f0f40" stroke="#fffdf7" stroke-width="1.4" />
<circle cx="281.8" cy="591.8" r="4.4" fill="#5f0f40" stroke="#fffdf7" stroke-width="1.4" />
<circle cx="555.3" cy="580.2" r="4.4" fill="#5f0f40" stroke="#fffdf7" stroke-width="1.4" />
<circle cx="1102.3" cy="600.7" r="4.4" fill="#5f0f40" stroke="#fffdf7" stroke-width="1.4" />
<path d="M 117.69 569.77 L 172.39 539.81 L 227.09 580.56 L 281.79 579.15 L 555.30 595.15 L 1102.31 605.99" fill="none" stroke="#3a5a40" stroke-width="3.2" stroke-linecap="round" stroke-linejoin="round" />
<circle cx="117.7" cy="569.8" r="4.4" fill="#3a5a40" stroke="#fffdf7" stroke-width="1.4" />
<circle cx="172.4" cy="539.8" r="4.4" fill="#3a5a40" stroke="#fffdf7" stroke-width="1.4" />
<circle cx="227.1" cy="580.6" r="4.4" fill="#3a5a40" stroke="#fffdf7" stroke-width="1.4" />
<circle cx="281.8" cy="579.1" r="4.4" fill="#3a5a40" stroke="#fffdf7" stroke-width="1.4" />
<circle cx="555.3" cy="595.2" r="4.4" fill="#3a5a40" stroke="#fffdf7" stroke-width="1.4" />
<circle cx="1102.3" cy="606.0" r="4.4" fill="#3a5a40" stroke="#fffdf7" stroke-width="1.4" />
<path d="M 117.69 529.22 L 172.39 567.81 L 227.09 593.68 L 281.79 574.28 L 555.30 593.29 L 1102.31 575.23" fill="none" stroke="#6c757d" stroke-width="3.2" stroke-linecap="round" stroke-linejoin="round" />
<circle cx="117.7" cy="529.2" r="4.4" fill="#6c757d" stroke="#fffdf7" stroke-width="1.4" />
<circle cx="172.4" cy="567.8" r="4.4" fill="#6c757d" stroke="#fffdf7" stroke-width="1.4" />
<circle cx="227.1" cy="593.7" r="4.4" fill="#6c757d" stroke="#fffdf7" stroke-width="1.4" />
<circle cx="281.8" cy="574.3" r="4.4" fill="#6c757d" stroke="#fffdf7" stroke-width="1.4" />
<circle cx="555.3" cy="593.3" r="4.4" fill="#6c757d" stroke="#fffdf7" stroke-width="1.4" />
<circle cx="1102.3" cy="575.2" r="4.4" fill="#6c757d" stroke="#fffdf7" stroke-width="1.4" />
<path d="M 117.69 551.72 L 172.39 571.58 L 227.09 583.59 L 281.79 591.10 L 555.30 590.00 L 1102.31 592.66" fill="none" stroke="#7b2cbf" stroke-width="3.2" stroke-linecap="round" stroke-linejoin="round" />
<circle cx="117.7" cy="551.7" r="4.4" fill="#7b2cbf" stroke="#fffdf7" stroke-width="1.4" />
<circle cx="172.4" cy="571.6" r="4.4" fill="#7b2cbf" stroke="#fffdf7" stroke-width="1.4" />
<circle cx="227.1" cy="583.6" r="4.4" fill="#7b2cbf" stroke="#fffdf7" stroke-width="1.4" />
<circle cx="281.8" cy="591.1" r="4.4" fill="#7b2cbf" stroke="#fffdf7" stroke-width="1.4" />
<circle cx="555.3" cy="590.0" r="4.4" fill="#7b2cbf" stroke="#fffdf7" stroke-width="1.4" />
<circle cx="1102.3" cy="592.7" r="4.4" fill="#7b2cbf" stroke="#fffdf7" stroke-width="1.4" />
<line x1="902.0" y1="114.0" x2="926.0" y2="114.0" stroke="#1b4965" stroke-width="4" stroke-linecap="round" />
<text x="936.0" y="118.0" fill="#1f1d1a" font-size="13" font-family="Trebuchet MS, Arial, sans-serif">10/5</text>
<line x1="902.0" y1="138.0" x2="926.0" y2="138.0" stroke="#ca6702" stroke-width="4" stroke-linecap="round" />
<text x="936.0" y="142.0" fill="#1f1d1a" font-size="13" font-family="Trebuchet MS, Arial, sans-serif">25/10</text>
<line x1="902.0" y1="162.0" x2="926.0" y2="162.0" stroke="#0b6e4f" stroke-width="4" stroke-linecap="round" />
<text x="936.0" y="166.0" fill="#1f1d1a" font-size="13" font-family="Trebuchet MS, Arial, sans-serif">50/25</text>
<line x1="902.0" y1="186.0" x2="926.0" y2="186.0" stroke="#b02e0c" stroke-width="4" stroke-linecap="round" />
<text x="936.0" y="190.0" fill="#1f1d1a" font-size="13" font-family="Trebuchet MS, Arial, sans-serif">75/50</text>
<line x1="902.0" y1="210.0" x2="926.0" y2="210.0" stroke="#5f0f40" stroke-width="4" stroke-linecap="round" />
<text x="936.0" y="214.0" fill="#1f1d1a" font-size="13" font-family="Trebuchet MS, Arial, sans-serif">100/75</text>
<line x1="902.0" y1="234.0" x2="926.0" y2="234.0" stroke="#3a5a40" stroke-width="4" stroke-linecap="round" />
<text x="936.0" y="238.0" fill="#1f1d1a" font-size="13" font-family="Trebuchet MS, Arial, sans-serif">125/100</text>
<line x1="902.0" y1="258.0" x2="926.0" y2="258.0" stroke="#6c757d" stroke-width="4" stroke-linecap="round" />
<text x="936.0" y="262.0" fill="#1f1d1a" font-size="13" font-family="Trebuchet MS, Arial, sans-serif">200/125</text>
<line x1="902.0" y1="282.0" x2="926.0" y2="282.0" stroke="#7b2cbf" stroke-width="4" stroke-linecap="round" />
<text x="936.0" y="286.0" fill="#1f1d1a" font-size="13" font-family="Trebuchet MS, Arial, sans-serif">350/200</text>
<text x="610.0" y="694.0" text-anchor="middle" fill="#1f1d1a" font-size="14" font-family="Trebuchet MS, Arial, sans-serif">Epoch Budget</text>
<text x="24" y="377.0" transform="rotate(-90 24 377.0)" text-anchor="middle" fill="#1f1d1a" font-size="14" font-family="Trebuchet MS, Arial, sans-serif">Test RMSE</text>
</svg>