<svg xmlns="http://www.w3.org/2000/svg" width="1180" height="720" viewBox="0 0 1180 720" role="img" aria-label="Validation RMSE vs Epoch Budget">
<rect width="1180" height="720" fill="#f7f4ea" />
<rect x="28.0" y="24.0" width="1124.0" height="672.0" rx="18" fill="#fffdf7" stroke="#e6dec9" />
<text x="52.0" y="58.0" fill="#1f1d1a" font-size="22" font-weight="700" font-family="Georgia, serif">Validation RMSE vs Epoch Budget</text>
<line x1="98.0" y1="692.8" x2="1122.0" y2="692.8" stroke="#d9d2bf" stroke-width="1" />
<text x="86.0" y="697.8" text-anchor="end" fill="#6f6659" font-size="12" font-family="Trebuchet MS, Arial, sans-serif">100k</text>
<line x1="98.0" y1="607.5" x2="1122.0" y2="607.5" stroke="#d9d2bf" stroke-width="1" />
<text x="86.0" y="612.5" text-anchor="end" fill="#6f6659" font-size="12" font-family="Trebuchet MS, Arial, sans-serif">200k</text>
<line x1="98.0" y1="522.2" x2="1122.0" y2="522.2" stroke="#d9d2bf" stroke-width="1" />
<text x="86.0" y="527.2" text-anchor="end" fill="#6f6659" font-size="12" font-family="Trebuchet MS, Arial, sans-serif">300k</text>
<line x1="98.0" y1="436.9" x2="1122.0" y2="436.9" stroke="#d9d2bf" stroke-width="1" />
<text x="86.0" y="441.9" text-anchor="end" fill="#6f6659" font-size="12" font-family="Trebuchet MS, Arial, sans-serif">400k</text>
<line x1="98.0" y1="351.6" x2="1122.0" y2="351.6" stroke="#d9d2bf" stroke-width="1" />
<text x="86.0" y="356.6" text-anchor="end" fill="#6f6659" font-size="12" font-family="Trebuchet MS, Arial, sans-serif">500k</text>
<line x1="98.0" y1="266.3" x2="1122.0" y2="266.3" stroke="#d9d2bf" stroke-width="1" />
<text x="86.0" y="271.3" text-anchor="end" fill="#6f6659" font-size="12" font-family="Trebuchet MS, Arial, sans-serif">600k</text>
<line x1="98.0" y1="181.0" x2="1122.0" y2="181.0" stroke="#d9d2bf" stroke-width="1" />
<text x="86.0" y="186.0" text-anchor="end" fill="#6f6659" font-size="12" font-family="Trebuchet MS, Arial, sans-serif">700k</text>
<line x1="98.0" y1="95.7" x2="1122.0" y2="95.7" stroke="#d9d2bf" stroke-width="1" />
<text x="86.0" y="100.7" text-anchor="end" fill="#6f6659" font-size="12" font-family="Trebuchet MS, Arial, sans-serif">800k</text>
<line x1="98.0" y1="10.4" x2="1122.0" y2="10.4" stroke="#d9d2bf" stroke-width="1" />
<text x="86.0" y="15.4" text-anchor="end" fill="#6f6659" font-size="12" font-family="Trebuchet MS, Arial, sans-serif">900k</text>
<line x1="117.7" y1="90.0" x2="117.7" y2="648.0" stroke="#d9d2bf" stroke-width="1" />
<text x="117.7" y="670.0" text-anchor="middle" fill="#6f6659" font-size="12" font-family="Trebuchet MS, Arial, sans-serif">10</text>
<line x1="147.8" y1="90.0" x2="147.8" y2="648.0" stroke="#d9d2bf" stroke-width="1" />
<text x="147.8" y="670.0" text-anchor="middle" fill="#6f6659" font-size="12" font-family="Trebuchet MS, Arial, sans-serif">25</text>
<line x1="198.1" y1="90.0" x2="198.1" y2="648.0" stroke="#d9d2bf" stroke-width="1" />
<text x="198.1" y="670.0" text-anchor="middle" fill="#6f6659" font-size="12" font-family="Trebuchet MS, Arial, sans-serif">50</text>
<line x1="248.3" y1="90.0" x2="248.3" y2="648.0" stroke="#d9d2bf" stroke-width="1" />
<text x="248.3" y="670.0" text-anchor="middle" fill="#6f6659" font-size="12" font-family="Trebuchet MS, Arial, sans-serif">75</text>
<line x1="298.5" y1="90.0" x2="298.5" y2="648.0" stroke="#d9d2bf" stroke-width="1" />
<text x="298.5" y="670.0" text-anchor="middle" fill="#6f6659" font-size="12" font-family="Trebuchet MS, Arial, sans-serif">100</text>
<line x1="348.8" y1="90.0" x2="348.8" y2="648.0" stroke="#d9d2bf" stroke-width="1" />
<text x="348.8" y="670.0" text-anchor="middle" fill="#6f6659" font-size="12" font-family="Trebuchet MS, Arial, sans-serif">125</text>
<line x1="600.0" y1="90.0" x2="600.0" y2="648.0" stroke="#d9d2bf" stroke-width="1" />
<text x="600.0" y="670.0" text-anchor="middle" fill="#6f6659" font-size="12" font-family="Trebuchet MS, Arial, sans-serif">250</text>
<line x1="1102.3" y1="90.0" x2="1102.3" y2="648.0" stroke="#d9d2bf" stroke-width="1" />
<text x="1102.3" y="670.0" text-anchor="middle" fill="#6f6659" font-size="12" font-family="Trebuchet MS, Arial, sans-serif">500</text>
<line x1="98.0" y1="648.0" x2="1122.0" y2="648.0" stroke="#544b3d" stroke-width="1.6" />
<line x1="98.0" y1="90.0" x2="98.0" y2="648.0" stroke="#544b3d" stroke-width="1.6" />
<path d="M 117.69 321.56 L 147.83 561.71 L 198.07 584.67 L 248.30 554.92 L 298.54 585.30 L 348.78 586.63 L 599.95 584.19 L 1102.31 588.16" fill="none" stroke="#1b4965" stroke-width="3.2" stroke-linecap="round" stroke-linejoin="round" />
<circle cx="117.7" cy="321.6" r="4.4" fill="#1b4965" stroke="#fffdf7" stroke-width="1.4" />
<circle cx="147.8" cy="561.7" r="4.4" fill="#1b4965" stroke="#fffdf7" stroke-width="1.4" />
<circle cx="198.1" cy="584.7" r="4.4" fill="#1b4965" stroke="#fffdf7" stroke-width="1.4" />
<circle cx="248.3" cy="554.9" r="4.4" fill="#1b4965" stroke="#fffdf7" stroke-width="1.4" />
<circle cx="298.5" cy="585.3" r="4.4" fill="#1b4965" stroke="#fffdf7" stroke-width="1.4" />
<circle cx="348.8" cy="586.6" r="4.4" fill="#1b4965" stroke="#fffdf7" stroke-width="1.4" />
<circle cx="600.0" cy="584.2" r="4.4" fill="#1b4965" stroke="#fffdf7" stroke-width="1.4" />
<circle cx="1102.3" cy="588.2" r="4.4" fill="#1b4965" stroke="#fffdf7" stroke-width="1.4" />
<path d="M 117.69 128.48 L 147.83 569.10 L 198.07 586.13 L 248.30 594.06 L 298.54 598.65 L 348.78 593.85 L 599.95 602.30 L 1102.31 606.71" fill="none" stroke="#ca6702" stroke-width="3.2" stroke-linecap="round" stroke-linejoin="round" />
<circle cx="117.7" cy="128.5" r="4.4" fill="#ca6702" stroke="#fffdf7" stroke-width="1.4" />
<circle cx="147.8" cy="569.1" r="4.4" fill="#ca6702" stroke="#fffdf7" stroke-width="1.4" />
<circle cx="198.1" cy="586.1" r="4.4" fill="#ca6702" stroke="#fffdf7" stroke-width="1.4" />
<circle cx="248.3" cy="594.1" r="4.4" fill="#ca6702" stroke="#fffdf7" stroke-width="1.4" />
<circle cx="298.5" cy="598.6" r="4.4" fill="#ca6702" stroke="#fffdf7" stroke-width="1.4" />
<circle cx="348.8" cy="593.9" r="4.4" fill="#ca6702" stroke="#fffdf7" stroke-width="1.4" />
<circle cx="600.0" cy="602.3" r="4.4" fill="#ca6702" stroke="#fffdf7" stroke-width="1.4" />
<circle cx="1102.3" cy="606.7" r="4.4" fill="#ca6702" stroke="#fffdf7" stroke-width="1.4" />
<path d="M 117.69 433.32 L 147.83 582.06 L 198.07 589.91 L 248.30 599.34 L 298.54 603.30 L 348.78 603.26 L 599.95 606.34 L 1102.31 607.05" fill="none" stroke="#0b6e4f" stroke-width="3.2" stroke-linecap="round" stroke-linejoin="round" />
<circle cx="117.7" cy="433.3" r="4.4" fill="#0b6e4f" stroke="#fffdf7" stroke-width="1.4" />
<circle cx="147.8" cy="582.1" r="4.4" fill="#0b6e4f" stroke="#fffdf7" stroke-width="1.4" />
<circle cx="198.1" cy="589.9" r="4.4" fill="#0b6e4f" stroke="#fffdf7" stroke-width="1.4" />
<circle cx="248.3" cy="599.3" r="4.4" fill="#0b6e4f" stroke="#fffdf7" stroke-width="1.4" />
<circle cx="298.5" cy="603.3" r="4.4" fill="#0b6e4f" stroke="#fffdf7" stroke-width="1.4" />
<circle cx="348.8" cy="603.3" r="4.4" fill="#0b6e4f" stroke="#fffdf7" stroke-width="1.4" />
<circle cx="600.0" cy="606.3" r="4.4" fill="#0b6e4f" stroke="#fffdf7" stroke-width="1.4" />
<circle cx="1102.3" cy="607.0" r="4.4" fill="#0b6e4f" stroke="#fffdf7" stroke-width="1.4" />
<path d="M 117.69 519.74 L 147.83 572.95 L 198.07 590.14 L 248.30 596.15 L 298.54 601.71 L 348.78 602.05 L 599.95 607.10 L 1102.31 607.91" fill="none" stroke="#b02e0c" stroke-width="3.2" stroke-linecap="round" stroke-linejoin="round" />
<circle cx="117.7" cy="519.7" r="4.4" fill="#b02e0c" stroke="#fffdf7" stroke-width="1.4" />
<circle cx="147.8" cy="572.9" r="4.4" fill="#b02e0c" stroke="#fffdf7" stroke-width="1.4" />
<circle cx="198.1" cy="590.1" r="4.4" fill="#b02e0c" stroke="#fffdf7" stroke-width="1.4" />
<circle cx="248.3" cy="596.2" r="4.4" fill="#b02e0c" stroke="#fffdf7" stroke-width="1.4" />
<circle cx="298.5" cy="601.7" r="4.4" fill="#b02e0c" stroke="#fffdf7" stroke-width="1.4" />
<circle cx="348.8" cy="602.1" r="4.4" fill="#b02e0c" stroke="#fffdf7" stroke-width="1.4" />
<circle cx="600.0" cy="607.1" r="4.4" fill="#b02e0c" stroke="#fffdf7" stroke-width="1.4" />
<circle cx="1102.3" cy="607.9" r="4.4" fill="#b02e0c" stroke="#fffdf7" stroke-width="1.4" />
<path d="M 117.69 547.51 L 147.83 577.06 L 198.07 586.55 L 248.30 597.74 L 298.54 603.40 L 348.78 605.74 L 599.95 605.42 L 1102.31 609.52" fill="none" stroke="#5f0f40" stroke-width="3.2" stroke-linecap="round" stroke-linejoin="round" />
<circle cx="117.7" cy="547.5" r="4.4" fill="#5f0f40" stroke="#fffdf7" stroke-width="1.4" />
<circle cx="147.8" cy="577.1" r="4.4" fill="#5f0f40" stroke="#fffdf7" stroke-width="1.4" />
<circle cx="198.1" cy="586.5" r="4.4" fill="#5f0f40" stroke="#fffdf7" stroke-width="1.4" />
<circle cx="248.3" cy="597.7" r="4.4" fill="#5f0f40" stroke="#fffdf7" stroke-width="1.4" />
<circle cx="298.5" cy="603.4" r="4.4" fill="#5f0f40" stroke="#fffdf7" stroke-width="1.4" />
<circle cx="348.8" cy="605.7" r="4.4" fill="#5f0f40" stroke="#fffdf7" stroke-width="1.4" />
<circle cx="600.0" cy="605.4" r="4.4" fill="#5f0f40" stroke="#fffdf7" stroke-width="1.4" />
<circle cx="1102.3" cy="609.5" r="4.4" fill="#5f0f40" stroke="#fffdf7" stroke-width="1.4" />
<path d="M 117.69 548.66 L 147.83 582.74 L 198.07 597.92 L 248.30 598.60 L 298.54 601.49 L 348.78 603.77 L 599.95 607.25 L 1102.31 609.26" fill="none" stroke="#3a5a40" stroke-width="3.2" stroke-linecap="round" stroke-linejoin="round" />
<circle cx="117.7" cy="548.7" r="4.4" fill="#3a5a40" stroke="#fffdf7" stroke-width="1.4" />
<circle cx="147.8" cy="582.7" r="4.4" fill="#3a5a40" stroke="#fffdf7" stroke-width="1.4" />
<circle cx="198.1" cy="597.9" r="4.4" fill="#3a5a40" stroke="#fffdf7" stroke-width="1.4" />
<circle cx="248.3" cy="598.6" r="4.4" fill="#3a5a40" stroke="#fffdf7" stroke-width="1.4" />
<circle cx="298.5" cy="601.5" r="4.4" fill="#3a5a40" stroke="#fffdf7" stroke-width="1.4" />
<circle cx="348.8" cy="603.8" r="4.4" fill="#3a5a40" stroke="#fffdf7" stroke-width="1.4" />
<circle cx="600.0" cy="607.3" r="4.4" fill="#3a5a40" stroke="#fffdf7" stroke-width="1.4" />
<circle cx="1102.3" cy="609.3" r="4.4" fill="#3a5a40" stroke="#fffdf7" stroke-width="1.4" />
<path d="M 117.69 562.35 L 147.83 582.06 L 198.07 590.12 L 248.30 600.56 L 298.54 603.49 L 348.78 601.36 L 599.95 608.01 L 1102.31 604.60" fill="none" stroke="#6c757d" stroke-width="3.2" stroke-linecap="round" stroke-linejoin="round" />
<circle cx="117.7" cy="562.3" r="4.4" fill="#6c757d" stroke="#fffdf7" stroke-width="1.4" />
<circle cx="147.8" cy="582.1" r="4.4" fill="#6c757d" stroke="#fffdf7" stroke-width="1.4" />
<circle cx="198.1" cy="590.1" r="4.4" fill="#6c757d" stroke="#fffdf7" stroke-width="1.4" />
<circle cx="248.3" cy="600.6" r="4.4" fill="#6c757d" stroke="#fffdf7" stroke-width="1.4" />
<circle cx="298.5" cy="603.5" r="4.4" fill="#6c757d" stroke="#fffdf7" stroke-width="1.4" />
<circle cx="348.8" cy="601.4" r="4.4" fill="#6c757d" stroke="#fffdf7" stroke-width="1.4" />
<circle cx="600.0" cy="608.0" r="4.4" fill="#6c757d" stroke="#fffdf7" stroke-width="1.4" />
<circle cx="1102.3" cy="604.6" r="4.4" fill="#6c757d" stroke="#fffdf7" stroke-width="1.4" />
<path d="M 117.69 581.02 L 147.83 593.85 L 198.07 600.05 L 248.30 602.93 L 298.54 603.93 L 348.78 605.21 L 599.95 607.80 L 1102.31 608.22" fill="none" stroke="#7b2cbf" stroke-width="3.2" stroke-linecap="round" stroke-linejoin="round" />
<circle cx="117.7" cy="581.0" r="4.4" fill="#7b2cbf" stroke="#fffdf7" stroke-width="1.4" />
<circle cx="147.8" cy="593.8" r="4.4" fill="#7b2cbf" stroke="#fffdf7" stroke-width="1.4" />
<circle cx="198.1" cy="600.0" r="4.4" fill="#7b2cbf" stroke="#fffdf7" stroke-width="1.4" />
<circle cx="248.3" cy="602.9" r="4.4" fill="#7b2cbf" stroke="#fffdf7" stroke-width="1.4" />
<circle cx="298.5" cy="603.9" r="4.4" fill="#7b2cbf" stroke="#fffdf7" stroke-width="1.4" />
<circle cx="348.8" cy="605.2" r="4.4" fill="#7b2cbf" stroke="#fffdf7" stroke-width="1.4" />
<circle cx="600.0" cy="607.8" r="4.4" fill="#7b2cbf" stroke="#fffdf7" stroke-width="1.4" />
<circle cx="1102.3" cy="608.2" r="4.4" fill="#7b2cbf" stroke="#fffdf7" stroke-width="1.4" />
<line x1="902.0" y1="98.0" x2="926.0" y2="98.0" stroke="#1b4965" stroke-width="4" stroke-linecap="round" />
<text x="936.0" y="102.0" fill="#1f1d1a" font-size="13" font-family="Trebuchet MS, Arial, sans-serif">10/5</text>
<line x1="902.0" y1="122.0" x2="926.0" y2="122.0" stroke="#ca6702" stroke-width="4" stroke-linecap="round" />
<text x="936.0" y="126.0" fill="#1f1d1a" font-size="13" font-family="Trebuchet MS, Arial, sans-serif">25/10</text>
<line x1="902.0" y1="146.0" x2="926.0" y2="146.0" stroke="#0b6e4f" stroke-width="4" stroke-linecap="round" />
<text x="936.0" y="150.0" fill="#1f1d1a" font-size="13" font-family="Trebuchet MS, Arial, sans-serif">50/25</text>
<line x1="902.0" y1="170.0" x2="926.0" y2="170.0" stroke="#b02e0c" stroke-width="4" stroke-linecap="round" />
<text x="936.0" y="174.0" fill="#1f1d1a" font-size="13" font-family="Trebuchet MS, Arial, sans-serif">75/50</text>
<line x1="902.0" y1="194.0" x2="926.0" y2="194.0" stroke="#5f0f40" stroke-width="4" stroke-linecap="round" />
<text x="936.0" y="198.0" fill="#1f1d1a" font-size="13" font-family="Trebuchet MS, Arial, sans-serif">100/75</text>
<line x1="902.0" y1="218.0" x2="926.0" y2="218.0" stroke="#3a5a40" stroke-width="4" stroke-linecap="round" />
<text x="936.0" y="222.0" fill="#1f1d1a" font-size="13" font-family="Trebuchet MS, Arial, sans-serif">125/100</text>
<line x1="902.0" y1="242.0" x2="926.0" y2="242.0" stroke="#6c757d" stroke-width="4" stroke-linecap="round" />
<text x="936.0" y="246.0" fill="#1f1d1a" font-size="13" font-family="Trebuchet MS, Arial, sans-serif">200/125</text>
<line x1="902.0" y1="266.0" x2="926.0" y2="266.0" stroke="#7b2cbf" stroke-width="4" stroke-linecap="round" />
<text x="936.0" y="270.0" fill="#1f1d1a" font-size="13" font-family="Trebuchet MS, Arial, sans-serif">350/200</text>
<text x="610.0" y="694.0" text-anchor="middle" fill="#1f1d1a" font-size="14" font-family="Trebuchet MS, Arial, sans-serif">Epoch Budget</text>
<text x="24" y="369.0" transform="rotate(-90 24 369.0)" text-anchor="middle" fill="#1f1d1a" font-size="14" font-family="Trebuchet MS, Arial, sans-serif">Validation RMSE</text>
</svg>