<svg xmlns="http://www.w3.org/2000/svg" width="980" height="940" viewBox="0 0 980 940" role="img" aria-label="Validation vs Test Metrics">
<rect width="980" height="940" fill="#f7f4ea" />
<text x="42" y="46" fill="#1f1d1a" font-size="28" font-weight="700" font-family="Georgia, serif">Validation vs Test Metrics</text>
<text x="42" y="68" fill="#6f6659" font-size="13" font-family="Trebuchet MS, Arial, sans-serif">RMSE and MAPE: lower is better. R^2: higher is better.</text>
<rect x="42.0" y="76.0" width="896.0" height="255.0" rx="18" fill="#fffdf7" stroke="#e6dec9" />
<text x="66.0" y="110.0" fill="#1f1d1a" font-size="22" font-weight="700" font-family="Georgia, serif">RMSE</text>
<line x1="112.0" y1="296.2" x2="908.0" y2="296.2" stroke="#d9d2bf" stroke-width="1" />
<text x="102.0" y="300.2" text-anchor="end" fill="#6f6659" font-size="11" font-family="Trebuchet MS, Arial, sans-serif">180k</text>
<line x1="112.0" y1="270.2" x2="908.0" y2="270.2" stroke="#d9d2bf" stroke-width="1" />
<text x="102.0" y="274.2" text-anchor="end" fill="#6f6659" font-size="11" font-family="Trebuchet MS, Arial, sans-serif">200k</text>
<line x1="112.0" y1="244.2" x2="908.0" y2="244.2" stroke="#d9d2bf" stroke-width="1" />
<text x="102.0" y="248.2" text-anchor="end" fill="#6f6659" font-size="11" font-family="Trebuchet MS, Arial, sans-serif">220k</text>
<line x1="112.0" y1="218.2" x2="908.0" y2="218.2" stroke="#d9d2bf" stroke-width="1" />
<text x="102.0" y="222.2" text-anchor="end" fill="#6f6659" font-size="11" font-family="Trebuchet MS, Arial, sans-serif">240k</text>
<line x1="112.0" y1="192.1" x2="908.0" y2="192.1" stroke="#d9d2bf" stroke-width="1" />
<text x="102.0" y="196.1" text-anchor="end" fill="#6f6659" font-size="11" font-family="Trebuchet MS, Arial, sans-serif">260k</text>
<line x1="112.0" y1="166.1" x2="908.0" y2="166.1" stroke="#d9d2bf" stroke-width="1" />
<text x="102.0" y="170.1" text-anchor="end" fill="#6f6659" font-size="11" font-family="Trebuchet MS, Arial, sans-serif">280k</text>
<line x1="112.0" y1="140.1" x2="908.0" y2="140.1" stroke="#d9d2bf" stroke-width="1" />
<text x="102.0" y="144.1" text-anchor="end" fill="#6f6659" font-size="11" font-family="Trebuchet MS, Arial, sans-serif">300k</text>
<line x1="141.5" y1="142.0" x2="141.5" y2="283.0" stroke="#d9d2bf" stroke-width="1" />
<text x="141.5" y="301.0" text-anchor="middle" fill="#6f6659" font-size="11" font-family="Trebuchet MS, Arial, sans-serif">10/5</text>
<line x1="246.8" y1="142.0" x2="246.8" y2="283.0" stroke="#d9d2bf" stroke-width="1" />
<text x="246.8" y="301.0" text-anchor="middle" fill="#6f6659" font-size="11" font-family="Trebuchet MS, Arial, sans-serif">25/10</text>
<line x1="352.1" y1="142.0" x2="352.1" y2="283.0" stroke="#d9d2bf" stroke-width="1" />
<text x="352.1" y="301.0" text-anchor="middle" fill="#6f6659" font-size="11" font-family="Trebuchet MS, Arial, sans-serif">50/25</text>
<line x1="457.4" y1="142.0" x2="457.4" y2="283.0" stroke="#d9d2bf" stroke-width="1" />
<text x="457.4" y="301.0" text-anchor="middle" fill="#6f6659" font-size="11" font-family="Trebuchet MS, Arial, sans-serif">75/50</text>
<line x1="562.6" y1="142.0" x2="562.6" y2="283.0" stroke="#d9d2bf" stroke-width="1" />
<text x="562.6" y="301.0" text-anchor="middle" fill="#6f6659" font-size="11" font-family="Trebuchet MS, Arial, sans-serif">100/75</text>
<line x1="667.9" y1="142.0" x2="667.9" y2="283.0" stroke="#d9d2bf" stroke-width="1" />
<text x="667.9" y="301.0" text-anchor="middle" fill="#6f6659" font-size="11" font-family="Trebuchet MS, Arial, sans-serif">125/100</text>
<line x1="773.2" y1="142.0" x2="773.2" y2="283.0" stroke="#d9d2bf" stroke-width="1" />
<text x="773.2" y="301.0" text-anchor="middle" fill="#6f6659" font-size="11" font-family="Trebuchet MS, Arial, sans-serif">200/125</text>
<line x1="878.5" y1="142.0" x2="878.5" y2="283.0" stroke="#d9d2bf" stroke-width="1" />
<text x="878.5" y="301.0" text-anchor="middle" fill="#6f6659" font-size="11" font-family="Trebuchet MS, Arial, sans-serif">350/200</text>
<path d="M 141.48 240.71 L 246.77 268.99 L 352.06 269.51 L 457.35 269.59 L 562.65 273.28 L 667.94 272.88 L 773.23 264.09 L 878.52 271.29" fill="none" stroke="#355070" stroke-width="3.2" stroke-linecap="round" stroke-linejoin="round" />
<circle cx="141.5" cy="240.7" r="4.5" fill="#355070" stroke="#fffdf7" stroke-width="1.3" />
<circle cx="246.8" cy="269.0" r="4.5" fill="#355070" stroke="#fffdf7" stroke-width="1.3" />
<circle cx="352.1" cy="269.5" r="4.5" fill="#355070" stroke="#fffdf7" stroke-width="1.3" />
<circle cx="457.4" cy="269.6" r="4.5" fill="#355070" stroke="#fffdf7" stroke-width="1.3" />
<circle cx="562.6" cy="273.3" r="4.5" fill="#355070" stroke="#fffdf7" stroke-width="1.3" />
<circle cx="667.9" cy="272.9" r="4.5" fill="#355070" stroke="#fffdf7" stroke-width="1.3" />
<circle cx="773.2" cy="264.1" r="4.5" fill="#355070" stroke="#fffdf7" stroke-width="1.3" />
<circle cx="878.5" cy="271.3" r="4.5" fill="#355070" stroke="#fffdf7" stroke-width="1.3" />
<path d="M 141.48 151.72 L 246.77 171.07 L 352.06 165.80 L 457.35 159.63 L 562.65 164.38 L 667.94 167.95 L 773.23 159.67 L 878.52 158.98" fill="none" stroke="#c1121f" stroke-width="3.2" stroke-linecap="round" stroke-linejoin="round" />
<circle cx="141.5" cy="151.7" r="4.5" fill="#c1121f" stroke="#fffdf7" stroke-width="1.3" />
<circle cx="246.8" cy="171.1" r="4.5" fill="#c1121f" stroke="#fffdf7" stroke-width="1.3" />
<circle cx="352.1" cy="165.8" r="4.5" fill="#c1121f" stroke="#fffdf7" stroke-width="1.3" />
<circle cx="457.4" cy="159.6" r="4.5" fill="#c1121f" stroke="#fffdf7" stroke-width="1.3" />
<circle cx="562.6" cy="164.4" r="4.5" fill="#c1121f" stroke="#fffdf7" stroke-width="1.3" />
<circle cx="667.9" cy="168.0" r="4.5" fill="#c1121f" stroke="#fffdf7" stroke-width="1.3" />
<circle cx="773.2" cy="159.7" r="4.5" fill="#c1121f" stroke="#fffdf7" stroke-width="1.3" />
<circle cx="878.5" cy="159.0" r="4.5" fill="#c1121f" stroke="#fffdf7" stroke-width="1.3" />
<line x1="728.0" y1="154.0" x2="752.0" y2="154.0" stroke="#355070" stroke-width="4" stroke-linecap="round" />
<text x="762.0" y="158.0" fill="#1f1d1a" font-size="12" font-family="Trebuchet MS, Arial, sans-serif">Validation</text>
<line x1="728.0" y1="176.0" x2="752.0" y2="176.0" stroke="#c1121f" stroke-width="4" stroke-linecap="round" />
<text x="762.0" y="180.0" fill="#1f1d1a" font-size="12" font-family="Trebuchet MS, Arial, sans-serif">Test</text>
<text x="510.0" y="321.0" text-anchor="middle" fill="#1f1d1a" font-size="12" font-family="Trebuchet MS, Arial, sans-serif">Layer 1 / Layer 2 Neurons</text>
<rect x="42.0" y="357.0" width="896.0" height="255.0" rx="18" fill="#fffdf7" stroke="#e6dec9" />
<text x="66.0" y="391.0" fill="#1f1d1a" font-size="22" font-weight="700" font-family="Georgia, serif">MAPE</text>
<line x1="112.0" y1="573.5" x2="908.0" y2="573.5" stroke="#d9d2bf" stroke-width="1" />
<text x="102.0" y="577.5" text-anchor="end" fill="#6f6659" font-size="11" font-family="Trebuchet MS, Arial, sans-serif">0.15</text>
<line x1="112.0" y1="527.1" x2="908.0" y2="527.1" stroke="#d9d2bf" stroke-width="1" />
<text x="102.0" y="531.1" text-anchor="end" fill="#6f6659" font-size="11" font-family="Trebuchet MS, Arial, sans-serif">0.2</text>
<line x1="112.0" y1="480.7" x2="908.0" y2="480.7" stroke="#d9d2bf" stroke-width="1" />
<text x="102.0" y="484.7" text-anchor="end" fill="#6f6659" font-size="11" font-family="Trebuchet MS, Arial, sans-serif">0.25</text>
<line x1="112.0" y1="434.4" x2="908.0" y2="434.4" stroke="#d9d2bf" stroke-width="1" />
<text x="102.0" y="438.4" text-anchor="end" fill="#6f6659" font-size="11" font-family="Trebuchet MS, Arial, sans-serif">0.3</text>
<line x1="112.0" y1="388.0" x2="908.0" y2="388.0" stroke="#d9d2bf" stroke-width="1" />
<text x="102.0" y="392.0" text-anchor="end" fill="#6f6659" font-size="11" font-family="Trebuchet MS, Arial, sans-serif">0.35</text>
<line x1="141.5" y1="423.0" x2="141.5" y2="564.0" stroke="#d9d2bf" stroke-width="1" />
<text x="141.5" y="582.0" text-anchor="middle" fill="#6f6659" font-size="11" font-family="Trebuchet MS, Arial, sans-serif">10/5</text>
<line x1="246.8" y1="423.0" x2="246.8" y2="564.0" stroke="#d9d2bf" stroke-width="1" />
<text x="246.8" y="582.0" text-anchor="middle" fill="#6f6659" font-size="11" font-family="Trebuchet MS, Arial, sans-serif">25/10</text>
<line x1="352.1" y1="423.0" x2="352.1" y2="564.0" stroke="#d9d2bf" stroke-width="1" />
<text x="352.1" y="582.0" text-anchor="middle" fill="#6f6659" font-size="11" font-family="Trebuchet MS, Arial, sans-serif">50/25</text>
<line x1="457.4" y1="423.0" x2="457.4" y2="564.0" stroke="#d9d2bf" stroke-width="1" />
<text x="457.4" y="582.0" text-anchor="middle" fill="#6f6659" font-size="11" font-family="Trebuchet MS, Arial, sans-serif">75/50</text>
<line x1="562.6" y1="423.0" x2="562.6" y2="564.0" stroke="#d9d2bf" stroke-width="1" />
<text x="562.6" y="582.0" text-anchor="middle" fill="#6f6659" font-size="11" font-family="Trebuchet MS, Arial, sans-serif">100/75</text>
<line x1="667.9" y1="423.0" x2="667.9" y2="564.0" stroke="#d9d2bf" stroke-width="1" />
<text x="667.9" y="582.0" text-anchor="middle" fill="#6f6659" font-size="11" font-family="Trebuchet MS, Arial, sans-serif">125/100</text>
<line x1="773.2" y1="423.0" x2="773.2" y2="564.0" stroke="#d9d2bf" stroke-width="1" />
<text x="773.2" y="582.0" text-anchor="middle" fill="#6f6659" font-size="11" font-family="Trebuchet MS, Arial, sans-serif">200/125</text>
<line x1="878.5" y1="423.0" x2="878.5" y2="564.0" stroke="#d9d2bf" stroke-width="1" />
<text x="878.5" y="582.0" text-anchor="middle" fill="#6f6659" font-size="11" font-family="Trebuchet MS, Arial, sans-serif">350/200</text>
<path d="M 141.48 531.70 L 246.77 554.28 L 352.06 506.50 L 457.35 542.01 L 562.65 512.85 L 667.94 546.77 L 773.23 523.23 L 878.52 534.68" fill="none" stroke="#355070" stroke-width="3.2" stroke-linecap="round" stroke-linejoin="round" />
<circle cx="141.5" cy="531.7" r="4.5" fill="#355070" stroke="#fffdf7" stroke-width="1.3" />
<circle cx="246.8" cy="554.3" r="4.5" fill="#355070" stroke="#fffdf7" stroke-width="1.3" />
<circle cx="352.1" cy="506.5" r="4.5" fill="#355070" stroke="#fffdf7" stroke-width="1.3" />
<circle cx="457.4" cy="542.0" r="4.5" fill="#355070" stroke="#fffdf7" stroke-width="1.3" />
<circle cx="562.6" cy="512.9" r="4.5" fill="#355070" stroke="#fffdf7" stroke-width="1.3" />
<circle cx="667.9" cy="546.8" r="4.5" fill="#355070" stroke="#fffdf7" stroke-width="1.3" />
<circle cx="773.2" cy="523.2" r="4.5" fill="#355070" stroke="#fffdf7" stroke-width="1.3" />
<circle cx="878.5" cy="534.7" r="4.5" fill="#355070" stroke="#fffdf7" stroke-width="1.3" />
<path d="M 141.48 515.85 L 246.77 528.15 L 352.06 468.64 L 457.35 459.26 L 562.65 432.72 L 667.94 487.95 L 773.23 446.15 L 878.52 437.75" fill="none" stroke="#c1121f" stroke-width="3.2" stroke-linecap="round" stroke-linejoin="round" />
<circle cx="141.5" cy="515.9" r="4.5" fill="#c1121f" stroke="#fffdf7" stroke-width="1.3" />
<circle cx="246.8" cy="528.1" r="4.5" fill="#c1121f" stroke="#fffdf7" stroke-width="1.3" />
<circle cx="352.1" cy="468.6" r="4.5" fill="#c1121f" stroke="#fffdf7" stroke-width="1.3" />
<circle cx="457.4" cy="459.3" r="4.5" fill="#c1121f" stroke="#fffdf7" stroke-width="1.3" />
<circle cx="562.6" cy="432.7" r="4.5" fill="#c1121f" stroke="#fffdf7" stroke-width="1.3" />
<circle cx="667.9" cy="488.0" r="4.5" fill="#c1121f" stroke="#fffdf7" stroke-width="1.3" />
<circle cx="773.2" cy="446.2" r="4.5" fill="#c1121f" stroke="#fffdf7" stroke-width="1.3" />
<circle cx="878.5" cy="437.8" r="4.5" fill="#c1121f" stroke="#fffdf7" stroke-width="1.3" />
<line x1="728.0" y1="435.0" x2="752.0" y2="435.0" stroke="#355070" stroke-width="4" stroke-linecap="round" />
<text x="762.0" y="439.0" fill="#1f1d1a" font-size="12" font-family="Trebuchet MS, Arial, sans-serif">Validation</text>
<line x1="728.0" y1="457.0" x2="752.0" y2="457.0" stroke="#c1121f" stroke-width="4" stroke-linecap="round" />
<text x="762.0" y="461.0" fill="#1f1d1a" font-size="12" font-family="Trebuchet MS, Arial, sans-serif">Test</text>
<text x="510.0" y="602.0" text-anchor="middle" fill="#1f1d1a" font-size="12" font-family="Trebuchet MS, Arial, sans-serif">Layer 1 / Layer 2 Neurons</text>
<rect x="42.0" y="638.0" width="896.0" height="255.0" rx="18" fill="#fffdf7" stroke="#e6dec9" />
<text x="66.0" y="672.0" fill="#1f1d1a" font-size="22" font-weight="700" font-family="Georgia, serif">R^2</text>
<line x1="112.0" y1="884.7" x2="908.0" y2="884.7" stroke="#d9d2bf" stroke-width="1" />
<text x="102.0" y="888.7" text-anchor="end" fill="#6f6659" font-size="11" font-family="Trebuchet MS, Arial, sans-serif">0.6</text>
<line x1="112.0" y1="843.1" x2="908.0" y2="843.1" stroke="#d9d2bf" stroke-width="1" />
<text x="102.0" y="847.1" text-anchor="end" fill="#6f6659" font-size="11" font-family="Trebuchet MS, Arial, sans-serif">0.65</text>
<line x1="112.0" y1="801.5" x2="908.0" y2="801.5" stroke="#d9d2bf" stroke-width="1" />
<text x="102.0" y="805.5" text-anchor="end" fill="#6f6659" font-size="11" font-family="Trebuchet MS, Arial, sans-serif">0.7</text>
<line x1="112.0" y1="760.0" x2="908.0" y2="760.0" stroke="#d9d2bf" stroke-width="1" />
<text x="102.0" y="764.0" text-anchor="end" fill="#6f6659" font-size="11" font-family="Trebuchet MS, Arial, sans-serif">0.75</text>
<line x1="112.0" y1="718.4" x2="908.0" y2="718.4" stroke="#d9d2bf" stroke-width="1" />
<text x="102.0" y="722.4" text-anchor="end" fill="#6f6659" font-size="11" font-family="Trebuchet MS, Arial, sans-serif">0.8</text>
<line x1="112.0" y1="676.8" x2="908.0" y2="676.8" stroke="#d9d2bf" stroke-width="1" />
<text x="102.0" y="680.8" text-anchor="end" fill="#6f6659" font-size="11" font-family="Trebuchet MS, Arial, sans-serif">0.85</text>
<line x1="141.5" y1="704.0" x2="141.5" y2="845.0" stroke="#d9d2bf" stroke-width="1" />
<text x="141.5" y="863.0" text-anchor="middle" fill="#6f6659" font-size="11" font-family="Trebuchet MS, Arial, sans-serif">10/5</text>
<line x1="246.8" y1="704.0" x2="246.8" y2="845.0" stroke="#d9d2bf" stroke-width="1" />
<text x="246.8" y="863.0" text-anchor="middle" fill="#6f6659" font-size="11" font-family="Trebuchet MS, Arial, sans-serif">25/10</text>
<line x1="352.1" y1="704.0" x2="352.1" y2="845.0" stroke="#d9d2bf" stroke-width="1" />
<text x="352.1" y="863.0" text-anchor="middle" fill="#6f6659" font-size="11" font-family="Trebuchet MS, Arial, sans-serif">50/25</text>
<line x1="457.4" y1="704.0" x2="457.4" y2="845.0" stroke="#d9d2bf" stroke-width="1" />
<text x="457.4" y="863.0" text-anchor="middle" fill="#6f6659" font-size="11" font-family="Trebuchet MS, Arial, sans-serif">75/50</text>
<line x1="562.6" y1="704.0" x2="562.6" y2="845.0" stroke="#d9d2bf" stroke-width="1" />
<text x="562.6" y="863.0" text-anchor="middle" fill="#6f6659" font-size="11" font-family="Trebuchet MS, Arial, sans-serif">100/75</text>
<line x1="667.9" y1="704.0" x2="667.9" y2="845.0" stroke="#d9d2bf" stroke-width="1" />
<text x="667.9" y="863.0" text-anchor="middle" fill="#6f6659" font-size="11" font-family="Trebuchet MS, Arial, sans-serif">125/100</text>
<line x1="773.2" y1="704.0" x2="773.2" y2="845.0" stroke="#d9d2bf" stroke-width="1" />
<text x="773.2" y="863.0" text-anchor="middle" fill="#6f6659" font-size="11" font-family="Trebuchet MS, Arial, sans-serif">200/125</text>
<line x1="878.5" y1="704.0" x2="878.5" y2="845.0" stroke="#d9d2bf" stroke-width="1" />
<text x="878.5" y="863.0" text-anchor="middle" fill="#6f6659" font-size="11" font-family="Trebuchet MS, Arial, sans-serif">350/200</text>
<path d="M 141.48 757.30 L 246.77 719.16 L 352.06 718.50 L 457.35 718.40 L 562.65 713.72 L 667.94 714.22 L 773.23 725.49 L 878.52 716.23" fill="none" stroke="#355070" stroke-width="3.2" stroke-linecap="round" stroke-linejoin="round" />
<circle cx="141.5" cy="757.3" r="4.5" fill="#355070" stroke="#fffdf7" stroke-width="1.3" />
<circle cx="246.8" cy="719.2" r="4.5" fill="#355070" stroke="#fffdf7" stroke-width="1.3" />
<circle cx="352.1" cy="718.5" r="4.5" fill="#355070" stroke="#fffdf7" stroke-width="1.3" />
<circle cx="457.4" cy="718.4" r="4.5" fill="#355070" stroke="#fffdf7" stroke-width="1.3" />
<circle cx="562.6" cy="713.7" r="4.5" fill="#355070" stroke="#fffdf7" stroke-width="1.3" />
<circle cx="667.9" cy="714.2" r="4.5" fill="#355070" stroke="#fffdf7" stroke-width="1.3" />
<circle cx="773.2" cy="725.5" r="4.5" fill="#355070" stroke="#fffdf7" stroke-width="1.3" />
<circle cx="878.5" cy="716.2" r="4.5" fill="#355070" stroke="#fffdf7" stroke-width="1.3" />
<path d="M 141.48 835.28 L 246.77 807.06 L 352.06 814.61 L 457.35 823.56 L 562.65 816.66 L 667.94 811.51 L 773.23 823.51 L 878.52 824.52" fill="none" stroke="#c1121f" stroke-width="3.2" stroke-linecap="round" stroke-linejoin="round" />
<circle cx="141.5" cy="835.3" r="4.5" fill="#c1121f" stroke="#fffdf7" stroke-width="1.3" />
<circle cx="246.8" cy="807.1" r="4.5" fill="#c1121f" stroke="#fffdf7" stroke-width="1.3" />
<circle cx="352.1" cy="814.6" r="4.5" fill="#c1121f" stroke="#fffdf7" stroke-width="1.3" />
<circle cx="457.4" cy="823.6" r="4.5" fill="#c1121f" stroke="#fffdf7" stroke-width="1.3" />
<circle cx="562.6" cy="816.7" r="4.5" fill="#c1121f" stroke="#fffdf7" stroke-width="1.3" />
<circle cx="667.9" cy="811.5" r="4.5" fill="#c1121f" stroke="#fffdf7" stroke-width="1.3" />
<circle cx="773.2" cy="823.5" r="4.5" fill="#c1121f" stroke="#fffdf7" stroke-width="1.3" />
<circle cx="878.5" cy="824.5" r="4.5" fill="#c1121f" stroke="#fffdf7" stroke-width="1.3" />
<line x1="728.0" y1="716.0" x2="752.0" y2="716.0" stroke="#355070" stroke-width="4" stroke-linecap="round" />
<text x="762.0" y="720.0" fill="#1f1d1a" font-size="12" font-family="Trebuchet MS, Arial, sans-serif">Validation</text>
<line x1="728.0" y1="738.0" x2="752.0" y2="738.0" stroke="#c1121f" stroke-width="4" stroke-linecap="round" />
<text x="762.0" y="742.0" fill="#1f1d1a" font-size="12" font-family="Trebuchet MS, Arial, sans-serif">Test</text>
<text x="510.0" y="883.0" text-anchor="middle" fill="#1f1d1a" font-size="12" font-family="Trebuchet MS, Arial, sans-serif">Layer 1 / Layer 2 Neurons</text>
</svg>